<?xml version="1.0" encoding="utf-8"?>
<!-- Generator: Adobe Illustrator 21.0.0, SVG Export Plug-In . SVG Version: 6.00 Build 0)  -->
<svg version="1.1" id="Layer_1" xmlns="http://www.w3.org/2000/svg" xmlns:xlink="http://www.w3.org/1999/xlink" x="0px" y="0px"
	 viewBox="0 0 512 512" style="enable-background:new 0 0 512 512;" xml:space="preserve">
<style type="text/css">
	.st0{fill:#ACA340;stroke:#ACA340;stroke-miterlimit:10;}
	.st1{fill:#ACA340;stroke:#ACA340;stroke-width:12;stroke-miterlimit:10;}
</style>
<g>
	<g>
		<path class="st0" d="M492.4,158c-18.6-44.9-49.3-83.2-89.3-111.4C359.9,16.2,309,0.2,256,0.2C132.4,0.2,26.6,88.3,4.4,209.7
			c-1,5.5,2.7,10.8,8.2,11.9c0.6,0.1,1.2,0.2,1.8,0.2c4.8,0,9.1-3.4,10-8.4C44.8,101.7,142.2,20.6,256,20.6
			c94.1,0,180,57.2,216.7,143.3l-19.2,5.6l44.1,42.1l14.4-59.3L492.4,158z"/>
	</g>
</g>
<g>
	<g>
		<path class="st0" d="M499.4,290.4c-5.5-1-10.8,2.7-11.9,8.2c-0.5,2.5-1,5.1-1.5,7.6c-1.2,5.5,2.3,10.9,7.8,12.1
			c0.7,0.2,1.5,0.2,2.2,0.2c4.7,0,8.9-3.3,10-8c0.6-2.8,1.2-5.5,1.7-8.3C508.6,296.8,505,291.4,499.4,290.4z"/>
	</g>
</g>
<g>
	<g>
		<path class="st0" d="M489.5,333.1c-5.3-2-11.1,0.7-13.1,5.9C442,430.2,353.5,491.4,256,491.4c-94.1,0-180-57.2-216.7-143.3
			l19.2-5.6l-44.1-42.1L0,359.7l19.6-5.8c18.6,44.9,49.3,83.2,89.3,111.4c43.2,30.4,94.1,46.5,147.1,46.5
			c53,0,103.9-16.1,147.1-46.5c42.2-29.8,74.2-70.9,92.3-119.1C497.4,341,494.8,335.1,489.5,333.1z"/>
	</g>
</g>
<g>
	<g>
		<path class="st1" d="M382.6,256.5l-82.3-6.7c-2.6-6.7-6.4-12.9-11.7-17.9l32.2-73c7.6-17.6,6.4-37.8-3.5-54.2S290.6,78,271.5,76.5
			h-0.9c-10.5-0.9-21.1-0.6-31.4,0.3c-19,1.5-35.7,11.7-45.7,28.1c-10,16.1-11.4,35.5-4.1,53l30.8,74.4c-5.3,5.3-9.1,11.7-11.7,18.8
			l-73.8,4.4c-19,1.2-35.7,10.8-46,27c-10.3,16.1-12.3,35.5-5.3,53.3c3.8,9.7,8.5,19.3,13.5,28.4l0.6,0.9
			c9.7,16.4,26.1,27,45.4,28.4c1.8,0,3.5,0.3,5,0.3c17.3,0,34-7.6,45.1-21.1l50.1-59.2c3.8,0.9,7.6,1.5,11.7,1.5
			c6.4,0,12.6-1.2,18.2-3.5l48.6,60.7c11.1,14.1,28.1,22,46,22c1.2,0,2.3,0,3.8,0c19-1.2,36-11.1,46-27.5l0.6-0.9
			c5.3-8.8,10.3-18.2,14.1-27.8c7.3-17.6,5.9-37.2-4.1-53.6C418.3,268.2,401.6,257.9,382.6,256.5z M203.9,110.8
			c7.9-13.2,21.4-21.4,36.6-22.6c10-0.9,19.9-0.9,29.6-0.3h0.9c15.2,1.2,28.4,9.4,36.3,22.6c7.9,13.5,9.1,29.3,2.6,43.4l-31.1,70.3
			c-7-4.1-15.2-6.4-24-6.4c-9.1,0-17.6,2.6-24.6,6.7l-29.9-71.2C194.8,139.2,195.9,123.7,203.9,110.8z M184.2,365.5
			c-10,12-24.6,17.9-40.1,16.7c-15.2-1.2-28.4-9.7-36.3-22.9l-0.6-0.9c-5-8.5-9.4-17.6-12.9-26.7c-5.6-14.4-4.1-29.9,4.1-42.8
			c8.2-12.9,21.7-20.5,36.6-21.7l71.2-4.4c0,1.2-0.3,2.3-0.3,3.8c0,18.5,10.3,34.3,25.2,42.5L184.2,365.5z M217.9,266.7
			c0-20.2,16.4-36.9,36.9-36.9c20.5,0,36.9,16.4,36.9,36.9c0,20.5-16.4,36.9-36.9,36.9S217.9,286.9,217.9,266.7z M421.3,333.2
			c-3.8,9.1-8.2,17.9-13.5,26.4l-0.6,0.9c-7.9,12.9-21.4,21.1-36.6,22c-15.5,0.9-30.2-5.6-39.9-17.6L283.3,306
			c12-8.8,19.9-23.1,19.9-39.3c0-1.8,0-3.5-0.3-5l78.5,6.4c15.2,1.2,28.4,9.4,36.3,22.3C426,303.6,427.4,319.2,421.3,333.2z"/>
	</g>
</g>
</svg>
