<svg id="Layer_1" data-name="Layer 1" xmlns="http://www.w3.org/2000/svg" viewBox="0 0 132.39 192.88"><defs><style>.cls-1,.cls-14,.cls-17,.cls-18,.cls-3,.cls-8{fill:none;}.cls-1{stroke:#fff;stroke-width:2px;}.cls-1,.cls-13{stroke-miterlimit:10;}.cls-12,.cls-2{fill:#c6c6c6;}.cls-12,.cls-13,.cls-14,.cls-17,.cls-18,.cls-2,.cls-3,.cls-4,.cls-5,.cls-6{stroke:#1d1d1b;}.cls-12,.cls-14,.cls-18,.cls-2,.cls-3,.cls-4,.cls-5,.cls-6{stroke-linecap:round;}.cls-12,.cls-14,.cls-17,.cls-18,.cls-2,.cls-3,.cls-4,.cls-5,.cls-6,.cls-7,.cls-8{stroke-linejoin:round;}.cls-15,.cls-4{fill:#5355a1;}.cls-16,.cls-5{fill:#ea5a11;}.cls-6,.cls-7{fill:#fff;}.cls-7,.cls-8{stroke:#2b2523;}.cls-9{fill:#1d1d1b;}.cls-10{fill:#e94b33;}.cls-11{fill:#fecf00;}.cls-12{stroke-width:1.03px;}.cls-13{fill:#5180c1;}.cls-14{stroke-width:0.7px;}.cls-18{stroke-width:0.51px;}</style></defs><title>build-for-icons</title><circle class="cls-1" cx="33.38" cy="33.36" r="20.67"/><path class="cls-2" d="M39.26,26l-5.7,4-5.7-4,5.7-4.43Z"/><polyline class="cls-3" points="27.69 25.88 21.7 25.88 21.7 34.97"/><polyline class="cls-3" points="39.07 25.88 45.06 25.88 45.06 34.97"/><rect class="cls-4" x="18.34" y="35.19" width="6.72" height="6.72"/><rect class="cls-4" x="41.71" y="35.19" width="6.72" height="6.72"/><circle class="cls-1" cx="33.38" cy="153.24" r="20.67"/><path class="cls-5" d="M30.34,151.52h-4.6a2,2,0,0,0-1.86,2.07v9.53H42.92v-9.53a2,2,0,0,0-1.86-2.07H36.54"/><rect class="cls-6" x="28.55" y="140.05" width="9.78" height="12.51" rx="4.77" ry="4.77"/><path class="cls-6" d="M35.91,143.94a6.42,6.42,0,0,1-3.51,1c-1.41,0-3.84-.49-3.84-.14v3a4.77,4.77,0,0,0,4.77,4.77h.24a4.77,4.77,0,0,0,4.77-4.77v-2.88a6.32,6.32,0,0,1-2.42-.93Z"/><path class="cls-2" d="M37.12,160.65H35.58L34,159.09l-1.66,1.54-1.54-1.55-1.55,1.54-1.6-1.55-3.82,4.07,13.24.05a4.5,4.5,0,1,0,0-2.54Z"/><circle class="cls-6" cx="43.12" cy="161.94" r="1.19" transform="matrix(0, -1, 1, 0, -119.04, 204.26)"/><circle class="cls-1" cx="33.38" cy="95.76" r="20.67"/><rect class="cls-7" x="22.83" y="84.46" width="17.17" height="21.12"/><line class="cls-8" x1="29.44" y1="89.46" x2="37.22" y2="89.46"/><circle class="cls-9" cx="25.96" cy="89.46" r="0.75"/><line class="cls-8" x1="29.44" y1="94.26" x2="37.22" y2="94.26"/><circle class="cls-9" cx="25.96" cy="94.26" r="0.75"/><line class="cls-8" x1="29.44" y1="99.26" x2="37.22" y2="99.26"/><circle class="cls-9" cx="25.96" cy="99.26" r="0.75"/><line class="cls-10" x1="34.84" y1="94.61" x2="41.56" y2="93.12"/><rect class="cls-11" x="31.64" y="94.92" width="13.46" height="12.73"/><path class="cls-9" d="M38.52,93.39c4.05,0,6.87.8,6.87,1.52s-2.82,1.52-6.87,1.52-6.88-.8-6.88-1.52S34.46,93.39,38.52,93.39Z"/><path class="cls-3" d="M31.64,97.55c2.64,2,11.36,2.06,13.75,0"/><path class="cls-3" d="M31.64,100.53c2.64,2,11.36,2.06,13.75,0"/><path class="cls-3" d="M31.64,103.68c2.64,2,11.36,2.06,13.75,0"/><path class="cls-3" d="M31.64,106.84c2.64,2,11.36,2.06,13.75,0"/><circle class="cls-1" cx="99.22" cy="33.37" r="20.67"/><path class="cls-12" d="M107.4,26.51a2.38,2.38,0,0,0-1.93-2c-2.14-.56-6-1-6.68-.36L86,37a1.29,1.29,0,0,0,0,1.83l7.12,7.12a1.29,1.29,0,0,0,1.83,0l12.81-12.81C108.48,32.38,108,28.79,107.4,26.51ZM103,28.89a1.71,1.71,0,1,1,2.42,0A1.71,1.71,0,0,1,103,28.89Z"/><path class="cls-3" d="M104.13,27.8c-.1-2.25,1.11-4.33,3.5-4.33,2,0,4.62,1.43,5-1.42"/><circle class="cls-1" cx="99.22" cy="95.77" r="20.67"/><path class="cls-13" d="M107.36,86.43a4.39,4.39,0,0,0-1.25.18A6.73,6.73,0,0,0,93.8,85,5.17,5.17,0,0,0,92,84.66a5.23,5.23,0,1,0,0,10.45h15.4a4.34,4.34,0,1,0,0-8.69Z"/><rect class="cls-12" x="92.73" y="89.39" width="12.98" height="18.38"/><line class="cls-14" x1="92.81" y1="93.74" x2="105.71" y2="93.74"/><path class="cls-9" d="M103.63,91.73a.77.77,0,1,1-.77-.78.78.78,0,0,1,.77.78"/><line class="cls-14" x1="94.23" y1="91.75" x2="100.64" y2="91.75"/><line class="cls-14" x1="92.81" y1="98.35" x2="105.71" y2="98.35"/><path class="cls-9" d="M103.63,96.09a.77.77,0,1,1-.77-.77.77.77,0,0,1,.77.77"/><line class="cls-14" x1="94.23" y1="96.11" x2="100.64" y2="96.11"/><line class="cls-14" x1="92.81" y1="102.95" x2="105.71" y2="102.95"/><path class="cls-9" d="M103.63,100.68a.77.77,0,1,1-.77-.77.78.78,0,0,1,.77.77"/><line class="cls-14" x1="94.23" y1="100.7" x2="100.64" y2="100.7"/><path class="cls-9" d="M103.63,105.47a.77.77,0,1,1-.77-.78.78.78,0,0,1,.77.78"/><line class="cls-14" x1="94.23" y1="105.5" x2="100.64" y2="105.5"/><circle class="cls-1" cx="99.22" cy="153.25" r="20.67"/><circle class="cls-15" cx="105.24" cy="158.7" r="5.16"/><circle class="cls-16" cx="92.12" cy="145.99" r="3.43"/><path class="cls-17" d="M111.65,161.93a6.81,6.81,0,0,0,.3-.68l2.27,0,.34-2.24-2.17-.68a7.3,7.3,0,0,0-.24-1.48l1.84-1.3-1-2-2.15.72a7.12,7.12,0,0,0-1.07-1.06l.72-2.13-2-1-1.3,1.84a7.27,7.27,0,0,0-1.49-.24l-.68-2.16-2.25.35,0,2.26a7.08,7.08,0,0,0-1.34.68l-1.83-1.35L98,153l1.37,1.81a6.85,6.85,0,0,0-.37.65,7.05,7.05,0,0,0-.3.68l-2.27,0L96,158.37l2.17.68a7.06,7.06,0,0,0,.24,1.48l-1.85,1.3,1,2,2.15-.72a7.08,7.08,0,0,0,1.07,1.06l-.72,2.13,2,1,1.3-1.84a7.12,7.12,0,0,0,1.49.24l.69,2.16,2.25-.35,0-2.26a7.24,7.24,0,0,0,1.34-.68L111,166l1.6-1.6-1.37-1.81A7,7,0,0,0,111.65,161.93Z"/><ellipse class="cls-17" cx="105.3" cy="158.7" rx="5.12" ry="5.17" transform="translate(-83.88 180.75) rotate(-63.08)"/><path class="cls-17" d="M99.52,144.23a7.6,7.6,0,0,0-.93-2.24,1.85,1.85,0,0,1-2.48-2.48,7.54,7.54,0,0,0-2.24-.93,1.86,1.86,0,0,1-3.51,0,7.54,7.54,0,0,0-2.24.93A1.85,1.85,0,0,1,85.66,142a7.59,7.59,0,0,0-.93,2.24,1.85,1.85,0,0,1,0,3.51,7.54,7.54,0,0,0,.93,2.24,1.86,1.86,0,0,1,2.48,2.48,7.54,7.54,0,0,0,2.24.93,1.86,1.86,0,0,1,3.51,0,7.54,7.54,0,0,0,2.24-.93A1.86,1.86,0,0,1,98.59,150a7.54,7.54,0,0,0,.93-2.24,1.85,1.85,0,0,1,0-3.51Z"/><circle class="cls-17" cx="92.12" cy="145.99" r="3.33"/><line class="cls-17" x1="89.94" y1="143.87" x2="92.8" y2="146.73"/><line class="cls-17" x1="108.79" y1="162.14" x2="104.82" y2="158.16"/><polyline class="cls-3" points="104.64 160.48 104.64 157.88 107.08 157.88"/><polyline class="cls-18" points="92.95 144.84 92.95 146.87 91.05 146.87"/></svg>