<svg id="Layer_1" data-name="Layer 1" xmlns="http://www.w3.org/2000/svg" viewBox="0 0 538.96 173.92"><defs><style>.cls-1,.cls-2{fill:#fff;}.cls-1{fill-rule:evenodd;}</style></defs><title>customers</title><path class="cls-1" d="M42.39,23.64c2.54-6.26-2.21-8-5.31-8H26.84a1.45,1.45,0,0,1,.54,1.84l-6,19.08a3,3,0,0,1-1.61,1.67H28.1a1.3,1.3,0,0,1-.87-1.62l2.17-6.9s10,1.35,13-6.11m-8.06-6.21c1.08,0,4.09.14,2.15,5.83-2,6-6.54,4.74-6.54,4.74l3.32-10.57Z"/><path class="cls-1" d="M49,38.27h5.58a15.26,15.26,0,0,1-5.47-3.46,6.78,6.78,0,0,0,2.09-4.47H48.32a1.2,1.2,0,0,1,.56,1,3.64,3.64,0,0,1-.74,2.11,11.13,11.13,0,0,1-2.07-4.79,17.53,17.53,0,0,0,4-2.29,3.78,3.78,0,0,0,1.5-2.7v-.08a2.51,2.51,0,0,0-.75-1.8,4,4,0,0,0-3.55-.91,5.45,5.45,0,0,0-2.54,1.25c-1.69,1.58-1.91,4.18-1.91,5.36,0,.29,0,.5,0,.63l-.27.1c-1.23.45-4.51,1.33-5.69,4a5.19,5.19,0,0,0-.36,1.94,4.28,4.28,0,0,0,.64,2.32,4.8,4.8,0,0,0,4.48,2.07,10.63,10.63,0,0,0,5.29-2A13,13,0,0,0,49,38.27m0-15.09c-.29,1.82-2.64,3.65-3.22,3.9a6.25,6.25,0,0,1,.8-4c.57-.87,1.31-1.26,1.92-1s.54.62.5,1.1M45.74,35.34a7.74,7.74,0,0,1-2.84,1,2.51,2.51,0,0,1-3-2.58c0-1.93,2.1-3.33,3.23-3.82a16.38,16.38,0,0,0,2.6,5.43"/><path class="cls-1" d="M66,17.45c3.31-.79,6,1.8,6.3,2l.95-3C71.91,16,62.39,12.8,55.67,20.48c-4.13,4.72-5.15,14.4.1,17C61.39,40.24,67.58,37,68,36.82l2.57-8.16a2.93,2.93,0,0,1,2-2H63.7a1.56,1.56,0,0,1,1.1,1.92L62.24,36.7c-.34.07-7.5,1.85-3.5-10.68C59.61,23.33,62,18.4,66,17.45"/><path class="cls-1" d="M202.34,25.73c0-2.6-2-7.46-8.55-7.48a9.48,9.48,0,0,0-6,2.06V18.47h-4.37v1.85a7.83,7.83,0,0,0-3.68-2,9.86,9.86,0,0,0-4.5.37,6.48,6.48,0,0,0-3.23,2.06c-1.82-2-4.71-2.45-7-2.53-2.62-.1-5.25.23-7.31,1.73a15.87,15.87,0,0,0-7.26-1.79,9.83,9.83,0,0,0-6.44,2,3.75,3.75,0,0,0-1.16,1.66,4.39,4.39,0,0,0,.31,4c1.22,1.63,2.59,2.26,5,2.54,2.15.24,3.67.24,5.26.54a1.63,1.63,0,0,1,1.45,1.52c0,1-1.35,2.54-4.61,2.33-2.71-.18-3.74-.56-6.29-2.22l-2.88,2.33s.49.39.83.61.66.41,1,.6h0a16.15,16.15,0,0,0,9.91,1.69,11.66,11.66,0,0,0,4.52-1.67A8.17,8.17,0,0,0,163.38,36c2.17-.1,3.78,0,5.29-1.75v1.73h4.22V34.21A12.68,12.68,0,0,0,174,35c2.68,1.61,6.94,1,9.46-.92v2.24c-.07,1.38-1.34,2.33-2.67,2.86-2.3.92-4.4.1-6.28-1.22l-3.2,2.14A8.91,8.91,0,0,0,174.22,42a11.45,11.45,0,0,0,10.3-.61,6,6,0,0,0,3-4.49,14.83,14.83,0,0,0,.3-2.85s0-.05,0-.08l.11.08a9.46,9.46,0,0,0,2.88,1.45,12.06,12.06,0,0,0,6.62,0,9.34,9.34,0,0,0,3.07-1.42h0a10.49,10.49,0,0,0,1.38-1.18l-2.76-2a8,8,0,0,1-3.91,1.73c-1.83.23-3.91-.1-5-1.32-.61-.66-.82-.86-.82-2.53h13Zm-27.63,1.21c0-1,.13-2,.23-3,.05-.49.64-1.08,1.48-1.54a5.5,5.5,0,0,1,4.71-.34,2.88,2.88,0,0,1,2.07,2.19c.08.92.18,1.79.22,2.63a10.48,10.48,0,0,1-.2,3,2.8,2.8,0,0,1-1.07,1.62,4.63,4.63,0,0,1-3.1,1c-1.81-.1-3.44-.82-3.92-1.82a8.79,8.79,0,0,1-.43-3.72M167,32.52a10,10,0,0,1-3.89.24c-1.28-.15-2.5-.24-3-1.39a1.58,1.58,0,0,1,.21-1.73c.66-.84,2.19-1,3.11-1h5c.13,1.31.55,3.26-1.45,3.89m-14.93-7.14c-2-.11-3.87-.15-4.88-1a1.55,1.55,0,0,1,.35-2.28,6.07,6.07,0,0,1,3.4-.63,10.4,10.4,0,0,1,5,1.62l1.75-1.62s1.85,1.69,1.85,1.62a6.55,6.55,0,0,1,4.92-1.5c2.75,0,3.53.53,3.94,1.14a9.51,9.51,0,0,1,0,2.7s-2.42.07-4.17,0a14.31,14.31,0,0,0-3.56.15,5.72,5.72,0,0,0-3,1.29,11.38,11.38,0,0,0-1.56-.89,9.73,9.73,0,0,0-4.11-.63m37.38.3a4.35,4.35,0,0,1,.73-2.53,4.84,4.84,0,0,1,4.06-1.85,5.08,5.08,0,0,1,4,1.74,4.18,4.18,0,0,1,.85,2.65Z"/><path class="cls-1" d="M449.48,13.29c4.37,0,8.86-.06,13.16,0v1.87h-13.2V13.42c0-.06,0-.12,0-.13"/><path class="cls-1" d="M483.16,15.21H464.51V13.42c0-.06,0-.12,0-.13h10.22a32.16,32.16,0,0,1,4.94.17,6.64,6.64,0,0,1,3.49,1.62l-.06.05Z"/><path class="cls-1" d="M487.16,13.29h10.56c.23.63.47,1.27.68,1.92H487.08V13.42a.12.12,0,0,1,.09-.13"/><path class="cls-1" d="M506.66,13.29h10.56v1.92H505.94a11.32,11.32,0,0,1,.72-1.92"/><path class="cls-1" d="M449.48,16.91h13.16v1.87c-4.32.1-8.81,0-13.2,0V17c0-.06,0-.12,0-.13"/><path class="cls-1" d="M464.55,16.91h20.27a6.54,6.54,0,0,1,.6,1.92h-20.9V17c0-.06,0-.12,0-.13"/><path class="cls-1" d="M487.12,16.91H499c.17.68.46,1.24.64,1.92-4.18,0-8.49.06-12.6,0V17c0-.06,0-.12,0-.13"/><path class="cls-1" d="M505.34,16.91h11.88v1.92H504.66a15.35,15.35,0,0,1,.68-1.92"/><path class="cls-1" d="M453.27,20.49c1.86,0,3.83-.06,5.62,0V22.4h-5.71V20.62a.12.12,0,0,1,.09-.13"/><path class="cls-1" d="M468.35,20.49h5.58V22.4h-5.66V20.62a.12.12,0,0,1,.09-.13"/><path class="cls-1" d="M479.63,20.49h6a6.56,6.56,0,0,1-.3,1.91h-5.75V20.62a.11.11,0,0,1,.08-.13"/><path class="cls-1" d="M490.91,20.49h9.37c.23.63.47,1.26.68,1.91H490.87V20.62c0-.06,0-.12,0-.13"/><path class="cls-1" d="M504.11,20.49c3.11,0,6.33-.06,9.37,0V22.4H503.38a11,11,0,0,1,.72-1.91"/><path class="cls-1" d="M458.89,24.11V26h-5.71a15.9,15.9,0,0,1,0-1.87Z"/><path class="cls-1" d="M468.3,24.11h16.09c.15.06-.06.18-.08.21-.18.24-.37.5-.6.77s-.64.81-.94.89a9.14,9.14,0,0,1-1.83,0H468.26V24.24c0-.06,0-.12,0-.13"/><path class="cls-1" d="M501.6,24.11c.15.58.37,1.08.55,1.62a15.45,15.45,0,0,0,.6-1.62h10.73V26h-5.66v-1.4a9.4,9.4,0,0,0-.51,1.4H497c-.15-.47-.35-.9-.47-1.4a9,9,0,0,0,0,1.4h-5.66a15.88,15.88,0,0,1,0-1.87Z"/><path class="cls-1" d="M458.89,27.73v1.83c-1.82.1-3.82,0-5.71,0a16.64,16.64,0,0,1,0-1.92c1.87,0,3.86-.06,5.67,0"/><path class="cls-1" d="M468.3,27.69h12.6a9.73,9.73,0,0,1,1.79,0c.39.09.7.58,1,.89a4,4,0,0,1,.77,1H468.26V27.81c0-.06,0-.12,0-.13"/><path class="cls-1" d="M496.53,27.69V29.6h-5.66a16.62,16.62,0,0,1,0-1.92Z"/><path class="cls-1" d="M506.66,27.69c-.17.68-.43,1.28-.64,1.92h-7.71c-.25-.62-.46-1.28-.68-1.92Z"/><path class="cls-1" d="M513.48,27.69V29.6h-5.66a17.32,17.32,0,0,1,0-1.92Z"/><path class="cls-1" d="M458.89,31.31v1.87h-5.71a15.87,15.87,0,0,1,0-1.87Z"/><path class="cls-1" d="M473.92,31.31v1.87h-5.66a16.06,16.06,0,0,1,0-1.87Z"/><path class="cls-1" d="M485.33,31.31a9.59,9.59,0,0,1,.3,1.87h-6.09a15.84,15.84,0,0,1,0-1.87Z"/><path class="cls-1" d="M496.53,31.31v1.87h-5.66a15.85,15.85,0,0,1,0-1.87Z"/><path class="cls-1" d="M498.91,31.31h6.52c-.2.64-.44,1.23-.64,1.87h-5.24c-.21-.63-.46-1.22-.64-1.87"/><path class="cls-1" d="M513.48,31.31v1.87h-5.66a16.52,16.52,0,0,1,0-1.87Z"/><path class="cls-1" d="M449.48,34.88h13.16V36.8h-13.2V35c0-.06,0-.12,0-.13"/><path class="cls-1" d="M464.55,34.88h20.82a5.65,5.65,0,0,1-.6,1.92H464.51V35c0-.06,0-.12,0-.13"/><path class="cls-1" d="M487.16,34.88h9.37v1.87c-3.05.07-6.4.07-9.45,0V35a.12.12,0,0,1,.09-.13"/><path class="cls-1" d="M500.15,34.88h4a19.48,19.48,0,0,1-.64,1.92h-2.68c-.25-.62-.45-1.28-.68-1.92"/><path class="cls-1" d="M507.85,34.88h9.37V36.8h-9.41V35c0-.06,0-.12,0-.13"/><path class="cls-1" d="M449.48,38.46c4.37,0,8.86-.06,13.16,0v1.87h-13.2V38.58c0-.06,0-.12,0-.13"/><path class="cls-1" d="M464.55,38.46h18.73c.18,0-.13.23-.21.3A7.12,7.12,0,0,1,480,40.2a27.92,27.92,0,0,1-5,.17H464.51V38.58c0-.06,0-.12,0-.13"/><path class="cls-1" d="M487.16,38.46c3.11,0,6.33-.06,9.37,0v1.87h-9.45V38.58a.12.12,0,0,1,.09-.13"/><path class="cls-1" d="M501.43,38.46h1.49a5.37,5.37,0,0,1-.34,1,2.25,2.25,0,0,1-.38.94c-.21,0-.2-.25-.25-.38a16,16,0,0,1-.51-1.53"/><path class="cls-1" d="M507.85,38.46h9.37v1.92h-9.41V38.58c0-.06,0-.12,0-.13"/><path class="cls-1" d="M483.14,15.13h.09"/><path class="cls-1" d="M303.15,36.21c-4.32,3.19-10.58,4.88-16,4.88a28.9,28.9,0,0,1-19.51-7.44c-.4-.36,0-.86.44-.58a39.26,39.26,0,0,0,19.52,5.18,38.87,38.87,0,0,0,14.89-3c.73-.31,1.34.48.63,1"/><path class="cls-1" d="M304.95,34.16c-.55-.71-3.65-.34-5-.17-.42,0-.49-.32-.11-.59,2.47-1.74,6.52-1.23,7-.65s-.12,4.65-2.44,6.59c-.36.3-.7.14-.54-.26.52-1.3,1.69-4.21,1.14-4.92"/><path class="cls-1" d="M300,21.14V19.45a.42.42,0,0,1,.43-.43H308a.42.42,0,0,1,.44.43V20.9a2.38,2.38,0,0,1-.57,1.06l-3.92,5.59a8.4,8.4,0,0,1,4.31.93.77.77,0,0,1,.4.66v1.8c0,.25-.27.54-.56.39a8.71,8.71,0,0,0-8,0c-.26.14-.54-.14-.54-.39V29.23a2,2,0,0,1,.28-1.16l4.54-6.51h-4a.42.42,0,0,1-.44-.42"/><path class="cls-1" d="M272.42,31.68h-2.3a.43.43,0,0,1-.41-.39V19.48a.43.43,0,0,1,.44-.42h2.14a.43.43,0,0,1,.42.4V21h0a3.16,3.16,0,0,1,6,0,3.4,3.4,0,0,1,5.84-.89c.73,1,.58,2.43.58,3.7v7.45a.43.43,0,0,1-.44.42h-2.3a.43.43,0,0,1-.41-.42V25a15.11,15.11,0,0,0-.06-2.21,1.2,1.2,0,0,0-1.35-1,1.52,1.52,0,0,0-1.37,1A7.1,7.1,0,0,0,279,25v6.26a.43.43,0,0,1-.44.42h-2.3a.43.43,0,0,1-.41-.42V25c0-1.32.21-3.25-1.42-3.25s-1.59,1.89-1.59,3.25v6.26a.43.43,0,0,1-.44.42"/><path class="cls-1" d="M314.93,18.81c3.41,0,5.26,2.93,5.26,6.66s-2,6.46-5.26,6.46-5.17-2.93-5.17-6.58,1.85-6.53,5.17-6.53m0,2.41c-1.7,0-1.8,2.31-1.8,3.75s0,4.52,1.78,4.52,1.87-2.48,1.87-4a10.92,10.92,0,0,0-.34-3.13,1.44,1.44,0,0,0-1.5-1.14"/><path class="cls-1" d="M324.62,31.68h-2.29a.43.43,0,0,1-.41-.42V19.44a.44.44,0,0,1,.44-.39h2.13a.44.44,0,0,1,.41.33v1.81h0c.64-1.62,1.55-2.38,3.14-2.38a3,3,0,0,1,2.68,1.39,7.52,7.52,0,0,1,.6,3.68V31.3a.44.44,0,0,1-.44.37h-2.31a.43.43,0,0,1-.41-.37V24.89c0-1.29.15-3.18-1.44-3.18a1.51,1.51,0,0,0-1.33.94,5.26,5.26,0,0,0-.37,2.24v6.36a.44.44,0,0,1-.45.42"/><path class="cls-1" d="M332.8,30.74a1.13,1.13,0,1,1,1.13,1.08,1.11,1.11,0,0,1-1.13-1.08"/><path class="cls-2" d="M357.18,31.68a.43.43,0,0,1-.43-.42V19.45a.43.43,0,0,1,.41-.39H358a.44.44,0,0,1,.44.39v1.72a3.62,3.62,0,0,1,3.13-2.43h.17a3.2,3.2,0,0,1,3,2.71,3.8,3.8,0,0,1,3.41-2.71h.17a3.19,3.19,0,0,1,2.75,1.81,8.16,8.16,0,0,1,.51,3.6v7.1a.43.43,0,0,1-.41.42h-1a.43.43,0,0,1-.42-.37V24.15a6.14,6.14,0,0,0-.3-2.51,2.07,2.07,0,0,0-1.74-1.31,2.65,2.65,0,0,0-2,1.41,5.37,5.37,0,0,0-.6,3.13v6.44a.44.44,0,0,1-.41.36h-1a.43.43,0,0,1-.43-.42V23.68a4.82,4.82,0,0,0-.36-2.14,2.15,2.15,0,0,0-1.74-1.21,2.68,2.68,0,0,0-1.89,1.24,5,5,0,0,0-.67,2.88v6.81a.43.43,0,0,1-.41.42Z"/><path class="cls-2" d="M350.24,31.93c-3.26,0-4.72-3.33-4.72-6.66,0-3.5,1.72-6.53,5-6.53h.17c3.2,0,4.79,3.23,4.79,6.56,0,3.53-1.76,6.63-5.07,6.63h-.17Zm.24-1.62a2.75,2.75,0,0,0,2.42-1.81,7.85,7.85,0,0,0,.54-3.23,7.21,7.21,0,0,0-.69-3.45,2.48,2.48,0,0,0-4.66.3,8.23,8.23,0,0,0-.54,3.16,8.44,8.44,0,0,0,.62,3.45,2.72,2.72,0,0,0,2.3,1.59"/><path class="cls-2" d="M340,30.26c1.46,0,2.23-1.22,2.55-2.74a.44.44,0,0,1,.42-.34h1a.42.42,0,0,1,.42.4c-.45,2.59-2,4.35-4.24,4.35H340c-3.24,0-4.64-3.25-4.64-6.56s1.42-6.63,4.66-6.63h.17c2.25,0,3.86,1.73,4.21,4.32a.43.43,0,0,1-.39.39h-1a.48.48,0,0,1-.38-.42c-.24-1.45-1.08-2.6-2.46-2.64-2.2.07-2.83,2.78-2.83,4.87s.52,4.94,2.73,5"/><path class="cls-1" d="M294,26a4.51,4.51,0,0,1-.43,2.44,1.87,1.87,0,0,1-1.59,1c-.88,0-1.4-.67-1.4-1.67,0-2,1.76-2.32,3.42-2.32Zm2.32,5.61a.48.48,0,0,1-.54.05,5.62,5.62,0,0,1-1.32-1.53,4.56,4.56,0,0,1-3.79,1.67,3.26,3.26,0,0,1-3.44-3.59,3.91,3.91,0,0,1,2.45-3.76,15.92,15.92,0,0,1,4.33-.8v-.3a3,3,0,0,0-.28-1.67,1.53,1.53,0,0,0-1.29-.6,1.75,1.75,0,0,0-1.85,1.38.49.49,0,0,1-.4.42l-2.23-.24a.4.4,0,0,1-.34-.48c.51-2.71,3-3.52,5.14-3.52a5.22,5.22,0,0,1,3.46,1.14c1.12,1,1,2.44,1,4v3.58a3.15,3.15,0,0,0,.87,2.13.43.43,0,0,1,0,.61c-.47.39-1.3,1.12-1.76,1.53Z"/><path class="cls-1" d="M263.82,26a4.51,4.51,0,0,1-.43,2.44,1.87,1.87,0,0,1-1.59,1c-.88,0-1.4-.67-1.4-1.67,0-2,1.76-2.32,3.42-2.32Zm2.32,5.61a.48.48,0,0,1-.54.05,5.62,5.62,0,0,1-1.32-1.53,4.56,4.56,0,0,1-3.79,1.67A3.26,3.26,0,0,1,257,28.25a3.91,3.91,0,0,1,2.45-3.76,15.94,15.94,0,0,1,4.33-.8v-.3a2.94,2.94,0,0,0-.28-1.67,1.53,1.53,0,0,0-1.29-.6,1.75,1.75,0,0,0-1.85,1.38.49.49,0,0,1-.4.42l-2.23-.24a.4.4,0,0,1-.34-.48c.51-2.71,3-3.52,5.14-3.52A5.22,5.22,0,0,1,266,19.84c1.12,1,1,2.44,1,4v3.58a3.15,3.15,0,0,0,.87,2.13.43.43,0,0,1,0,.61c-.47.39-1.3,1.12-1.76,1.53Z"/><path class="cls-1" d="M51.69,86.68l-.13-3.39H41.63v.41H43.4V94H41.63v.42h5.85V94H45.7V88.89c1.94,0,2.56.35,2.72,2.19h.5V86.45h-.5c-.09,1.78-1,2-2.72,2V83.71h2a5.58,5.58,0,0,1,1.85.22c1.18.5,1.45,1.66,1.7,2.76Zm5.73,7.22c-.22,0-.43-.1-.43-.31V89.17a1,1,0,0,0-.66-1,5.45,5.45,0,0,0-2.3-.45c-1.09,0-2.85.45-2.85,1.71,0,.53.43.78.93.78a.83.83,0,0,0,.86-.73,1.47,1.47,0,0,0-.25-.8c-.27-.32.57-.63,1.25-.63.31,0,1.18.17,1.18.6v2.08c-1.61-.08-4.48.33-4.48,2.31,0,1.06.79,1.61,1.87,1.61a3.52,3.52,0,0,0,2.62-1.18,1.3,1.3,0,0,0,1.4,1.18,2.14,2.14,0,0,0,1.7-.88L58,93.52c-.14.13-.41.38-.63.38M55.16,92a2.22,2.22,0,0,1-.12.86,1.45,1.45,0,0,1-1.31,1c-.84,0-1.17-.55-1.17-1.28,0-1.35,1.49-1.48,2.6-1.48ZM66.7,90.9c0-1.64.2-3.19-2.19-3.19a2.81,2.81,0,0,0-2.67,1.59h0V87.74c-1.11,0-2.2.1-3.12.07v.41h1.22V94H58.69v.42h4.25V94H61.81V91.78A5.74,5.74,0,0,1,62,89.69a2.22,2.22,0,0,1,1.74-1.38c1.2,0,1,1.13,1,2.67v3H63.67v.42h4.16V94H66.7Zm9.59,0c0-1.64.2-3.19-2.19-3.19a2.81,2.81,0,0,0-2.67,1.59h0V87.74c-1.11,0-2.21.1-3.12.07v.41H69.5V94H68.28v.42h4.25V94H71.4V91.78a5.74,5.74,0,0,1,.23-2.09,2.22,2.22,0,0,1,1.74-1.38c1.2,0,1,1.13,1,2.67v3H73.26v.42h4.16V94H76.29Zm3.51-5.21a1,1,0,0,0,1.06-1,1,1,0,0,0-1.06-.9.95.95,0,1,0,0,1.89m1.11,2.06c-1.09,0-2.19.1-3.25.07v.41H79V94H77.67v.42h4.57V94H80.92Zm5.41,6.56c-1.52,0-1.6-1.1-1.6-2.26V90.72h4.2c.29,0,.45,0,.45-.3a3,3,0,0,0-3.21-2.71A3.6,3.6,0,0,0,82.6,91.2,3.47,3.47,0,0,0,86,94.63a3.19,3.19,0,0,0,3.44-2.32H89a2.76,2.76,0,0,1-2.63,2M86.06,88c1.6,0,1.29,1.15,1.29,2.26H84.73c0-1-.16-2.26,1.33-2.26m11,2.84-2.51-7.59H89.92v.41h1.78V94H89.92v.42H94V94H92.27V84h0l3.57,10.39h.61L100.07,84h.05V94H98.35v.42h5.84V94h-1.78V83.71h1.78v-.41H99.65Zm14.33,3c-.21,0-.43-.1-.43-.31V89.17a1,1,0,0,0-.66-1,5.45,5.45,0,0,0-2.29-.45c-1.09,0-2.85.45-2.85,1.71,0,.53.43.78.93.78a.82.82,0,0,0,.86-.73,1.48,1.48,0,0,0-.25-.8c-.27-.32.57-.63,1.26-.63.3,0,1.18.17,1.18.6v2.08c-1.61-.08-4.48.33-4.48,2.31,0,1.06.79,1.61,1.86,1.61a3.52,3.52,0,0,0,2.62-1.18,1.3,1.3,0,0,0,1.4,1.18,2.14,2.14,0,0,0,1.7-.88l-.21-.23c-.14.13-.41.38-.63.38M109.12,92a2.21,2.21,0,0,1-.12.86,1.45,1.45,0,0,1-1.31,1c-.84,0-1.17-.55-1.17-1.28,0-1.35,1.49-1.48,2.6-1.48Zm7.15,2.32c-1.52,0-1.6-1.1-1.6-2.26V90.72h4.2c.29,0,.45,0,.45-.3a3,3,0,0,0-3.21-2.71,3.6,3.6,0,0,0-3.57,3.49,3.47,3.47,0,0,0,3.37,3.44,3.19,3.19,0,0,0,3.44-2.32h-.45a2.76,2.76,0,0,1-2.64,2M116,88c1.59,0,1.29,1.15,1.29,2.26h-2.62c0-1-.16-2.26,1.33-2.26m5.37,5.66h0a.44.44,0,0,0,.36-.45.46.46,0,0,0-.13-.32.46.46,0,0,0-.38-.12h-.43v1.38H121v-.44h.1c.14,0,.19.05.32.27l.11.16h.25l-.15-.2c-.17-.21-.22-.24-.28-.27m-.14-.2H121V93h.2c.1,0,.27,0,.27.23s-.18.24-.26.24m.05-1.17a1.18,1.18,0,1,0,0,2.35,1.18,1.18,0,0,0,0-2.35m0,2.12a.91.91,0,0,1-1-.86.93.93,0,0,1,1-1,.89.89,0,0,1,.91,1,.86.86,0,0,1-.91.86"/><path class="cls-2" d="M37.23,94.2h.54V76.77H20.68v3.51c0-2.14,1.43-1.46,1.52-1.46a.66.66,0,0,1,.88-.16,2.41,2.41,0,0,1,2.22-1.39A1.94,1.94,0,0,1,27.24,79a1,1,0,0,1,1.49.63h0a2.79,2.79,0,0,1,2.86,1.56,2.75,2.75,0,0,1,2-.76,3.29,3.29,0,0,1,2.83,2A3.45,3.45,0,0,1,36,85.93a2.81,2.81,0,0,1-1.5,1,1.21,1.21,0,0,1,0,1.7,4.11,4.11,0,0,1,1.23,1.22,4.61,4.61,0,0,1,.71,2c.83.33,1,1.11.7,2.35"/><polygon class="cls-2" points="20.87 88.18 27 87.62 30.04 82.8 32.61 88.23 33.26 88.23 30.24 81.94 25.95 83.55 25.95 82.8 24.39 82.8 24.39 84.1 22.93 84.66 20.87 88.18"/><path class="cls-1" d="M20.62,88.91h0a15.53,15.53,0,0,1,8.48,1V88.11l0,0,1.21.26v2.14a6.32,6.32,0,0,0-.8-.4c-.55,1.08-2.35.88-3.79.82-2.69-.11-4.36.38-2.53,3.26H20.62Z"/><path class="cls-2" d="M33.63,94.27H27.19c-1.69-1.46-1.87-2.21,1.26-2.57,2.75-.31,2.31-.61,2.44-.72a8,8,0,0,1,2.74,3.28"/><polygon class="cls-2" points="28.71 85.74 29.5 85.91 29.5 87.09 28.71 86.92 28.71 85.74"/><path class="cls-1" d="M215.25,105.09s0,0,0,.06a.59.59,0,0,1-.53.53.68.68,0,0,1-.74-.38c-.11-.22-.25-.26-.52-.16a1.35,1.35,0,0,0-.7.63c-.34.62-.66,1.26-1,1.9-.14.29-.27.58-.4.88a1.44,1.44,0,0,1-.14.23c-.21.29-.52.28-.66,0a9.29,9.29,0,0,1-.35-1.08c-.08-.27-.13-.55-.2-.82h-.05c0,.07-.09.14-.13.21a4,4,0,0,1-1.22,1.47,2.29,2.29,0,0,1-2.14.35,1.35,1.35,0,0,1-.92-1.16,2.86,2.86,0,0,1,.66-2.43,1.58,1.58,0,0,1,1.24-.6,1.3,1.3,0,0,1,1.17,1,1.24,1.24,0,0,1-.48,1.37,8.09,8.09,0,0,1-1,.49l-.28.12c-.21.11-.23.27,0,.41a1.17,1.17,0,0,0,.83.18,2.07,2.07,0,0,0,1.43-1,6.15,6.15,0,0,0,.81-1.8,1.3,1.3,0,0,1,.31-.51c.16-.16.31-.11.36.12s.11.73.18,1.1.12.62.19.92a.41.41,0,0,0,.09.17c.11.14.24.14.32,0s.19-.39.27-.6a6.49,6.49,0,0,1,.81-1.51,2.06,2.06,0,0,1,1.71-.89c.45,0,1,.27,1.06.79,0,0,0,0,0,0Zm-7.59,1.08a.61.61,0,0,0-.42-.66.64.64,0,0,0-.73.4,2,2,0,0,0-.1,1.19c0,.15.12.17.22.12a4.6,4.6,0,0,0,.74-.42.7.7,0,0,0,.28-.62"/><path class="cls-1" d="M197.91,107.86a1.06,1.06,0,0,0,1,.27,2,2,0,0,0,1.31-1,9.53,9.53,0,0,0,.89-2,1.7,1.7,0,0,1,.2-.39c.17-.25.4-.23.51,0s.25.79.38,1.19c.18.55.35,1.1.55,1.64.08.22.23.44.51.43s.4-.24.5-.46a2.21,2.21,0,0,0,.12-1.54,1.76,1.76,0,0,1,.14-1.33,1,1,0,0,1,.3-.34c.37-.26.7-.09.73.36a4.07,4.07,0,0,1-.16,1.35,5.3,5.3,0,0,1-1,2.1,1.77,1.77,0,0,1-1.13.71.81.81,0,0,1-.94-.48c-.16-.33-.26-.68-.4-1-.06-.15-.14-.34-.26-.4s-.28.13-.39.24c-.32.34-.62.71-1,1a2.73,2.73,0,0,1-2.06.66,1.13,1.13,0,0,1-.74-.37.23.23,0,0,0-.35,0,2.34,2.34,0,0,1-1.23.41,1.25,1.25,0,0,1-.88-.32l-.36-.32c-.27-.24-.37-.24-.68,0s-.51.35-.79.49a2.14,2.14,0,0,1-1.16.21,1,1,0,0,1-.78-.48c-.16-.22-.29-.46-.44-.68s-.34-.31-.56,0-.31.44-.47.66a2.83,2.83,0,0,1-.34.39.41.41,0,0,1-.65,0,3.23,3.23,0,0,1-.47-.7c-.19-.35-.35-.72-.52-1.08l-.07-.13c-.29-.45-.57-.52-1-.19s-1,.85-1.48,1.27l-.93.78a1,1,0,0,1-.23.14.26.26,0,0,1-.4-.25,4.29,4.29,0,0,1,.15-.75c.21-.8.43-1.6.65-2.4a.62.62,0,0,1,.36-.43c.15-.07.23,0,.27.13s.13.54.2.8a1.67,1.67,0,0,0,.12.3c.1.21.23.23.39.05s.38-.48.58-.72l.62-.76a1.58,1.58,0,0,1,.26-.23c.24-.18.43-.16.57.11a5.87,5.87,0,0,1,.32.76c.18.5.34,1,.53,1.51a1.43,1.43,0,0,0,.29.43.47.47,0,0,0,.72,0,1.58,1.58,0,0,0,.51-1,2.75,2.75,0,0,1,.42-1.46.49.49,0,0,1,.47-.24c.2,0,.28.18.34.33a2.13,2.13,0,0,1,0,1.36,1.22,1.22,0,0,0,1,1.59,1.59,1.59,0,0,0,1.46-.8.26.26,0,0,0,0-.18,7.48,7.48,0,0,1-.4-3.09,5.38,5.38,0,0,1,.73-2.47,2.72,2.72,0,0,1,.2-.28.9.9,0,0,1,1.48.06,2,2,0,0,1,.36,1,7.33,7.33,0,0,1-.9,4.34,1.69,1.69,0,0,1-.13.24.47.47,0,0,0,.07.66,1.46,1.46,0,0,0,1.19.64,1.61,1.61,0,0,0,.32-.07c.17,0,.21-.14.18-.32a3.28,3.28,0,0,1,.35-2.13,2.66,2.66,0,0,1,.72-.9.93.93,0,0,1,1.52.33,1.49,1.49,0,0,1-.27,1.94,8.64,8.64,0,0,1-.74.61l-.23.16m-2.73-4.47a1.71,1.71,0,0,0,0-.17,6,6,0,0,0-.1-.74.41.41,0,0,0-.4-.34.4.4,0,0,0-.36.3,3.85,3.85,0,0,0-.18.61,8,8,0,0,0-.07,2.19,4.14,4.14,0,0,0,.12.7.3.3,0,0,0,.18.2c.06,0,.16-.08.22-.14a.77.77,0,0,0,.13-.24,6.24,6.24,0,0,0,.47-2.37m3.29,2.91s0-.1,0-.16a.64.64,0,0,0-.35-.56.59.59,0,0,0-.61.28.8.8,0,0,0-.09.15,1.55,1.55,0,0,0,.11,1.34.16.16,0,0,0,.24.08,1.16,1.16,0,0,0,.71-1.13"/><path class="cls-1" d="M181.29,66.43a5.78,5.78,0,0,1,1.69.23l.17.08c.17.1.19.19,0,.32s-.36.27-.54.4a4.37,4.37,0,0,0-.44.31c-.08.08-.18.22-.15.3a.43.43,0,0,0,.28.21c.28.06.57.08.86.12a3,3,0,0,1,.38.06c.23.06.27.16.13.35a5.93,5.93,0,0,1-.45.52l-.6.61a.48.48,0,0,0-.11.16c0,.12,0,.2.14.18a1.58,1.58,0,0,0,.38-.13c.27-.12.53-.27.8-.38a.41.41,0,0,1,.34,0c.07.06.07.22.05.34,0,.27-.1.54-.15.81a.44.44,0,0,0,0,.17,1.86,1.86,0,0,0,.09.25c.08,0,.19-.06.24-.12s.28-.4.42-.6a2.12,2.12,0,0,1,.28-.31c.09-.08.18-.06.22.07a1.32,1.32,0,0,1,0,.28c0,.31,0,.62.05.92,0,.12.1.3.18.32s.19-.15.23-.28c.08-.28.15-.56.23-.84a1.21,1.21,0,0,1,.09-.25c.07-.14.16-.15.26,0a.94.94,0,0,1,.11.16l.21.37c.07.12.16.26.31.19s.12-.2.13-.31,0-.45,0-.67.11-.32.31-.17.62.52.93.78a3.41,3.41,0,0,0,.3.24.47.47,0,0,0,.17,0,.42.42,0,0,0,0-.16,3.26,3.26,0,0,0-.13-.4c-.12-.29-.25-.57-.36-.85a2.41,2.41,0,0,1-.13-.48c-.05-.37.07-.48.44-.38s.67.23,1,.34a2,2,0,0,0,.41.1c.22,0,.34-.14.24-.33a4.12,4.12,0,0,0-.48-.65c-.25-.29-.54-.55-.79-.85s-.17-.35.09-.47a6.09,6.09,0,0,1,1.18-.39,12.91,12.91,0,0,1,1.34-.14.28.28,0,0,1,.12,0l.19.1c0,.05-.08.13-.13.15l-1,.41a3.39,3.39,0,0,0-.46.23c-.21.14-.25.29-.1.49a9.09,9.09,0,0,0,.6.71c.3.33.63.65.92,1a1.54,1.54,0,0,1,.28.46c.09.23,0,.39-.27.38a3.26,3.26,0,0,1-.68-.12c-.48-.14-1-.29-1.44-.44l-.13,0c-.41-.1-.44.09-.33.39.17.48.39.95.58,1.43a5.2,5.2,0,0,1,.22.75.34.34,0,0,1-.08.27.28.28,0,0,1-.26,0c-.29-.18-.56-.38-.84-.58s-.57-.47-.87-.68-.41-.12-.5.18-.09.44-.15.66-.2.3-.4.09-.24-.29-.37-.42-.33-.14-.41.09c-.13.41-.24.84-.36,1.26a4.43,4.43,0,0,1-.22.63c0,.1-.16.16-.25.23-.08-.09-.2-.16-.22-.26a8.08,8.08,0,0,1-.16-.81c-.05-.3-.09-.6-.15-.89s-.17-.25-.34-.12-.28.25-.42.37a1.88,1.88,0,0,1-.36.25c-.24.11-.42,0-.42-.26s0-.59.06-.88,0-.33,0-.5-.1-.26-.27-.21a3.74,3.74,0,0,0-.55.22l-1.65.83a.88.88,0,0,1-.33.07c-.18,0-.25-.09-.18-.24a2.36,2.36,0,0,1,.32-.53c.4-.48.83-1,1.24-1.43a4.11,4.11,0,0,0,.33-.43c.15-.23.1-.35-.16-.38s-.82-.05-1.23-.08l-.61,0c-.06,0-.15-.05-.17-.1a.21.21,0,0,1,.07-.18c.28-.22.57-.42.85-.63s.37-.24.54-.37.16-.25-.05-.33-.54-.16-.81-.24a4.34,4.34,0,0,1-.44-.15c-.05,0-.13-.09-.12-.12a.23.23,0,0,1,.13-.14,2.64,2.64,0,0,1,.47-.09c.15,0,.3,0,.44,0"/><path class="cls-1" d="M195.27,92.95a3,3,0,0,1,1.06.71.28.28,0,0,0,.22.08,3.28,3.28,0,0,1,1.65.09c.16,0,.28.08.33-.14a.23.23,0,0,1,.18-.13.33.33,0,0,1,.29.34.6.6,0,0,0,.25.41c.1.07.21.16.15.32a.27.27,0,0,1-.31.19c-.13,0-.18.07-.22.17-.09.28-.17.56-.27.84-.31.88-1,.89-1.63.48a1.87,1.87,0,0,1-.78-.91c-.27-.67-.68-.69-1.12-.21a3.78,3.78,0,0,1-2.63,1.21c-.32,0-.64,0-1,0a.38.38,0,0,0-.2.06c.06.06.1.14.17.17a2.94,2.94,0,0,0,.71.22,3.64,3.64,0,0,0,2.94-.87l.16-.14c.23-.18.36-.16.48.1a2.17,2.17,0,0,0,1.6,1.27,7,7,0,0,0,1.13.05c.12,0,.28-.08.31.08a.35.35,0,0,1-.17.28,3.08,3.08,0,0,1-.78.26,3.59,3.59,0,0,1-.88,0,.84.84,0,0,1-.7-.48c-.07-.14-.13-.15-.25-.07a4.12,4.12,0,0,1-1.49.56,4.87,4.87,0,0,1-3.75-.84l-.2-.15a2,2,0,0,0-1.32-.45,2.51,2.51,0,0,1-1.82-.93c.3,0,.57,0,.83,0a1.34,1.34,0,0,0,1.17-.7,2.19,2.19,0,0,0,.15-.57,2.38,2.38,0,0,0,0-.38,2.32,2.32,0,0,1,1,1,2.76,2.76,0,0,1,.18.51.32.32,0,0,0,.24.25,1.68,1.68,0,0,0,1.1,0,.84.84,0,0,0,.56-.61.25.25,0,0,1,.25-.21,2.74,2.74,0,0,0,2-1.16,6.89,6.89,0,0,0,.39-.79m2.23,2.46a.49.49,0,0,0,.49-.49.51.51,0,0,0-.49-.49.5.5,0,0,0-.5.5.48.48,0,0,0,.5.48"/><path class="cls-1" d="M204.42,79.33a1.23,1.23,0,0,1,.77.84,2.82,2.82,0,0,0,1.08,1.53A4.91,4.91,0,0,1,208,84s0,.09.09.17a1,1,0,0,0,0-.58,3.66,3.66,0,0,0-.81-1.77c-.47-.6-1-1.17-1.44-1.76-.07-.09-.13-.19-.2-.29a1.55,1.55,0,0,1,1.52.79c.29.63.55,1.27.81,1.92.15.37.26.75.39,1.14l.07-.11c.22-.44.43-.88.66-1.31.08-.15.08-.21-.08-.29a5.45,5.45,0,0,1-.85-.53.86.86,0,0,1-.22-1.23,2,2,0,0,1,.88-.81c.17-.08.24,0,.23.14,0,.34-.08.67-.13,1a1.4,1.4,0,0,0,0,.85c.16.34.38.38.63.09a1.83,1.83,0,0,0,.29-2,1.58,1.58,0,0,0-1.12-.81.89.89,0,0,0-.47.07,5.38,5.38,0,0,1-1.41.39,2.87,2.87,0,0,1-3.19-1.72,5.08,5.08,0,0,1-.39-1.54,1.24,1.24,0,0,1,0-.19.15.15,0,0,1,0,0,2.44,2.44,0,0,0,.6.19c.4,0,.8,0,1.21,0a8,8,0,0,1,1.13,0,2.39,2.39,0,0,1,1.51,1c.27.32.5.67.76,1a1.38,1.38,0,0,0,.35.32A3.6,3.6,0,0,1,210,79a2,2,0,0,1,.14,2.25c-.29.5-.66,1-1,1.45a2.68,2.68,0,0,0-.47,1.08,1.1,1.1,0,0,0,.26-.1c.15-.12.29-.26.43-.39a4.39,4.39,0,0,1,.51-.46.34.34,0,0,1,.57.25,2.06,2.06,0,0,1,0,.72,2.39,2.39,0,0,1-.68,1.17c0-.17-.06-.32-.1-.46a.53.53,0,0,0-.92-.26,3.4,3.4,0,0,0-.44.58c-.07.1-.12.21-.21.35l-.14-.41a6.05,6.05,0,0,0-1-2,2.53,2.53,0,0,0-1.42-.91,5.85,5.85,0,0,1-.63-.19.91.91,0,0,1-.66-1.23c.05-.24.11-.48.14-.72a2.56,2.56,0,0,0,0-.39m3.38-1.23v0c.08,0,.18,0,.22-.1s0-.17-.08-.2a1.25,1.25,0,0,1-.62-.95c0-.06-.11-.1-.16-.15a.72.72,0,0,0-.13.17,1.39,1.39,0,0,0,0,.27c0,.18-.13.24-.28.13a1.22,1.22,0,0,1-.3-.32c-.11-.17-.18-.35-.29-.52a.7.7,0,0,0-.18-.15,1.11,1.11,0,0,0-.1.23c0,.07,0,.16,0,.23a2.47,2.47,0,0,1-.09.31,1.09,1.09,0,0,1-.28-.13,3.55,3.55,0,0,1-.29-.33.92.92,0,0,0-.2-.2.59.59,0,0,0-.23,0,.59.59,0,0,0,0,.21,1.52,1.52,0,0,0,.13.26c.07.14,0,.24-.12.27a2.16,2.16,0,0,0-.36.08,1,1,0,0,0-.22.17l.26.15s.06,0,.09,0c.25,0,.51-.07.76-.08a.25.25,0,0,1,.21.09s0,.15-.08.21-.17.16-.24.25a.14.14,0,0,0,.14.24,1.3,1.3,0,0,0,.32-.12c.19-.1.37-.21.56-.3a1,1,0,0,1,.33-.09.58.58,0,0,1,.21.06,1,1,0,0,1-.07.2c-.08.13-.19.24-.26.38a.15.15,0,0,0,.24.2c.13-.09.24-.21.37-.31a.62.62,0,0,1,.59-.16,1,1,0,0,0,.19,0"/><path class="cls-1" d="M198,66.69a2.82,2.82,0,0,1,.31.11l.75.39c.28.13.38.06.4-.25a3.06,3.06,0,0,1,0-.36c0-.15.08-.17.2-.07l.25.24a.36.36,0,0,0,.41.09c.29-.09.57-.2.86-.27a2.91,2.91,0,0,1,3,1,2.79,2.79,0,0,1,.46,2,2.46,2.46,0,0,1-1.1,1.86,2.65,2.65,0,0,1-2.88.14c-.12-.06-.24-.12-.35-.2a.26.26,0,0,0-.39.09l-.3.39-.06,0c0-.1,0-.19-.06-.29s0-.22-.06-.32c-.08-.28-.2-.32-.42-.13l-.55.46a3.16,3.16,0,0,1-.28.18l0,0c0-.1.07-.2.11-.29.13-.26.28-.52.41-.79s.07-.34-.21-.4l-.36-.07A.53.53,0,0,1,198,70a.44.44,0,0,1,.09-.14l.46-.35c.32-.25.3-.47-.06-.65-.12-.06-.25-.11-.36-.19s-.12-.15,0-.22l.43-.25c.19-.12.22-.21.1-.4s-.34-.52-.5-.78a3.29,3.29,0,0,1-.16-.32l0,0m3.75,4.08-.05.05-.26-.09c-.22-.09-.44-.2-.67-.28a.26.26,0,0,0-.23.07.26.26,0,0,0,0,.24.7.7,0,0,0,.28.25,4.49,4.49,0,0,0,.86.25,1.78,1.78,0,0,0,1.79-.95,2.85,2.85,0,0,0,.21-1.66,2.12,2.12,0,0,0-.37-1,2,2,0,0,0-2.37-.48.62.62,0,0,0-.24.22.31.31,0,0,0,0,.26c0,.06.15.09.24.12a.25.25,0,0,0,.13,0l.71-.18s.11,0,.12,0a.19.19,0,0,1,0,.14c0,.09-.09.17-.13.26s-.06.31.18.33l.56,0,.47.08s0,0,0,.07a1.15,1.15,0,0,1-.18.13l-.53.24c-.26.12-.27.18-.08.38s.31.3.45.45a1.93,1.93,0,0,1,.17.26l0,.05-.31,0c-.2,0-.41-.07-.61-.09s-.34,0-.25.32l.16.53m-1.71-2.92H200c0,.16-.1.31-.14.46a.21.21,0,0,1-.28.18l-.27,0a.47.47,0,0,0-.14,0,.44.44,0,0,0,.05.15,2.88,2.88,0,0,0,.23.21c.17.16.17.17,0,.33l-.33.33,0,.07.35,0c.28,0,.28,0,.3.28a1.94,1.94,0,0,0,.1.37l.25-.24h0a.27.27,0,0,1,.41-.14,2.06,2.06,0,0,0,.37.1l0-.06c-.05-.11-.1-.22-.15-.32s-.11-.21.11-.25l.3-.07a.55.55,0,0,0,.13-.09.5.5,0,0,0-.12-.11l-.36-.14c-.15,0-.16-.12-.07-.24s.14-.23.21-.34l-.05-.06-.35.11c-.24.09-.25.08-.36-.15l-.18-.39"/><path class="cls-1" d="M183.06,87.53a1.12,1.12,0,0,1-1.16-.67,1.52,1.52,0,0,0,.1,2c.24.26.5.5.76.75a1.22,1.22,0,0,1,.22,1.66,3.35,3.35,0,0,1-1.91-2.45,3.78,3.78,0,0,1,.53-2.53c.28-.46.59-.89.89-1.33a1.24,1.24,0,0,0,.29-.76.62.62,0,0,0-.12-.33,6.62,6.62,0,0,0-.55-.6.3.3,0,0,0-.51.07.72.72,0,0,0,0,.84.67.67,0,0,1,0,.82,3.62,3.62,0,0,1-.42.57c-.22.23-.42.2-.55-.08a3.29,3.29,0,0,1-.26-.84,8,8,0,0,1,.11-3,2.6,2.6,0,0,1,.23-.59c0-.08.15-.12.22-.18a.92.92,0,0,1,.08.27c0,.33,0,.66,0,1a.69.69,0,0,0,.06.3.29.29,0,0,0,.19.16c.05,0,.16-.08.17-.14.09-.31.16-.62.23-.93s.13-.62.21-.92a.77.77,0,0,1,.16-.3.3.3,0,0,1,.24-.09c.05,0,.12.14.12.21,0,.27-.05.54-.09.8s-.11.63-.16,1a.71.71,0,0,0,0,.32c.05.15.19.17.27,0a2.55,2.55,0,0,0,.19-.44c.19-.54.38-1.08.57-1.62a1.36,1.36,0,0,1,.19-.36.34.34,0,0,1,.24-.15c.14,0,.15.16.13.28a4.2,4.2,0,0,1-.12.62c-.16.55-.34,1.1-.51,1.66a1,1,0,0,0-.06.26.75.75,0,0,0,.06.21c.07,0,.17,0,.2-.07a5.07,5.07,0,0,0,.48-.72c.18-.37.32-.76.48-1.14a1.37,1.37,0,0,1,.15-.31c0-.06.17-.14.21-.12a.33.33,0,0,1,.15.22,1.5,1.5,0,0,1,0,.44A9,9,0,0,1,184,83.3c-.36.78-.76,1.55-1.12,2.33a1.7,1.7,0,0,0-.17,1.3,4.62,4.62,0,0,0,.32.6"/><path class="cls-1" d="M198.79,87.06l.27.08a1,1,0,0,1,.31.13.26.26,0,0,1-.07.47,1.15,1.15,0,0,1-.36,0,5.39,5.39,0,0,0-.75,0,1.77,1.77,0,0,0-.46.25l.24.13a.28.28,0,0,1,0,.51,5,5,0,0,1-.49.18,4.7,4.7,0,0,0-.67.28,1.15,1.15,0,0,0-.55,1,2.06,2.06,0,0,0,1.66,2.06,2.69,2.69,0,0,0,1.52,0,1.17,1.17,0,0,0,.46-.29c.14-.14.07-.27-.12-.32s-.22-.06-.14-.28a.36.36,0,0,0,0-.3.32.32,0,0,0-.29,0,3,3,0,0,1-1.42.26,1.29,1.29,0,0,1-.86-.39.72.72,0,0,1-.13-.21c-.11-.27-.06-.33.22-.3s.17-.07.18-.17a1.85,1.85,0,0,1,0-.32c.05-.17.14-.2.29-.1l.26.2a3.26,3.26,0,0,0,2.27.54,3.37,3.37,0,0,0,1.55-.41c0,.19,0,.36-.08.51a3,3,0,0,1-2.61,2.36,3.27,3.27,0,0,1-3.73-2.72,3.42,3.42,0,0,1,2.75-3.95,2.63,2.63,0,0,1,1.16,0,.38.38,0,0,1,.14,0c.09.07.17.16.25.24a2.28,2.28,0,0,1-.29.18c-.09,0-.21,0-.3.08a1.86,1.86,0,0,0-.28.22"/><path class="cls-1" d="M182.8,104.11a8.13,8.13,0,0,1-.36,2.7,3.48,3.48,0,0,1-1.37,1.86,2.67,2.67,0,0,1-1.47.4,3,3,0,0,1-1.66-.42,2.68,2.68,0,0,1-1.16-1.8,7.11,7.11,0,0,1,0-2.78,15.26,15.26,0,0,1,.41-1.62.94.94,0,0,1,.89-.7c.22,0,.31.06.3.27a7.44,7.44,0,0,1-.1,1,11.42,11.42,0,0,0-.24,2.6,9.29,9.29,0,0,0,.19,1.56,1.53,1.53,0,0,0,1.08,1.23,1.58,1.58,0,0,0,1.8-.67,4.21,4.21,0,0,0,.57-1.65,4.65,4.65,0,0,0,0-2c-.09-.3-.2-.6-.28-.9a1.26,1.26,0,0,1,.07-1,1.33,1.33,0,0,1,.37-.43.43.43,0,0,1,.7.21,4.66,4.66,0,0,1,.23,1c.05.4,0,.81.07,1.21"/><path class="cls-1" d="M205.24,68.46a5.49,5.49,0,0,1,1.65-.38,2.18,2.18,0,0,0-1-.8c-.37-.16-.75-.28-1.19-.44l.39-.13a5.17,5.17,0,0,1,2-.13l.24.06a.63.63,0,0,1,.48.92,1.61,1.61,0,0,0-.15.9.44.44,0,0,0,.45.37.42.42,0,0,0,.44-.35,2.78,2.78,0,0,0,0-1.13.77.77,0,0,1,.9-.88l.86.17a1.05,1.05,0,0,0-.24,1.27,3.8,3.8,0,0,1,.18,1.48,2.06,2.06,0,0,1-1.16,1.71,4.38,4.38,0,0,1-1.92.49c-.55,0-1.1,0-1.66,0a6.2,6.2,0,0,1-1-.14c.25-.24.62-.34.76-.71s0-.69,0-1.1l.35.3a1.34,1.34,0,0,0,.81.41.61.61,0,0,0,.64-.32.6.6,0,0,0-.18-.76,5.67,5.67,0,0,0-.9-.46c-.26-.11-.54-.18-.81-.27v-.07m3.91.08c0,.08,0,.16,0,.24a1.73,1.73,0,0,1-.66,1.2,2.79,2.79,0,0,1-1.2.55l-.17.06a3.2,3.2,0,0,0,1.79-.21,1.21,1.21,0,0,0,.81-1.23.65.65,0,0,0-.52-.61m.24-1.72a.31.31,0,1,0,.31.31.3.3,0,0,0-.31-.31"/><path class="cls-1" d="M188.16,78.94a1.61,1.61,0,0,0-2-.79,6.93,6.93,0,0,1,.07-.69c.08-.39.4-.53.87-.41a1.42,1.42,0,0,1,.74.53c.21.27.39.57.58.86l.11.19h.05c0-.06,0-.13,0-.19,0-.33,0-.66,0-1a1.14,1.14,0,0,1,.08-.35.37.37,0,0,1,.55-.2,1.61,1.61,0,0,1,.7.88c-.67,0-.75.59-1,1l0,0,.22-.12a3.92,3.92,0,0,1,1.47-.65,1.4,1.4,0,0,1,.92.12.93.93,0,0,1,.24,1.41c-.29-.66-.86-.7-1.45-.66-.34,0-.67.1-1,.15a.29.29,0,0,0-.18.11l.32.08a4.86,4.86,0,0,1,.64.22.87.87,0,0,1,.36,1.32,2.13,2.13,0,0,1-1,.76,1.79,1.79,0,0,0-.78-2.07c-.16.32-.32.61-.46.92a.35.35,0,0,0,.06.46s0,.12,0,.18c0,.29-.05.58-.05.86,0,.1.1.21.14.31s.11.35.16.54,0,.24.05.36,0,.16.09.18c.2.09.23.3.32.46a2.39,2.39,0,0,0,.26.36.24.24,0,0,1,0,.39.77.77,0,0,1-.29.18.28.28,0,0,1-.23-.07c-.21-.21-.41-.44-.61-.66a.34.34,0,0,1-.12-.32.76.76,0,0,0-.1-.4c-.11-.23-.24-.45-.35-.68a.27.27,0,0,1,0-.22.56.56,0,0,0,0-.54c-.07-.25-.15-.5-.22-.76a.26.26,0,0,1,0-.16c0-.1.14-.19.15-.29a2,2,0,0,1,.44-1.21c-.57-.32-1.82.24-2.55,1.11,0-.11,0-.22,0-.33a1.38,1.38,0,0,1,1-1.35,5.8,5.8,0,0,1,1.13,0c.17,0,.34.05.54.08"/><path class="cls-1" d="M184.44,90.48c0,.18,0,.36-.05.55a2.47,2.47,0,0,0,3.05,2.72,1.1,1.1,0,0,0,.86-1.05,2,2,0,0,0-.61-1.69,1.45,1.45,0,0,0-1.28-.39.78.78,0,0,0-.65,1.11,1.18,1.18,0,0,0,1.56.71.59.59,0,0,0,.25-.27c.07-.16,0-.24-.18-.23a1.07,1.07,0,0,1-.8-.22.37.37,0,0,1-.13-.43.32.32,0,0,1,.36-.2,1.23,1.23,0,0,1,1,1.71,1.08,1.08,0,0,1-1.09.5A1.9,1.9,0,0,1,185,91.75,1.36,1.36,0,0,1,186.18,90a2.16,2.16,0,0,1,2.13,1,3.15,3.15,0,0,1,.51,2.44,1.75,1.75,0,0,1-1.47,1.42,3.32,3.32,0,0,1-3.69-2.17,2,2,0,0,1,.52-2.13l.22-.15.05,0"/><path class="cls-1" d="M208,90.61a2.47,2.47,0,0,1-.37,1.27,6.7,6.7,0,0,1-1.88,2.1.37.37,0,0,1-.48.06.63.63,0,0,1-.31-.55c0-.08.13-.18.22-.24a11.67,11.67,0,0,0,1-.65,2.18,2.18,0,0,0,.8-1.31c0-.14,0-.27-.13-.33s-.21,0-.28.14c-.35.46-.67.95-1.06,1.37a1.26,1.26,0,0,1-2-.27.28.28,0,0,1,.06-.4l1-.81a4.54,4.54,0,0,0,.58-.53.94.94,0,0,0,.2-.48c0-.2-.17-.3-.34-.17a4.29,4.29,0,0,0-.36.32c-.41.37-.81.76-1.24,1.1a3.06,3.06,0,0,1-.67.32.16.16,0,0,1-.11,0c-.27-.12-.31-.38-.35-.62s.11-.28.27-.33.5-.15.75-.24a2.37,2.37,0,0,0,1-.69c.13-.14.26-.29.38-.44a1.7,1.7,0,0,1,1.87-.6,1.8,1.8,0,0,1,1.45,1.46c0,.16,0,.33.06.5m-1.16-.35h.14c.45,0,.6-.38.33-.75a1.15,1.15,0,0,0-.89-.48.35.35,0,0,0-.37.27.78.78,0,0,0,.79,1"/><path class="cls-1" d="M189.74,74.79a4.17,4.17,0,0,1,.28-.36,3.86,3.86,0,0,1,.55-.51,1.08,1.08,0,0,1,1.77.77,2.14,2.14,0,0,1,0,.93,1.19,1.19,0,0,1-.11.22h-.08l-.07-.38a1.07,1.07,0,0,1,0-.11c0-.15,0-.35-.19-.38s-.27.17-.29.33a3.41,3.41,0,0,0-.06.84c0,.34.15.4.48.32a1,1,0,0,1-1.2.84,1.26,1.26,0,0,1-.86-.72,10,10,0,0,1-.36-1c0-.06,0-.12-.06-.22l-.37.35a2.53,2.53,0,0,1-2,.79A1.32,1.32,0,0,1,186,74.69c0-.07.12-.12.18-.18a1,1,0,0,1,.14.21c0,.13.05.28.1.41a.4.4,0,0,0,.72.17,1.37,1.37,0,0,0,.35-.84,1.81,1.81,0,0,0,0-.41c0-.31-.21-.43-.51-.33l-.23.1a1.69,1.69,0,0,1,1.29-1.1,1.43,1.43,0,0,1,1.69,1.45c0,.2,0,.4,0,.61h0m-1.06-1.33-.12-.25c-.09.06-.21.1-.26.19a3,3,0,0,0-.3.67c-.14.52-.26,1-.37,1.57,0,.09.06.19.09.29a2.38,2.38,0,0,0,.26-.15.4.4,0,0,0,.09-.15,8.82,8.82,0,0,0,.6-2.17m1.83,2.71a.36.36,0,0,0,0,.12c0,.1.08.2.13.3.09-.06.22-.11.26-.19a3,3,0,0,0,.27-.7,9.58,9.58,0,0,0,.13-1.08c0-.06-.07-.13-.11-.2l-.18.12a.3.3,0,0,0-.07.09,3.79,3.79,0,0,0-.43,1.54m-1.1-1.47a2.62,2.62,0,0,0-.08-.45c-.08-.23-.26-.26-.41-.08a1.79,1.79,0,0,0-.33,1.18.18.18,0,0,0,.3.14c.27-.19.57-.38.51-.8m.4.72a2.55,2.55,0,0,0,.1.36c0,.12.16.15.24,0a1.23,1.23,0,0,0,.22-.93.12.12,0,0,0-.2-.09.76.76,0,0,0-.36.61"/><path class="cls-1" d="M191.43,80.27a2.17,2.17,0,0,1,.85.91,1.1,1.1,0,0,1-.19,1.16l-.39.5a.61.61,0,0,0,.07.9c.13.13.28.25.41.38a.72.72,0,0,1,.17.88c-.13.27-.3.51-.43.78a3.24,3.24,0,0,0-.33.85,1.12,1.12,0,0,0,.74,1.22l.17.07a2.2,2.2,0,0,1-1,0,2.36,2.36,0,0,1-1.68-1.52,1.8,1.8,0,0,1,.42-1.81c.08-.09.13-.07.21,0a4.17,4.17,0,0,0,.49.3.47.47,0,0,0,.28,0,.34.34,0,0,0,.24-.14.31.31,0,0,0-.05-.27,2,2,0,0,0-.36-.28c-.31-.22-.64-.41-.93-.65a.7.7,0,0,1,0-1.23l.91-.69a1,1,0,0,0,.4-1.27.23.23,0,0,1,0-.07"/><path class="cls-1" d="M197.9,85.61a1.52,1.52,0,0,0,.31-1.39,1.36,1.36,0,0,1,0-.36.35.35,0,0,1,.59-.25,2.81,2.81,0,0,1,.39.34c.13.12.25.24.44.14a.37.37,0,0,0,.17-.48,1.07,1.07,0,0,0-.32-.44,7.13,7.13,0,0,0-.75-.46,1,1,0,0,1-.6-.94,4.67,4.67,0,0,1,.23-1,1.82,1.82,0,0,1,.14-.3,1.09,1.09,0,0,0,.74.67l.21.1a.88.88,0,0,1,.5,1,4.57,4.57,0,0,0,0,.71c0,.14.05.29.24.29s.25-.1.25-.3,0-.36,0-.54a.45.45,0,0,1,.55-.52l.26.08,1,.42a.52.52,0,0,1-.31.31l-.69.29a2.46,2.46,0,0,0-.41.21.53.53,0,0,0-.23.55.49.49,0,0,0,.41.41,1.05,1.05,0,0,0,.23,0c.36,0,.43-.1.41-.37a1.16,1.16,0,0,1,0-.27.86.86,0,0,1,.28.1c.38.3.75.6,1.11.92.17.15.15.24-.05.33a4.08,4.08,0,0,1-1.49.35c-.14,0-.17-.06-.11-.18s.09-.16.12-.24,0-.26-.13-.28a3.41,3.41,0,0,0-.7,0c-.2,0-.27.15-.18.33a5.22,5.22,0,0,0,.3.49,1.75,1.75,0,0,1,.14.23.3.3,0,0,1-.2.45.86.86,0,0,1-.93-.34.5.5,0,0,1,0-.5,4.49,4.49,0,0,0,.23-.47c0-.08,0-.24,0-.27a.34.34,0,0,0-.29,0,1.07,1.07,0,0,0-.28.28,2.16,2.16,0,0,1-1.3.88l-.19,0,0,0"/><path class="cls-1" d="M192.71,85.86a1.34,1.34,0,0,0,.9,1,2.85,2.85,0,0,1,.65.37,1.39,1.39,0,0,1,.48,1.29,2.35,2.35,0,0,1-.45,1.29,2.38,2.38,0,0,1-1.64.92,2.57,2.57,0,0,1-2.15-.57,2.47,2.47,0,0,1-1-2,1.3,1.3,0,0,1,.11-.44c.06-.14.17-.15.28-.06a1.35,1.35,0,0,1,.15.15,2.26,2.26,0,0,0,1.67.72,2.71,2.71,0,0,0,1.23-.15l.11,0c.45-.25.47-.58,0-.87-.17-.12-.35-.22-.51-.35a.67.67,0,0,1-.22-.81c.07-.18.16-.36.25-.54h.06m.13,3.93c0,.25.09.34.34.28a.89.89,0,0,0,.31-.15,1.59,1.59,0,0,0,.68-1.1.43.43,0,0,0-.1-.29s-.16,0-.22,0a6.7,6.7,0,0,0-.74.43.59.59,0,0,0-.22.31,2.82,2.82,0,0,0,0,.52"/><path class="cls-1" d="M206.2,87l-.45.06c-.22,0-.27.08-.25.3s0,.29.06.44a2.28,2.28,0,0,1,0,.25,1.33,1.33,0,0,1-.18-.14l-.33-.4a.21.21,0,0,0-.34,0l-.39.3-.05,0,.09-.32a7.59,7.59,0,0,0,.32-1,1.92,1.92,0,0,0-.08-.77.32.32,0,0,0-.56-.15,1.61,1.61,0,0,0-.55,1.17c0,.24,0,.47-.07.71a.61.61,0,0,1,0,.13h-.06l-.12-.37c-.09-.3-.18-.34-.46-.19l-.4.22,0,0c.07-.13.13-.26.2-.38.19-.33.17-.37-.2-.47l-.41-.12v-.07l.38-.09a2.71,2.71,0,0,0,1.28-.54.86.86,0,0,0,.07-1.37,9.58,9.58,0,0,0-1-.72l-.22-.17,0-.05c.12,0,.24,0,.35,0,.33,0,.36,0,.36-.37v-.43l.07,0,.29.37c.17.24.24.24.45,0l.36-.34c.12.2,0,.36,0,.52s-.12.53-.15.79a2,2,0,0,0,.05.57.32.32,0,0,0,.29.27.36.36,0,0,0,.37-.2,1.29,1.29,0,0,0,.17-.8c0-.26,0-.53-.06-.79a.85.85,0,0,1,0-.16l.27.31c.21.26.28.27.56.08l.34-.25,0,0-.19.45c-.13.29-.11.33.19.41a1.17,1.17,0,0,1,.37.15,1.42,1.42,0,0,1-.19.08c-.24.06-.48.09-.71.17a1.77,1.77,0,0,0-.46.24.4.4,0,0,0-.17.46c.05.18.23.19.38.21a2.62,2.62,0,0,0,1.29-.25l.4-.16,0,0-.23.34c-.23.33-.21.4.12.6l.39.23v.05c-.15,0-.3,0-.44,0s-.35,0-.38.29,0,.28,0,.42l0,0-.13-.17a10.16,10.16,0,0,0-.69-.92,1,1,0,0,0-.54-.25c-.26,0-.38.11-.34.37a1.83,1.83,0,0,0,.94,1.23l.44.25v0"/><path class="cls-1" d="M183.75,85.05l.12.09a.45.45,0,0,0,.77-.21,2.74,2.74,0,0,0,.11-.74,5.46,5.46,0,0,1,.2-1.68,4.2,4.2,0,0,1,1.69-2.16c-.06.25-.14.5-.18.75a3.48,3.48,0,0,0,.61,2.41c.42.69.89,1.34,1.33,2a2,2,0,0,1,.43,1.25,1,1,0,0,1-1.3.86.79.79,0,0,1-.49-1.06,1.38,1.38,0,0,1,.13-.2,2.41,2.41,0,0,0,.27.37.41.41,0,0,0,.27.06.35.35,0,0,0,.37-.36,1.49,1.49,0,0,0-.14-.61c-.3-.57-.64-1.12-1-1.67a6.21,6.21,0,0,1-.77-1.9c-.05-.27-.08-.56-.13-.89a2.5,2.5,0,0,0-.12.25,2.85,2.85,0,0,0,0,1.82c.2.66.43,1.3.61,2a1,1,0,0,1-.14,1,.69.69,0,0,1-.75.23.56.56,0,0,1-.42-.52,1.44,1.44,0,0,1,0-.29,1.23,1.23,0,0,0,.32.19c.24,0,.44-.14.43-.44a5.73,5.73,0,0,0-.14-1c-.1-.46-.26-.9-.36-1.36a3.83,3.83,0,0,1,0-.67.71.71,0,0,0,0-.2,1,1,0,0,0-.31.72c0,.61,0,1.22,0,1.83a1.33,1.33,0,0,1-.24.8.74.74,0,0,1-.77.28.54.54,0,0,1-.44-.44,2.07,2.07,0,0,1,0-.4h.07"/><path class="cls-1" d="M200.69,97.09a4,4,0,0,1-.71-.18.87.87,0,0,1-.46-.94,2.71,2.71,0,0,1,.76-1.55.32.32,0,0,1,.36-.09,3.27,3.27,0,0,0,2.87-.44.43.43,0,0,1,.71.18,1.13,1.13,0,0,1,0,1A2.81,2.81,0,0,1,203,96.42a5.16,5.16,0,0,1-2.27.67m.62-.86a2.1,2.1,0,0,0,1.64-.65.94.94,0,0,0,.22-.64c0-.21-.1-.27-.28-.18a2.54,2.54,0,0,1-1.26.29c-.14,0-.18.05-.19.19s-.06.52-.09.78c0,.06,0,.12,0,.2"/><path class="cls-1" d="M183.48,67.88a2.34,2.34,0,0,1,.24-.13c.22-.1.44-.18.65-.28s.3-.16.29-.35-.16-.28-.32-.34l-.19-.07s0,0,0-.07c.17,0,.34-.09.52-.11a1.09,1.09,0,0,1,1.09.41.61.61,0,0,0,1,0,1.38,1.38,0,0,1,1.48-.31l.08,0-.32.16c-.33.17-.36.41-.07.65a2.54,2.54,0,0,0,.24.17c.14.09.29.17.42.27a1,1,0,0,1,.16.23,1.3,1.3,0,0,1-.27,0c-.17,0-.34-.08-.51-.11-.37-.07-.56.13-.46.5.06.2.15.38.22.58s.18.29,0,.38-.24-.11-.33-.21-.24-.32-.38-.46-.54-.24-.67.14-.11.47-.19.7a1.16,1.16,0,0,1-.19.27,1.46,1.46,0,0,1-.12-.3c0-.22,0-.45-.08-.67a.37.37,0,0,0-.61-.27c-.18.11-.33.25-.5.37a1.68,1.68,0,0,1-.3.13,1.43,1.43,0,0,1,.11-.32c.12-.19.27-.36.39-.55s.05-.46-.26-.45-.47.07-.71.09-.28,0-.42,0l0-.09"/><path class="cls-1" d="M204.61,75.05a2.55,2.55,0,0,1-2.53-1.9s0-.05,0-.08c-.05-.29,0-.38.31-.38a3.38,3.38,0,0,0,1.38-.31c.36-.16.45-.13.68.19a.38.38,0,0,0,.45.17l.57-.18a.34.34,0,0,1,.42.1,2.45,2.45,0,0,1,.59,1.43.71.71,0,0,1-.24.48A2,2,0,0,1,205,75l-.44,0m0-.78a5.88,5.88,0,0,0,.68-.19c.1,0,.17-.17.25-.26l-.3-.11h-.06a5.8,5.8,0,0,1-1.69-.3,1,1,0,0,0-.3,0,1,1,0,0,0,.11.31,1.25,1.25,0,0,0,.34.28,2.52,2.52,0,0,0,1,.28"/><path class="cls-1" d="M193.87,91.91a.49.49,0,0,0,.08-.48,2.57,2.57,0,0,1-.09-.35.25.25,0,0,1,.19-.3.28.28,0,0,1,.34.15,2.3,2.3,0,0,1,.1.22c.19-.1.37-.15.53,0s.07.37-.05.53c.07.09.16.17.17.26a.46.46,0,0,1-.1.31.23.23,0,0,1-.33,0,.5.5,0,0,0-.45-.12c-.1,0-.18.08-.14.21a1.25,1.25,0,0,1-.63,1.52,2.72,2.72,0,0,1-2.35.38,1.24,1.24,0,0,1-.87-.76c-.07-.17,0-.22.16-.21l.71,0a.89.89,0,0,0,.85-.47c.14-.24.25-.49.38-.74a.81.81,0,0,1,.86-.52,2.87,2.87,0,0,1,.65.28"/><path class="cls-1" d="M208.36,86.87a1.34,1.34,0,0,1-.24-.76.77.77,0,0,1,.45-.73.72.72,0,0,1,.85.19,1.71,1.71,0,0,1,.48,1.17,3.51,3.51,0,0,1-1.09,2.74l-.08.06,0-.23a1.2,1.2,0,0,0-.68-.84c-.29-.15-.58-.27-.86-.43a.73.73,0,0,1-.33-.91.75.75,0,0,1,.83-.5,2.29,2.29,0,0,1,.38.08,2.9,2.9,0,0,1,.34.18"/><path class="cls-1" d="M185.56,88.68c0,.13,0,.25,0,.37a.68.68,0,0,1-.58.71.67.67,0,0,1-.8-.37c-.07-.15-.13-.16-.27-.11a.73.73,0,0,1-1-.79.74.74,0,0,1,.6-.6c.13,0,.15-.08.12-.2a.74.74,0,0,1,1.38-.51l.09.17a.71.71,0,0,1,.83,0,.92.92,0,0,1,.32.43c.1.36,0,.79-.71.94m-.47-.39a.46.46,0,0,0-.45-.48.47.47,0,0,0,0,.95.46.46,0,0,0,.46-.46"/><path class="cls-1" d="M182.83,74.76a3,3,0,0,1,.5,0,.32.32,0,0,1,.2.19.91.91,0,0,0,.35.52.26.26,0,0,1,.09.31,2.34,2.34,0,0,1-2,1.77,3,3,0,0,1-.7-.09c-.21,0-.41-.07-.62-.09s-.26-.09-.22-.26.12-.6.21-.9a2.05,2.05,0,0,1,1.92-1.48h.27m-.72,2.34a.84.84,0,0,0,.21,0,1.53,1.53,0,0,0,.21-.17,1.13,1.13,0,0,0-.18-.16,1.32,1.32,0,0,1-.66-.9.91.91,0,0,0-.11-.21c-.07.05-.16.08-.21.15a.73.73,0,0,0,0,.81.9.9,0,0,0,.75.52m.32-1.71a1.14,1.14,0,0,0,.56.93.32.32,0,0,0,.43-.09c.12-.17.09-.28,0-.44a3.49,3.49,0,0,1-.33-.51.35.35,0,0,0-.4-.18.24.24,0,0,0-.21.29"/><path class="cls-1" d="M207.77,75.18a2.89,2.89,0,0,0,2.42-1.28.4.4,0,0,1,.22.38,8.37,8.37,0,0,1,0,1c0,.61-.09,1.22-.15,1.82a1.44,1.44,0,0,1-.11.39c-.08.2-.15.23-.34.12a4,4,0,0,1-.59-.39,4.79,4.79,0,0,1-1.31-1.6,4.56,4.56,0,0,1-.16-.44"/><path class="cls-1" d="M187.57,88.37a1.58,1.58,0,0,1,1.55,1.24c.08.25.15.5.22.76s.21.46.64.42A1.57,1.57,0,0,1,191.55,92a.46.46,0,0,1-.4.54,1.78,1.78,0,0,1-1.14-.18,1.67,1.67,0,0,1-.93-1.47,1.72,1.72,0,0,0-1.31-1.48c-.29-.1-.58-.17-.85-.29s-.32-.4-.06-.6a1,1,0,0,1,.71-.2m2.62,2.75c-.09.07-.21.12-.26.21a.31.31,0,0,0,0,.28,1.19,1.19,0,0,0,.8.46.24.24,0,0,0,.27-.35,1.25,1.25,0,0,0-.83-.6"/><path class="cls-1" d="M199.56,75.08c.74.46,1.76-.21,1.93-1.24a1.63,1.63,0,0,1-.73,2.15,2.15,2.15,0,0,1-1.59.08c-.3-.09-.33-.08-.46.2s-.19.21-.29,0a2.36,2.36,0,0,1-.27-.71,1.9,1.9,0,0,1,.23-1.4l.08,0a1.25,1.25,0,0,0,1,.33,1,1,0,0,1,.3.06c0,.11-.06.21-.11.32a.87.87,0,0,1-.11.16"/><path class="cls-1" d="M200.28,86.52a2.14,2.14,0,0,1,1.73,1.7,1.3,1.3,0,0,1-.1.81,1,1,0,0,1-1.1.54.89.89,0,0,1-.76-.83,2.42,2.42,0,0,1,.05-.6,1.9,1.9,0,0,1,.12-.35,1.48,1.48,0,0,0,.06-1.28M201.37,88a.67.67,0,0,0-.31-.56c-.09-.07-.2-.08-.23.07s-.06.31-.08.47.09.39.28.4a.35.35,0,0,0,.34-.38"/><path class="cls-1" d="M183.77,78a2.55,2.55,0,0,1,.49-1.23.18.18,0,0,1,.16-.06,1.61,1.61,0,0,1,1.16,1.57.85.85,0,0,1-.61.82.86.86,0,0,1-1-.43,4.51,4.51,0,0,1-.24-.68"/><path class="cls-1" d="M200.65,74.28c-.21-.18-.4-.34-.6-.49a.21.21,0,0,1-.06-.34c0-.07.11-.13.16-.19-.31-.46-1.12-.31-1.54.29a1,1,0,0,1,.47-1.19,1.47,1.47,0,0,1,1.49.05c.18.1.35.23.57.09,0,0,.14,0,.15.09a1.85,1.85,0,0,1-.63,1.68"/><path class="cls-1" d="M202.09,92.42a5.43,5.43,0,0,1,.83.21.6.6,0,0,1,.07,1,2.19,2.19,0,0,1-2,.13.31.31,0,0,1-.21-.35.67.67,0,0,0,0-.08c0-.48.07-.6.54-.75a7.09,7.09,0,0,1,.82-.15"/><path class="cls-1" d="M209.61,72.06a.72.72,0,0,1,.51.93,1.85,1.85,0,0,1-.82,1.11,2.32,2.32,0,0,1-1.81.46c-.17,0-.34-.1-.37-.28a.44.44,0,0,1,.08-.34.63.63,0,0,1,.38-.15,2.69,2.69,0,0,0,1.63-.61,1.06,1.06,0,0,0,.43-.71,2.75,2.75,0,0,0,0-.4"/><path class="cls-1" d="M183.17,73.43c0,.16,0,.34-.08.52s-.09.13-.13.13a1.78,1.78,0,0,1-1.4-.65,1,1,0,0,1-.15-.83A.7.7,0,0,1,182,72a.83.83,0,0,1,.8.33,1.87,1.87,0,0,1,.34,1.05"/><path class="cls-1" d="M202.56,87.77a1.22,1.22,0,0,1,1.31,1.28.79.79,0,0,1-.75.67.67.67,0,0,1-.7-.56,1.36,1.36,0,0,1,.07-.53,1.3,1.3,0,0,0,.07-.87"/><path class="cls-1" d="M190.28,70.65a1.83,1.83,0,0,1,.34.16c.51.38,1,.75,1.51,1.16a.74.74,0,0,1,0,1c-.12.12-.22.07-.31,0-.25-.28-.52-.56-.74-.86s-.5-.76-.73-1.15a1.33,1.33,0,0,1-.1-.26l.05,0"/><path class="cls-1" d="M201.68,80a.75.75,0,0,1,.77.78.78.78,0,0,1-.77.78.81.81,0,0,1-.79-.79.78.78,0,0,1,.78-.76"/><path class="cls-1" d="M191.52,101.79a1,1,0,0,1-.36.83.61.61,0,0,1-1-.35.92.92,0,0,1,.39-1,.67.67,0,0,1,.68,0,.53.53,0,0,1,.31.52"/><path class="cls-1" d="M206.89,72.37a2.32,2.32,0,0,0,1.4-.2,1.74,1.74,0,0,1,.46-.1.28.28,0,0,1,.27.46,1.5,1.5,0,0,1-.43.4,1.87,1.87,0,0,1-1.13.31.41.41,0,0,1-.43-.34c-.05-.16-.09-.33-.14-.53"/><path class="cls-1" d="M201.72,78a.7.7,0,0,1-.71-.72.72.72,0,1,1,1.44,0,.7.7,0,0,1-.72.71"/><path class="cls-1" d="M200.39,77.82a.65.65,0,0,1,.67.68.67.67,0,0,1-.68.68.69.69,0,0,1-.68-.69.68.68,0,0,1,.69-.67"/><path class="cls-1" d="M198.85,79.88a.62.62,0,0,1-.62-.64.65.65,0,0,1,.62-.64.68.68,0,0,1,.66.65.65.65,0,0,1-.65.63"/><path class="cls-1" d="M180.69,72.87c.08.85.15,1,1,1.53a1.09,1.09,0,0,1-1.07.1.81.81,0,0,1-.46-.79.92.92,0,0,1,.53-.85"/><path class="cls-1" d="M198.72,88.5a1,1,0,0,1,1,.7.51.51,0,0,1-.19.55.49.49,0,0,1-.8-.43c0-.06,0-.13,0-.19s0-.41,0-.63"/><path class="cls-1" d="M183.6,79.18a.82.82,0,0,1-.78,0,.63.63,0,0,1-.26-.71,1,1,0,0,1,.71-.75,3.76,3.76,0,0,0,0,.79,4,4,0,0,0,.33.72"/><path class="cls-1" d="M180.09,79c.53.79,1.26.62,2,.47a2.39,2.39,0,0,1-1.25.67.54.54,0,0,1-.52-.23,1.58,1.58,0,0,1-.24-.92"/><path class="cls-1" d="M203.12,80.27a.51.51,0,0,1-.52-.52.5.5,0,0,1,.52-.5.51.51,0,0,1,.53.52.53.53,0,0,1-.52.51"/><path class="cls-1" d="M180.23,70.19a.72.72,0,0,1,.74-.79,3,3,0,0,1,.42,0c.12,0,.16.09.09.19a2.52,2.52,0,0,1-1,.84c-.16.08-.24,0-.24-.25"/><path class="cls-1" d="M191.9,67.6c.47,0,.51.07.45.62,0,.22-.15.3-.35.21a4.32,4.32,0,0,1-.76-.43c-.18-.13-.15-.23.07-.29s.4-.08.6-.11"/><path class="cls-1" d="M203,78.73a.45.45,0,1,1,0-.9.45.45,0,1,1,0,.9"/><path class="cls-1" d="M180.48,77.94a4.66,4.66,0,0,0,.69.3,4.47,4.47,0,0,0,.75.08,1,1,0,0,1-1,.42.75.75,0,0,1-.44-.8"/><path class="cls-1" d="M184.23,74a.45.45,0,0,1,.44.42.47.47,0,0,1-.45.44.47.47,0,0,1-.44-.43.44.44,0,0,1,.45-.43"/><path class="cls-1" d="M199.06,78a.45.45,0,0,1-.44-.44.43.43,0,0,1,.44-.42.45.45,0,0,1,.44.42.46.46,0,0,1-.44.44"/><path class="cls-1" d="M185.26,75.44a.41.41,0,0,1-.42.43.43.43,0,0,1-.45-.43.45.45,0,0,1,.42-.43.42.42,0,0,1,.44.43"/><path class="cls-1" d="M200.67,80a.43.43,0,0,1-.45.43.41.41,0,0,1-.41-.44.43.43,0,0,1,.43-.42.44.44,0,0,1,.43.43"/><path class="cls-1" d="M201.77,78.67a.43.43,0,0,1,.44.42.44.44,0,0,1-.88,0,.44.44,0,0,1,.44-.44"/><path class="cls-1" d="M202.3,75.43a.41.41,0,1,1,0,.82.41.41,0,0,1,0-.82"/><path class="cls-1" d="M203.57,81.23a.38.38,0,0,1-.41.4.41.41,0,0,1-.41-.39.43.43,0,0,1,.41-.42.41.41,0,0,1,.41.41"/><path class="cls-1" d="M200.18,77.38a.39.39,0,0,1-.41-.41.41.41,0,0,1,.4-.41.44.44,0,0,1,.41.4.41.41,0,0,1-.41.42"/><path class="cls-2" d="M427.53,91.64c.81-.16,3.66-.81,3.45-2.91A1.72,1.72,0,0,0,429,87.43c-.65.05-1.51.05-1.51.05,0-3.5.05-9.86.11-12.18,0-.38,0-.86-.32-.86s-.49.54-.49,1c-.27,4-.65,12.18-.65,12.18l-4.37.22c0-3.45.05-6.36.05-8.89,0-.54-.16-1.46-.59-1.46s-.38,1-.43,1.46c-.11,2.86-.27,8.94-.27,8.94-4.15.21-7.65.43-10.72.54-.81.05-1.72-.05-1.72.38,0,.59,1.29.32,1.56.65s.16.86.48,1.24a2.48,2.48,0,0,0,1.62.49c2.69.21,5.33.43,8.78.54v8.73c0,.59,0,1.35.43,1.35s.43-.7.48-1.35c.16-3.13.22-5.28.27-8.67l4.26.05s-.16,7.59-.16,12c0,.92.59,1.51,1,1.46.59-.05.54-.76.54-2.1.11-3.45.11-7,.16-11.53m95.37-.4c-2,1.62-5.28,3.88-8.89,3.77-2.75-.11-5.5-.86-6.79-3.66,0-.05,0-.16.11-.16,1.67-.11,5.44-1.51,5.44-3.72a1.92,1.92,0,0,0-2.1-1.78,6.06,6.06,0,0,0-4,1.83c1.24-3.13,2.81-7.22,2.86-9.91,0-1-.38-2.1-1.46-2.16-1.88-.05-3.88,3.88-4,10.83,0,1.36-.06,2.48-.09,3.63l-.12.23c-.52,1-1.47,2.65-2.43,2.65-1.51-.05-1.67-3.61-1.89-5.17a1.57,1.57,0,0,0-1.13-1.56c-1.24-.38-2.32.05-2.75-.16-.22-.16-.27-.65-.92-.7a.64.64,0,0,0-.7.65,1,1,0,0,0,.27.75l0,.06a.5.5,0,0,1,.11.4c-.27,1.51-1.34,5.21-2.69,5.21-1.19.05-1.78-2.37-2.21-5.17a.44.44,0,0,0-.81-.05c-1,2-2.48,4.9-3.77,4.85-.7,0-1-.43-.92-1.29.11-1.56,1.89-4.69,4.58-4.53.81,0,1.56.38,1.62-.16s-1.13-.7-2.31-.7a7.37,7.37,0,0,0-7,5.46s0,.07,0,.12l-.1.19c-.32.61-.94,1.46-1.51,1.5-1.08.05-1.67-3-2-4.8-.22-1.08-.65-2-1.72-2-.86-.06-1.08,1-1.24,1.45A40.94,40.94,0,0,1,473.06,91c-.21.43-.43.43-.64.05-.38-.81-.7-2.32-1.08-3.29-.43-1.18-1-2.1-2-2.21s-1.29,1.29-1.46,1.78c-.38,1.24-.64,2.48-1.13,3.83-.16.43-.38.43-.54-.06-.54-1.51-.86-5.6-2.64-5.55a1.22,1.22,0,0,0-1.05,1l-.21.5c-1.08,2.5-2.37,5.22-4,5.22a2.38,2.38,0,0,1-2.06-1.61l.07-.08a14.75,14.75,0,0,0,3-8.38c.05-1.73-.32-4-2-4-2.21-.05-4.42,3.29-4.58,8.41A9.72,9.72,0,0,0,454,91.85a4.65,4.65,0,0,1-2.39.84c-1.48.05-2.6-1-3.36-2.51l.23-.34A15.56,15.56,0,0,0,450.87,82c0-1.62-.54-3.82-2.16-3.82-2.1,0-4.2,3.23-4.26,7.54a10.52,10.52,0,0,0,1.49,5.89,3.37,3.37,0,0,1-2.46,1.06c-1.94,0-2.48-2.7-3.18-5.39-.11-.32-.49-.81-.86-.05-.92,2.15-2.59,4.63-3.83,4.63-.7,0-1-.38-1-1.13,0-1.67,1.89-4.63,4.2-4.69.81-.05,1.83.38,1.83-.22s-.86-.7-1.78-.7c-4,0-7.49,3.34-7.54,6.52a2.15,2.15,0,0,0,2.1,2.48c2.16.05,3.61-1.88,4.63-3,.11-.05.16-.05.16.05a4.24,4.24,0,0,0,4,3,6.76,6.76,0,0,0,4.24-1.87A5.18,5.18,0,0,0,450.71,94a5.62,5.62,0,0,0,3.53-1.41l.2-.16A3.84,3.84,0,0,0,457.55,94c2.35-.05,3.73-3,4.65-5l.14-.31c.08-.14.12-.09.14,0s0,.21.07.32a24.69,24.69,0,0,0,.82,2.87c.49,1.35.75,2.15,2,2.15,2-.05,2.35-3,2.9-4.92l.06-.19a.08.08,0,0,1,.16,0l.06.17c.54,1.64,1.3,5,3.07,4.94s2.32-2.64,2.86-4.47c.06-.22.16-.22.22,0,.54,2.15,1.19,4.58,3.4,4.58,1.34-.05,2.13-1.13,2.86-2l.1-.11a2.55,2.55,0,0,0,2.43,2c1.46-.05,2.75-1.51,3.66-2.64.16-.16.16.05.21.21a3.79,3.79,0,0,0,3.18,2.59c2.88,0,4.34-4.28,4.73-7l0-.09s0-.2.14-.25l.07,0a2.33,2.33,0,0,1,.59-.08.85.85,0,0,1,.81,1c0,2.69.27,6.52,3.07,6.57,1.89,0,3.12-1.39,3.93-2.81l.09-.14c0,.91,0,1.89,0,3,0,.86.22,1.78,1.08,1.78s1.24-1.24,1.24-2,0-1.59-.05-2.31l.08.15c1.61,3.17,3.92,5.77,7.79,5.77,4.42-.05,7.65-4,9.05-6.3.11-.22,0-.48-.22-.27m-75-1.88a13.71,13.71,0,0,1-.81-4.69c0-2.16.32-5.71,1.67-5.71,1.08,0,1.24,1.94,1.24,3.29a14.51,14.51,0,0,1-1.94,6.85l-.17.27m8,.54a14.79,14.79,0,0,1-.64-4.15c-.11-1.78.59-6.84,2-6.84.86,0,1.18,1.62,1.18,3a15,15,0,0,1-2.49,8l0,.06M506.31,85c.11-3.61.27-9.05,1.67-9,.49.05.65.92.59,1.61a32,32,0,0,1-2.21,8.54l-.09.21c0-.43,0-.89,0-1.37m-.05,5.17v-.05a4.37,4.37,0,0,1,1.29-2.32c.59-.75,1.83-1.51,2.26-1s.06,1.51-.54,2.1a5.34,5.34,0,0,1-2.59,1.51c-.21,0-.43-.06-.43-.27"/><path class="cls-2" d="M466.32,62.08a.82.82,0,0,0-1.64,0,.82.82,0,1,0,1.64,0m5.59,3.62a.82.82,0,1,0-1.64,0,.82.82,0,0,0,1.64,0m-11.16,0a.82.82,0,1,0-1.64,0,.82.82,0,0,0,1.64,0m15.48.31a.82.82,0,1,0-.81.81.82.82,0,0,0,.81-.81m-19.82,0a.82.82,0,1,0-.81.81.82.82,0,0,0,.81-.81m18.24,1.89c.19-.42-.19-.58-.37-.31A17.43,17.43,0,0,1,472,71a.76.76,0,0,1-1.33-.44,13.39,13.39,0,0,1,.06-3c0-.37-.29-.42-.42-.09A8.66,8.66,0,0,1,469,70.12a1.21,1.21,0,0,1-1.93-.13c-.92-1.27-1.16-4.47-1.31-6a.23.23,0,0,0-.46,0c-.15,1.52-.38,4.72-1.33,6a1.19,1.19,0,0,1-1.91.13,8.6,8.6,0,0,1-1.33-2.62c-.13-.33-.46-.27-.44.09a12.13,12.13,0,0,1,.08,3A.77.77,0,0,1,459,71a17.25,17.25,0,0,1-2.26-3.39c-.17-.29-.56-.11-.36.31,1.25,2.72,2.7,6.82,2.83,7s.19.19.27.15a17.41,17.41,0,0,1,12.07,0c.08,0,.14,0,.27-.15s1.58-4.28,2.83-7M465.51,75c-2.39,0-5.9.42-5.9,1.58s3.5,1.6,5.9,1.6,5.9-.42,5.9-1.6S467.9,75,465.51,75m0,2.62c-2.24,0-5.11-.39-5.11-1s2.87-1,5.11-1,5.11.38,5.11,1-2.89,1-5.11,1"/><path class="cls-1" d="M324.15,69.9c2.39.91,4.69,1.92,7.07,2.84v1.47c-2.35.92-4.7,1.84-7,2.85-.23-.33,0-1.08-.1-1.57,1.65-.7,3.36-1.35,5.1-2-1.59-.79-3.43-1.34-5.1-2.06Z"/><path class="cls-1" d="M328.08,78h.2v3.14h2.85v1.67h-2.75c.09,2.42-1.25,8,2.45,6.48V91c-1.62.14-3.27.42-4.22-.39-1.6-1.38-.22-5.13-.69-7.75h-1.87V81.19h1.77a10,10,0,0,0,.1-2.26c.69-.32,1.45-.58,2.16-.88"/><path class="cls-1" d="M288.24,90.9h-2.16V90c-1,1.63-4.95,1.52-5.4-.79-.53-2.71,2.2-4.12,5.4-3.93.55-2-1.1-3.45-2.35-2.35a1.35,1.35,0,0,0-.39,1.18h-2.26c-.47-4,6.53-4.15,7.16-1.08a20.6,20.6,0,0,1,0,3.93Zm-5.3-2.06a1.19,1.19,0,0,0,1.08.69c1.44.09,2-1.52,2.06-2.85-1.6,0-3.63.53-3.14,2.16"/><path class="cls-1" d="M297.37,84.52h-2.45c0-1.27-.47-2.06-1.77-1.87-1.8.26-1.8,3.63-.79,5.2s2.72,2,4.81,1.37c.23.3,0,1,.1,1.47a10.4,10.4,0,0,1-2.75.49c-3.86,0-5.7-2.64-5.3-6.38.29-2.74,2.64-4.07,5.1-3.83a3.17,3.17,0,0,1,3,3.53"/><path class="cls-1" d="M306,84.52h-2.45c.17-1.49-.81-2.21-2.06-1.77-1.48.53-1.43,3.39-.59,4.91a3.9,3.9,0,0,0,4.91,1.57c.23.3,0,1,.1,1.47-4.68,1.66-8.33-.89-8-5.5A4.36,4.36,0,0,1,303,81a3.09,3.09,0,0,1,3,3.53"/><path class="cls-1" d="M314.64,85.5h-5.79a3.83,3.83,0,0,0,5.5,3.63V90.8a13.85,13.85,0,0,1-2.65.39c-3.37,0-5-2.56-5-5.59a5.69,5.69,0,0,1,.78-3.14c1.13-1.61,4.71-2.21,6.28-.39.69.8.85,1.82.88,3.43m-5.69-1.37h3.43c.18-2.3-3.52-2-3.43,0"/><path class="cls-1" d="M323.57,90.9h-2.36V86.68c0-1.23.25-3.24-.59-3.53s-1.58.52-2,1.18c-.88,1.53-.69,4.13-.69,6.57a9.19,9.19,0,0,0-2.16.1c-.23-3.08,0-6.58-.1-9.81H318v1.57c.81-.83,1.45-2.11,3.53-1.77,3.15.53,1.75,6.24,2.06,9.91"/><path class="cls-1" d="M346.73,81v2.45c-4-.52-3,4-3.14,7.46h-2.36V81.19h2.36v1.57c.58-.66,1.36-1.92,3.14-1.77"/><path class="cls-1" d="M355,85.5h-5.69a3.81,3.81,0,0,0,5.5,3.63V90.8c-2.54.55-5.15.7-6.67-1.37s-1.33-6.59.69-7.85c2.72-1.71,7,.06,6.18,3.92m-5.59-1.37a23.63,23.63,0,0,0,3.44-.1c.07-2.14-3.55-1.95-3.44.1"/><path class="cls-1" d="M334.36,81.19c.15,2.5-.32,5.62.29,7.65,3.58.55,2.87-4.26,2.95-7.65h2.25c.07,3.17-.13,6.61.1,9.62a11,11,0,0,1-2.35.1V89.33a3.44,3.44,0,0,1-4,1.67c-2.59-1.06-1-6.18-1.47-9.52v-.29Z"/><path class="cls-1" d="M195.13,139.76a38.79,38.79,0,0,1,4.35,0,4.39,4.39,0,0,1,3.8,4.8,4.54,4.54,0,0,1-4.46,4.19c-1.22,0-2.44,0-3.69,0Zm1.64,7.54c.76,0,1.49,0,2.21,0a3,3,0,0,0,2.69-2.74,2.86,2.86,0,0,0-2-3.19,19,19,0,0,0-2.86-.27Z"/><path class="cls-1" d="M193.44,144.22a4.71,4.71,0,1,1-4.74-4.72,4.71,4.71,0,0,1,4.74,4.72m-4.72,3.26a3.24,3.24,0,1,0-3.11-3.25,3.15,3.15,0,0,0,3.11,3.25"/><path class="cls-1" d="M156.48,148.78c.23-.53.42-1,.62-1.45,1.06-2.44,2.14-4.87,3.19-7.3a.66.66,0,0,1,.64-.45c.81-.11,1.17.2,1.48,1,1.07,2.61,2.24,5.19,3.37,7.78.06.14.11.28.18.47-.54,0-1,0-1.49,0a.47.47,0,0,1-.31-.26c-.24-.52-.46-1-.66-1.58a.43.43,0,0,0-.48-.31c-1.2,0-2.41,0-3.62,0a.43.43,0,0,0-.48.32c-.2.54-.43,1.06-.68,1.58a.46.46,0,0,1-.31.26c-.46,0-.92,0-1.45,0m4.72-7.23-1.54,3.59h3.08l-1.55-3.59"/><path class="cls-1" d="M172.88,139.69h1.57c0,.13,0,.25,0,.37,0,1.64,0,3.28,0,4.92a3.65,3.65,0,0,1-2.2,3.65,4.11,4.11,0,0,1-4.86-1.17,4.21,4.21,0,0,1-.74-2.45c0-1.72,0-3.44,0-5.15a.9.9,0,0,1,0-.16h1.6v.48c0,1.7,0,3.4,0,5.1a2.25,2.25,0,0,0,3.39,1.91,2.29,2.29,0,0,0,1.15-2.18c0-1.59,0-3.19,0-4.78Z"/><path class="cls-1" d="M211.42,147.35v1.4H205v-9h6.44v1.45h-4.82v2.32h3.06v1.43h-1.37l-1.66.05c0,.56,0,1.13-.07,1.7,0,.09,0,.19,0,.28,0,.33.11.42.42.42,1.3,0,2.6,0,3.9,0Z"/><path class="cls-1" d="M229.36,148.79c-.69,0-1.23,0-1.78,0a.78.78,0,0,1-.46-.24c-1.25-1.29-2.48-2.59-3.72-3.89-.14-.15-.27-.32-.41-.48l-.1.07v4.51h-1.52v-9h1.48v4.22l.14.09c.15-.18.3-.37.46-.54,1.08-1.17,2.16-2.35,3.26-3.5a1.13,1.13,0,0,1,.67-.29c.47,0,1,0,1.57,0l-4.07,4.42,4.49,4.69"/><path class="cls-1" d="M213.41,146.24a4.77,4.77,0,0,0,2.55,1.18,3.41,3.41,0,0,0,1.52-.2,1,1,0,0,0,.11-1.79,11.85,11.85,0,0,0-1.48-.65,14.42,14.42,0,0,1-2-.92,2.22,2.22,0,0,1,.23-3.9,5.63,5.63,0,0,1,5,.35l-.52,1.18a17.08,17.08,0,0,0-2-.45,3.87,3.87,0,0,0-1.5.15,1.15,1.15,0,0,0-.62.65.73.73,0,0,0,.44.88c.51.25,1.05.45,1.58.66s.93.33,1.38.54a2.35,2.35,0,0,1,1.61,2.67,2.55,2.55,0,0,1-2.16,2.24,5.43,5.43,0,0,1-4.45-.92c-.23-.16-.29-.31-.16-.57s.31-.71.47-1.11"/><path class="cls-1" d="M179.16,141.16h-2.89v-1.45h7.51c-.19.45-.36.89-.57,1.31,0,.09-.26.13-.39.14-.66,0-1.32,0-2,0v7.58h-1.63Z"/><path class="cls-1" d="M138.68,136.82a.61.61,0,0,1,.36-.08h4.18a.67.67,0,0,1,.68.45c.27.68.57,1.35.85,2s.49,1.15.73,1.72c.56,1.33,1.13,2.66,1.68,4,.49,1.18,1,2.35,1.5,3.53l1.29,3.06c.05.13,0,.15-.1.15h-3.92a.18.18,0,0,1-.2-.13l-.91-2.18-3.39-8-.29-.66a3.4,3.4,0,0,0-.25-.63c-.38-.91-.76-1.82-1.16-2.73a.75.75,0,0,0-1-.47"/><path class="cls-1" d="M138.68,136.82a.75.75,0,0,1,1,.47c.4.91.78,1.82,1.16,2.73a3.4,3.4,0,0,1,.25.63,6.64,6.64,0,0,0-.38.85c-.37.87-.74,1.75-1.11,2.62l-.73,1.73-.79,1.85c-.07.16,0,.13.12.13h5.91l-.87.55-3.61,2.25a8,8,0,0,1-1.82.92,2.24,2.24,0,0,1-.59.11.85.85,0,0,1-.83-.49c-.55-1-1.09-2-1.64-3-.1-.19-.19-.39-.31-.57a1,1,0,0,1-.05-1l2.11-5.06,1.69-4.07.15-.33a.58.58,0,0,1,.31-.31"/><polygon class="cls-2" points="373.67 142.65 377.29 142.65 384.93 132.18 381.31 132.18 373.67 142.65"/><path class="cls-2" d="M369.24,127.35h20.12v20.13H369.24Zm2.82,17.31h14.49v-14.5H372.06Z"/><path class="cls-2" d="M279.73,140.48h-.89v5.74h.87c2.25,0,3-1.05,3-2.87,0-2-1-2.88-3-2.88m.2,7H277.2v-8.25h2.72c2.88,0,4.43,1.4,4.43,4.12s-1.28,4.13-4.43,4.13"/><path class="cls-2" d="M288.17,141.58a2.75,2.75,0,0,0-2.93,3c0,1.72.87,3,2.72,3.07,1.48,0,2.78-.43,2.87-2h-1.51a1.08,1.08,0,0,1-1.14,1.07c-1,0-1.37-.77-1.38-1.7H291c.12-1.71-.62-3.38-2.79-3.38M286.85,144c0-.75.41-1.45,1.27-1.45s1.24.62,1.2,1.45Z"/><path class="cls-2" d="M297.65,147.48H296.1v-.94a1.84,1.84,0,0,1-1.88,1.12,2,2,0,0,1-2.06-2.17v-3.71h1.58v3.5c0,.82.31,1.28,1.09,1.29s1.27-.4,1.27-1.51v-3.28h1.57Z"/><path class="cls-2" d="M299.68,141.81v-.9l1.52-.8v1.7h1.45v1.11H301.2v2.75c0,.56.19.88.77.9a2.24,2.24,0,0,0,.7-.06v1a3.8,3.8,0,0,1-2.31-.08c-.54-.29-.67-.79-.67-1.59v-2.91h-1.22v-1.11Z"/><path class="cls-2" d="M308.58,145a1.67,1.67,0,0,1-.07,1.62,3,3,0,0,1-2.61,1c-1.28-.08-2.43-.41-2.37-1.94h1.56c0,.66.4.9,1,.92s1.14-.19,1.14-.72-.4-.6-.92-.72a8.67,8.67,0,0,1-1.66-.44,1.59,1.59,0,0,1-1-1.47,1.66,1.66,0,0,1,1.19-1.44,4,4,0,0,1,1.5-.25c1.09,0,2.26.38,2.2,1.75H307a.71.71,0,0,0-.22-.57,1.31,1.31,0,0,0-1.61.15c-.34.8.72.86,1.9,1.18a2,2,0,0,1,1.48.94"/><path class="cls-2" d="M312.48,141.57c1.25,0,2.54.57,2.54,2.13h-1.53a1,1,0,0,0-1.16-1.14,1.43,1.43,0,0,0-.57.17c-.47.27-.62,1-.62,1.8a2.66,2.66,0,0,0,.55,1.88,1.22,1.22,0,0,0,1,.23c.61-.1.79-.7.8-1.21H315c0,1.63-1.32,2.25-2.71,2.23-1.87-.07-2.72-1.28-2.72-3.07a2.72,2.72,0,0,1,2.89-3"/><path class="cls-2" d="M316.24,139.24h1.58v3.45a2,2,0,0,1,1.87-1,2,2,0,0,1,2,1.92v3.93h-1.56V144c0-.78-.33-1.29-1.08-1.29s-1.29.46-1.29,1.51v3.28h-1.57Z"/><path class="cls-2" d="M325.89,141.58a2.75,2.75,0,0,0-2.93,3c0,1.72.87,3,2.72,3.07,1.48,0,2.78-.43,2.87-2H327a1.08,1.08,0,0,1-1.15,1.07c-1,0-1.37-.77-1.38-1.7h4.17c.13-1.71-.62-3.38-2.79-3.38M324.57,144c0-.75.41-1.45,1.27-1.45s1.24.62,1.2,1.45Z"/><path class="cls-2" d="M336.8,143.85H335v2.42h1.72c1.14,0,1.51-.56,1.51-1.25,0-.54-.39-1.17-1.45-1.15m-.16-3.37H335v2.13h1.64c.86,0,1.3-.35,1.3-1s-.51-1.09-1.33-1.09m1.77,6.76a6.7,6.7,0,0,1-2,.24h-3v-8.23h3.18c1.42,0,2.91.44,3,2a2,2,0,0,1-1.51,1.93,2.25,2.25,0,0,1,1.57,1,2.14,2.14,0,0,1,.08,1.88,2.18,2.18,0,0,1-1.33,1.17"/><path class="cls-2" d="M346.3,143.35c0-1.16-1.26-1.75-2.71-1.74s-2.39.47-2.42,1.8h1.52a.87.87,0,0,1,.95-.95c.85,0,1.23.39,1.15,1.35a7.9,7.9,0,0,0-2.79.38,1.81,1.81,0,0,0,.81,3.47,2.07,2.07,0,0,0,2.07-1l.06.83h1.36Zm-2.89,3.31c-.58,0-.93-.33-.93-.88,0-1.2,1.53-1.08,2.32-1.08,0,.95,0,1.93-1.4,2"/><path class="cls-2" d="M347.82,141.78h1.58v.91a2.17,2.17,0,0,1,2-1.06,1.8,1.8,0,0,1,1.92,1.92v3.93h-1.58V144c0-.74-.36-1.29-1.08-1.29s-1.29.46-1.29,1.51v3.28h-1.57Z"/><path class="cls-2" d="M355.67,139.15h1.57v8.33h-1.57Zm4,8.33-2.43-3.3,2.2-2.46h1.87l-2.28,2.4,2.68,3.36Z"/><path class="cls-2" d="M454,135.47l.21-1.23a3.4,3.4,0,0,0-1.42-.31,2.45,2.45,0,0,0-1.33.35l.38,1.09A4.09,4.09,0,0,1,454,135.47Z"/><path class="cls-2" d="M452.49,137.75a4.17,4.17,0,0,0-1,.41v.43a1.61,1.61,0,0,1,.66.55l.38-.09-.16-.26a1.64,1.64,0,0,1,.52-.12,1.17,1.17,0,0,1,.78.19l.82-.19.11-.17A2.77,2.77,0,0,0,452.49,137.75Z"/><path class="cls-2" d="M457.06,135.76a17.05,17.05,0,0,0-2-1.26l-.45,1.16a12.18,12.18,0,0,1,1.85.93Z"/><path class="cls-2" d="M465.27,132.7c-.1-.13-.34,0-.34,0l-3.88,1.44a14.12,14.12,0,0,0-1-2.07l1.26-3.43s.16-.34,0-.42-.38.14-.38.14l-2.28,1.87a9.79,9.79,0,0,0-3.13-2.27,10.35,10.35,0,0,0-1.4-.5l-.71-2.71s-.06-.27-.24-.27-.23.26-.23.26l-.45,2.39a12.26,12.26,0,0,0-1.54-.1,11,11,0,0,0-4.54.92,9.57,9.57,0,0,0-1.6.91l-.24.18c-.47-1.21-.84-2.2-.91-2.5a4.49,4.49,0,0,0,.94-1.69,2.9,2.9,0,0,0-.07-1.82,5.1,5.1,0,0,1-.41-1.16.73.73,0,0,1,.22-.46.52.52,0,0,0-.48-.46,2.75,2.75,0,0,0-.57,0c0-.09-.14-.07-.07-.38.11-.47,1-.69,1.74-1a2.14,2.14,0,0,0,1.48-2.11,1.7,1.7,0,0,0-1-1.62,2.21,2.21,0,0,1-.88.91,1.61,1.61,0,0,1-1.05.16,1.2,1.2,0,0,0-.62-1.26,1.58,1.58,0,0,1-1.4.56c-.76,0-.81-.2-1.87-.2a2.76,2.76,0,0,0-2.93,2.26,3,3,0,0,0,.49,2,5,5,0,0,0-.71.7.58.58,0,0,0-.77-.06,1,1,0,0,1,0,.65,8.54,8.54,0,0,0-.68,2.17,2.71,2.71,0,0,0,1.46,2.75.67.67,0,0,0-.08.7.54.54,0,0,0,.52.27.72.72,0,0,0-.13.76c.13.31.49.77.81.77a5.76,5.76,0,0,0,.17,1.16,1.18,1.18,0,0,0-.2.74.8.8,0,0,0,.58.78,2.08,2.08,0,0,0,.25.53,2,2,0,0,0,.45.44,1.49,1.49,0,0,0,.82.28,3.21,3.21,0,0,0,.74,0c0,.09,0,.93.07,1.86a22.38,22.38,0,0,0-1.19,7.53h0c0,4.94,1.41,9.33,4.1,12.17a2.65,2.65,0,0,0,.58.47,31,31,0,0,1,2.12-3.07,11.44,11.44,0,0,1,1.1-1.2c.63-.55,1.24-1,1.83-1.46a15.41,15.41,0,0,1,5.34-2.35,21.62,21.62,0,0,0-5.08,3.24,18.76,18.76,0,0,0-4.45,5.36,2.1,2.1,0,0,0,1.08.48,28.87,28.87,0,0,1,3.9-5.06,18.47,18.47,0,0,1,12.41-5.07,26.28,26.28,0,0,0,.23-3.52,24.21,24.21,0,0,0-.62-5.6l3.27-3.64S465.37,132.83,465.27,132.7Zm-4.76-3.37L458,134.69a9.42,9.42,0,0,0-1.7-1.19Zm-7.3-3.46,1.2,6.79a5,5,0,0,0-2.08-.21Zm-2.7,7.27a3,3,0,0,0-1.17,1.33l-3-5.11Zm-1.95,5-1.28-.88a9.2,9.2,0,0,0-.08-1,1,1,0,0,0,0-.11l1.6.77a1.46,1.46,0,0,0-.24.62A1.71,1.71,0,0,0,448.57,138.11Zm-9-21c.53,0,1.21.11,1.55.11a4,4,0,0,0,1.44-.24.81.81,0,0,1-.07.75,3.79,3.79,0,0,0,1.35.27,2.19,2.19,0,0,0,1.51-.7,1.18,1.18,0,0,1-.28,1.13c-.62.55-2.07.85-2.5,1.17a1.52,1.52,0,0,0-.59.63c-.14-.14-.22-.26-.46-.23s-.42.3-.68.28-.62-.6-1-.62c-.63,0-.88.49-1.15.51s-.44-.27-.55-.41a1.75,1.75,0,0,1-.28-1.09A1.7,1.7,0,0,1,439.61,117.08Zm-3.35,7.32a1.65,1.65,0,0,1-.19-.8,3.93,3.93,0,0,1,.43-1.09,1.06,1.06,0,0,0-.07-.82c.14,0,.43.15.63.09a.52.52,0,0,0,.42-.35c.1-.21.23-.37.44-.39s.59.18.92.11.6-.52,1-.52.63.46,1,.51.85-.35,1.19-.22.16.63.41.84.79,0,.95-.06a2,2,0,0,0-.09.62c0,.24.4.95.41,1.2a1.79,1.79,0,0,1-.09.87c0-.95-1.16-2.1-3.66-2.15C437.7,122.18,436.2,123.05,436.27,124.4Zm5.39.56a2.46,2.46,0,0,0-1.84-.69c-.89,0-1.57.35-1.67.65a.89.89,0,0,1,.27-.94,2.13,2.13,0,0,1,1.33-.42,2.41,2.41,0,0,1,1.53.43A1,1,0,0,1,441.65,125Zm-3.22,2.8a1.48,1.48,0,0,0-.38.63,1.63,1.63,0,0,1-.46-.76,1.49,1.49,0,0,1,.71-.61,3.9,3.9,0,0,0-.82,0,1.31,1.31,0,0,1-.08-.74h.32l-.18-.43a3.61,3.61,0,0,1,1.54-.63,1.5,1.5,0,0,1,0,.47.29.29,0,0,1-.14.22l-.42.21a5.88,5.88,0,0,1,.76,0c.14,0,.2,0,.2.19a.7.7,0,0,1-.12.4c-.08.11-.32.09-.44.11a.72.72,0,0,1,.08.35.26.26,0,0,1-.17.27A2.86,2.86,0,0,0,438.43,127.75Zm2.53,3.31a2.47,2.47,0,0,0-1.12-.35,2.18,2.18,0,0,0-1.12.32.4.4,0,0,1-.1-.51c.09-.22.22-.25.22-.25l-.12-2.07a5.7,5.7,0,0,1,.74-.46.31.31,0,0,0,.23-.33,4.06,4.06,0,0,1,.84.86,1.67,1.67,0,0,1,.32.9,5.37,5.37,0,0,1,0,1.14c.13.11.25.21.27.38A.63.63,0,0,1,441,131.06Zm.79,6.15c-.08-.14-.44-7.83-.46-8.09h0l.41-.3v-.08a1.64,1.64,0,0,1-.42-.08.65.65,0,0,1-.34-.22l-.11-2.36a1.85,1.85,0,0,1-1-.32.65.65,0,0,1-.13-.87,2.89,2.89,0,0,0,1.33.32c.11,0,.34.25.48.3s.41.2.52.25.18.3.21.4l.17.46c.75,2,3.67,9.54,3.73,9.63s.29,1.77.3,1.9a11.31,11.31,0,0,0,.7,1.58A2.54,2.54,0,0,0,446,140a3.54,3.54,0,0,0-.89.62,6.62,6.62,0,0,0-1.39,2.73C443.7,143.05,441.83,137.35,441.75,137.21Zm3.75,13.24c-.36.61-1.36,1.83-1.71,2.3a10.82,10.82,0,0,0,.65-4,23.38,23.38,0,0,1-.05-4.32,4.94,4.94,0,0,1,1.65-3.16,3.06,3.06,0,0,1,3-.65l1.17,2.2a2.65,2.65,0,0,0-2,.41,4.49,4.49,0,0,0-1.56,3.44A9.68,9.68,0,0,1,445.5,150.45Zm1.21-.78a20.19,20.19,0,0,0,.76-3.08,4.07,4.07,0,0,1,1.2-2.7,2,2,0,0,1,1.51-.34l1.33,2.7a.79.79,0,0,0,.77.37A19.63,19.63,0,0,0,446.71,149.66Zm6.37-3.28-.47-1.63,1.09-1.52a11,11,0,0,1-1.48.44c-.07,0-.62.11-.73-.42a3.17,3.17,0,0,1-.09-.5c0-.14.12-.3.24-.28a.43.43,0,0,0,.33,0l.23-.3c-.19,0-.41-.08-.5-.08a2.67,2.67,0,0,0-.43.13c-.09-.07-.24-.2-.2-.36h1.26l0-.14a4.27,4.27,0,0,0-.9-.3.42.42,0,0,0-.36.14v-.24l.71-.6-.74-.3-.4.07.26-1.66-.14-.29-.72.43,0-.94c0-.17.36-.5.63-.66l0-.57a2.45,2.45,0,0,0-.79.54,1.54,1.54,0,0,0-.36.9.89.89,0,0,1-.22-.78,1.35,1.35,0,0,1,.52-.84,2.53,2.53,0,0,1,0-1.21,3,3,0,0,1,3.11-2.19,7,7,0,0,1,3.76,1.54,6.76,6.76,0,0,1,2.14,2.22.91.91,0,0,1,0,.43c-.14-.19-1.16-1.16-1.16-1.16L457,137l1.21,1.06a1.49,1.49,0,0,1-1,.24c-.56-.07-1.8-.85-1.83-1.47a7.48,7.48,0,0,0-2.61-.55,6.13,6.13,0,0,0-1.52.24c-.21.07-.37-.06-.54-.13l-.08,0,.47.73c.14.07.41-.1.78-.16a3.41,3.41,0,0,1,2.16.35,17.63,17.63,0,0,1,2,1.56.69.69,0,0,0,.85.16c.19-.16.46-.16.44.05s-.13.45.09.54.31-.09.45-.19a.39.39,0,0,1,.45,0,3.1,3.1,0,0,1-.69.83,1.13,1.13,0,0,1-.92.31l-.17.4,1.19,2.73c.31.63.35.8.61,1.22A26.64,26.64,0,0,0,453.07,146.38Zm6.32-1.65a8,8,0,0,1-.6-1.26l-.83-1.55a.83.83,0,0,1,0-.87,4,4,0,0,1,1-1l.08,1.62s1.06,2,1.52,3C460.19,144.72,459.78,144.73,459.4,144.73Zm.45-7.22a4,4,0,0,0-.78-1.73L464,133.6Z"/><path class="cls-2" d="M450.86,134.59a1.88,1.88,0,0,0-.62,1.68,5.82,5.82,0,0,1,1-.76Z"/><path class="cls-2" d="M471.83,136.62c0,.82.34,1.08,1.58,1.08s1.8-.38,2.61-2h.29l-.29,2.61h-7.68V138c1.15-.29,1.27-.55,1.27-1.63v-6.43c0-.89-.22-1.15-1.27-1.41v-.29h4.76v.29c-1,.26-1.27.46-1.27,1.34Z"/><path class="cls-2" d="M479.55,136.87c0,.65.33,1,1,1.1v.29h-4.07V138c.88-.17,1.08-.41,1.08-1.24v-3.46c0-.79-.22-1-1.17-1.2v-.29l2.82-.24h.29Zm-1-9.37a1.12,1.12,0,0,1,1.12,1.12,1.13,1.13,0,0,1-1.12,1.14,1.15,1.15,0,0,1-1.14-1.14,1.13,1.13,0,0,1,1.14-1.12"/><path class="cls-2" d="M483.77,133.18c.65-.6,1-.77,1.51-.77,1.15,0,1.92,1.1,1.92,2.68,0,2.11-1,3-2.41,3-.78,0-1-.34-1-1.08Zm0-5.67h-.29l-2.63.19V128c.6.1,1,.41,1,1v9.32a16.11,16.11,0,0,0,3.16.26c3.17,0,4.37-1.65,4.37-3.65a3.18,3.18,0,0,0-3.09-3.35,3.32,3.32,0,0,0-2.49,1.19Z"/><path class="cls-2" d="M492.21,134.06c.05-1.24.58-2.06,1.38-2.06s1.38.86,1.44,2.06Zm4.92.4a3.25,3.25,0,0,0-3.4-2.92,3.51,3.51,0,0,0-3.61,3.54,3.41,3.41,0,0,0,3.54,3.46,3.68,3.68,0,0,0,3.47-2.25h-.29a2.69,2.69,0,0,1-2.32,1.41c-1.2,0-2.41-1.1-2.3-3.23Z"/><path class="cls-2" d="M503.35,134a2.3,2.3,0,0,0-1.46-.84c-.58,0-.95.24-1.44.93v2.65c0,.78.15,1,1.1,1.21v.29h-4.12V138c.86-.21,1.08-.47,1.08-1.21v-3.42a1.11,1.11,0,0,0-1.18-1.27v-.29l2.83-.26h.29v2.06h0c.63-1.41,1.34-2.06,2.15-2.06a1.51,1.51,0,0,1,1.15.55Z"/><path class="cls-2" d="M514.3,131.79v.29c.83.17,1,.69.43,2.06l-.9,2.08-1.37-2.84c-.4-.83-.4-1.2.34-1.31v-.29h-5.74v-2.51h-.33a12.16,12.16,0,0,1-2.79,2.7v.33h1.17v4.16a1.94,1.94,0,0,0,2.2,2.06,2.18,2.18,0,0,0,2.08-1.15l-.21-.19a1.21,1.21,0,0,1-.94.52c-.91,0-1.19-.62-1.19-1.67V132.3h1.74c.95,0,1.22.34,1.63,1.22l2.37,5c-.79,2.13-1.48,3-2.68,3a2.42,2.42,0,0,1-.88-.15l-.39,2a3.37,3.37,0,0,0,.55,0c1.34,0,2.08-.57,2.77-2.15l3.26-7.46c.53-1.2.74-1.44,1.56-1.67v-.29Z"/><path class="cls-2" d="M481,149.93a1.66,1.66,0,0,0,1.53,1.56v.29h-5v-.29c1.1-.28,1.29-.91,1.1-2.22l-.83-5.74h0l-3.27,8.25h-.36L471,143.53h0l-.88,5.91c-.17,1.17.05,2,1.19,2v.29h-3.64v-.29c1.08-.05,1.54-.67,1.79-2.22l1-6.57a2.21,2.21,0,0,0-1.46-.69v-.29h3.63l2.63,6.64,2.67-6.64h3.4V142c-1,.19-1.27.7-1.14,1.63Z"/><path class="cls-2" d="M483.36,146.72c0-.72-.24-1-1-1.12v-.29L485,145h.29v4.78a1.07,1.07,0,0,0,1.2,1.13c.65,0,1-.28,1.62-1.17v-3.23c0-.53-.35-.84-1-1v-.29l2.67-.26h.29v5.16c0,.86.17,1.07,1,1.29v.29l-3,.26v-1.58h0A2.94,2.94,0,0,1,485.5,152a1.9,1.9,0,0,1-2.15-2Z"/><path class="cls-2" d="M492.59,145.82h-1.17v-.33a12.14,12.14,0,0,0,2.78-2.7h.33v2.51h2.13v.51h-2.13v3.73c0,1,.27,1.67,1.19,1.67a1.21,1.21,0,0,0,.94-.52l.21.19a2.18,2.18,0,0,1-2.08,1.15,1.94,1.94,0,0,1-2.2-2.06Z"/><path class="cls-2" d="M497.92,146.72c0-.72-.24-1-1-1.12v-.29l2.66-.26h.29v4.78a1.07,1.07,0,0,0,1.2,1.13c.65,0,1-.28,1.62-1.17v-3.23c0-.53-.34-.84-1-1v-.29l2.66-.26h.29v5.16c0,.86.17,1.07,1,1.29v.29l-3,.26v-1.58h0a3,3,0,0,1-2.58,1.58,1.9,1.9,0,0,1-2.15-2Z"/><path class="cls-2" d="M510.09,150.67a1.8,1.8,0,0,1-1.22.67c-.53,0-.89-.47-.89-1.17,0-.88.5-1.27,2.12-2Zm2-3.2c0-1.79-1.46-2.42-2.85-2.42a2.78,2.78,0,0,0-2.9,2.2h.26a2.08,2.08,0,0,1,1.94-1.08c1.17,0,1.62.55,1.62,1.7-1.58.58-4.16.72-4.16,2.48a1.83,1.83,0,0,0,1.94,1.7,2.78,2.78,0,0,0,2-.77l.16-.14a1.51,1.51,0,0,0,1.56.91c.95,0,1.51-.45,1.58-1.25H513c-.07.4-.24.6-.52.6s-.4-.26-.4-.86Z"/><path class="cls-2" d="M514.57,142.8c0-.91-.29-1.24-1.22-1.29v-.29l2.87-.19h.29v9.18c0,.86.19,1.07,1.15,1.29v.29h-4.31v-.29c.95-.15,1.22-.46,1.22-1.29Z"/><polygon class="cls-2" points="517.9 150.55 518.41 150.55 518.41 151.87 518.61 151.87 518.61 150.55 519.12 150.55 519.12 150.37 517.9 150.37 517.9 150.55"/><path class="cls-2" d="M520.69,151.87V151s0-.23,0-.37h0l-.42,1.25h-.2l-.42-1.25h0c0,.14,0,.33,0,.37v.88h-.2v-1.49h.29l.43,1.26h0l.42-1.26h.29v1.49Z"/><path class="cls-1" d="M17.18,156.23c.28-.42.51-.54.92-.07.58.66,1.36.51,1.85-.3a6.17,6.17,0,0,0,.76-3.24c0-5,0-10.06,0-15.09A1.42,1.42,0,0,0,19.52,136a1.28,1.28,0,0,1-.25-.07c-.19-.1-.59,0-.51-.35s.4-.2.64-.17a24.26,24.26,0,0,0,3.63.07c.16,0,.4-.09.47.12s-.22.3-.38.35c-.74.25-.82.84-.81,1.49,0,2.34,0,4.68,0,7a67.73,67.73,0,0,1-.25,8,6.18,6.18,0,0,1-2,4.26,3.37,3.37,0,0,1-2.22.87,1,1,0,0,1-.71-.27Z"/><path class="cls-1" d="M93,135.48c.22-.24.49-.06.74-.07h2.45c.15,0,.33,0,.4.15s-.09.24-.21.29c-.73.3-1,1-1.24,1.63q-2.63,6.14-5.26,12.28c-.12.27-.16.74-.44.74s-.36-.49-.48-.77c-.77-1.79-1.52-3.6-2.29-5.39-.08-.18-.05-.5-.33-.49s-.25.28-.32.46q-1.16,2.87-2.31,5.74c-.07.17,0,.46-.29.46s-.22-.29-.29-.46q-2.45-6-4.9-12.08c-.18-.44-.43-.86-.65-1.29a1.89,1.89,0,0,0-1.33-1c-.2,0-.54,0-.51-.28s.38-.23.61-.2a16.59,16.59,0,0,0,2.58.07c.29,0,.57,0,.86-.07a.31.31,0,0,1,.34.15c.05.16-.11.22-.23.26-.64.18-.64.62-.48,1.14.69,2.27,1.71,4.42,2.59,6.61.46,1.16,1,2.3,1.48,3.45.09.2.17.47.39.49s.29-.29.37-.48c.51-1.21,1-2.43,1.52-3.64a1.24,1.24,0,0,0,0-1c-.65-1.61-1.25-3.23-1.91-4.84-.36-.88-.83-1.68-2-1.67-.14,0-.29-.08-.28-.22s.22-.25.4-.24c.62,0,1.23.1,1.85.11s1.28,0,1.92,0c.11,0,.24,0,.29.09s-.06.25-.19.29c-.66.21-.65.69-.5,1.22.31,1.1.78,2.14,1.18,3.21,0,.13.11.25.27.24s.22-.13.27-.26c.4-1,.83-2,1.17-3.07.24-.75,0-1-.73-1.34-.15-.06-.4-.07-.33-.31s.26-.14.41-.11a13.72,13.72,0,0,0,2.38,0c.18,0,.46-.12.52.11s-.23.25-.39.33a1.39,1.39,0,0,0-.75.72c-.69,1.54-1.4,3.08-1.93,4.68a1.63,1.63,0,0,0,0,1.15c.62,1.65,1.36,3.24,2.1,4.83.09.2.18.48.4.48s.29-.3.38-.5c1.42-3.21,2.76-6.46,3.94-9.76.35-1,.22-1.17-.79-1.55-.17-.06-.41,0-.46-.31"/><path class="cls-1" d="M54.4,150.21c-.17.27-.41.15-.61.14a20.63,20.63,0,0,0-4.36,0c-.18,0-.47.12-.52-.13s.26-.27.43-.33a1.44,1.44,0,0,0,1-1.33c.14-1.58.11-3.17.09-4.76,0-2.07,0-4.15-.13-6.22-.08-1.16-.21-1.34-1.35-1.72-.18-.06-.54,0-.48-.32s.37-.18.57-.17a41.73,41.73,0,0,0,4.89-.07,6.56,6.56,0,0,1,2.27.33c2.41.69,3.07,3.88,1.3,5.84a5.31,5.31,0,0,1-1.27,1c-.25.14-.29.28-.13.52A49.28,49.28,0,0,0,60.29,149a2.45,2.45,0,0,0,1.37.87c.13,0,.3,0,.3.19s-.19.24-.33.26a3.29,3.29,0,0,1-2.85-.68,6.63,6.63,0,0,1-1.2-1.48c-.73-1.15-1.49-2.29-2.16-3.47a2.71,2.71,0,0,0-2.9-1.46.59.59,0,0,0-.62.63A25.26,25.26,0,0,0,52,148.6c.16.93.87,1.25,1.7,1.4.22,0,.49,0,.65.21m-2.53-10.85h0c0,.79,0,1.59,0,2.38a.7.7,0,0,0,.68.81,6.35,6.35,0,0,0,2.49-.09,2.55,2.55,0,0,0,1.78-1.69A3.67,3.67,0,0,0,52.74,136a.92.92,0,0,0-.87,1c0,.79,0,1.59,0,2.38"/><path class="cls-1" d="M72.52,140.56a35.24,35.24,0,0,0,.16,4.16c-.39-.13-.35-.43-.42-.65A1.39,1.39,0,0,0,70.8,143h-3c-.43,0-.66.21-.65.65a38.8,38.8,0,0,0,.12,4.69c.11.77.35,1,1.11,1a14.8,14.8,0,0,0,4.44-.58,3,3,0,0,0,1.69-1.21c.09-.14.15-.33.37-.32a3.12,3.12,0,0,1-2.41,2.91c-.9,0-1.81,0-2.71,0a25.26,25.26,0,0,0-4.49.12A1.35,1.35,0,0,1,64,150c.08-.07.13-.14.18-.15,1.07-.15,1.43-.5,1.45-1.57.06-3.59.11-7.19-.07-10.78-.06-1.18-.39-1.55-1.52-1.81-.12,0-.31,0-.3-.17s.21-.21.35-.21c.66,0,1.32,0,2,0,2.29.07,4.59,0,6.88-.07.6,0,.7.18.62.71s-.1,1.14-.14,1.71c0,.15,0,.35-.21.34s-.16-.19-.15-.32c.07-1.2-.82-1.64-1.85-1.64s-2.16,0-3.24,0a.78.78,0,0,0-.89.84c0,1.5,0,3,0,4.5a.66.66,0,0,0,.76.72c1,0,1.94,0,2.91-.09a1.77,1.77,0,0,0,1.75-1.49"/><path class="cls-1" d="M45.55,146.39c.06,1.9-.36,2.6-1.86,3.24a10.14,10.14,0,0,1-6.47.59,6.2,6.2,0,0,1-4.83-4.65,8.77,8.77,0,0,1,.89-7c1.68-2.85,5-4,8.55-3.06a12.45,12.45,0,0,1,2.2.87c.3.15.58.52,1,.17.15-.12.2.08.21.21l.29,3c-.37,0-.38-.29-.48-.47A6.22,6.22,0,0,0,41,135.91c-2.93-.63-6.49.5-7.13,4.8a8.67,8.67,0,0,0,1.48,6.77,5.89,5.89,0,0,0,9.6-.21l.61-.89"/><path class="cls-1" d="M26.95,150.8l-.37-.34c-1.12-1.11-1.11-1.15.12-2.2,0,0,.1-.13.14-.12.58.08.74.66,1.12,1,.18.15.29.32.07.54s-.72.76-1.08,1.15"/></svg>