<?xml version="1.0" encoding="utf-8"?>
<!-- Generator: Adobe Illustrator 21.0.0, SVG Export Plug-In . SVG Version: 6.00 Build 0)  -->
<svg version="1.1" id="Layer_1" xmlns="http://www.w3.org/2000/svg" xmlns:xlink="http://www.w3.org/1999/xlink" x="0px" y="0px"
	 viewBox="0 0 512 512" style="enable-background:new 0 0 512 512;" xml:space="preserve">
<style type="text/css">
	.st0{fill:#ACA340;}
</style>
<g>
	<g>
		<path class="st0" d="M392.7,0H119.3c-5.6,0-10.2,4.6-10.2,10.2v491.6c0,5.6,4.6,10.2,10.2,10.2h273.4c5.6,0,10.2-4.6,10.2-10.2
			V10.2C402.9,4.6,398.4,0,392.7,0z M382.5,491.6h-253V20.4h253L382.5,491.6L382.5,491.6z"/>
	</g>
</g>
<g>
	<g>
		<path class="st0" d="M232.5,46.9h-67.3c-5.6,0-10.2,4.6-10.2,10.2V254c0,5.6,4.6,10.2,10.2,10.2h67.3c5.6,0,10.2-4.6,10.2-10.2
			V57.1C242.7,51.5,238.2,46.9,232.5,46.9z M222.3,243.8h-46.9V67.3h46.9V243.8z"/>
	</g>
</g>
<g>
	<g>
		<path class="st0" d="M346.8,46.9h-67.3c-5.6,0-10.2,4.6-10.2,10.2V254c0,5.6,4.6,10.2,10.2,10.2h67.3c5.6,0,10.2-4.6,10.2-10.2
			V57.1C357,51.5,352.4,46.9,346.8,46.9z M336.6,243.8h-46.9V67.3h46.9L336.6,243.8L336.6,243.8z"/>
	</g>
</g>
<g>
	<g>
		<path class="st0" d="M173.9,283.6c-14.3,0-26,11.7-26,26s11.7,26,26,26s26-11.7,26-26S188.2,283.6,173.9,283.6z M173.9,315.2
			c-3.1,0-5.6-2.5-5.6-5.6s2.5-5.6,5.6-5.6s5.6,2.5,5.6,5.6S177,315.2,173.9,315.2z"/>
	</g>
</g>
<g>
	<g>
		<path class="st0" d="M346.8,370.3c-5.6,0-10.2,4.6-10.2,10.2v81.6c0,5.6,4.6,10.2,10.2,10.2c5.6,0,10.2-4.6,10.2-10.2v-81.6
			C357,374.8,352.4,370.3,346.8,370.3z"/>
	</g>
</g>
<g>
	<g>
		<path class="st0" d="M346.8,333.6c-5.6,0-10.2,4.6-10.2,10.2v5.1c0,5.6,4.6,10.2,10.2,10.2c5.6,0,10.2-4.6,10.2-10.2v-5.1
			C357,338.1,352.4,333.6,346.8,333.6z"/>
	</g>
</g>
</svg>
