<?xml version="1.0" encoding="utf-8"?>
<!-- Generator: Adobe Illustrator 21.0.0, SVG Export Plug-In . SVG Version: 6.00 Build 0)  -->
<svg version="1.1" id="Layer_1" xmlns="http://www.w3.org/2000/svg" xmlns:xlink="http://www.w3.org/1999/xlink" x="0px" y="0px"
	 viewBox="0 0 512 512" style="enable-background:new 0 0 512 512;" xml:space="preserve">
<style type="text/css">
	.st0{fill:#ACA340;}
</style>
<g>
	<g>
		<path class="st0" d="M323.3,95.2l-62.2-43.7c-2.9-2-6.4-2-9.4,0l-62.2,43.7c-3.4,2.4-5.5,7.1-5.5,12.4c0,5.3,2.1,9.9,5.5,12.4
			l62.2,43.7c1.5,1.1,3.1,1.5,4.7,1.5s3.2-0.5,4.7-1.5l62.2-43.7c3.4-2.4,5.5-7.1,5.5-12.4C328.8,102.3,326.7,97.7,323.3,95.2z
			 M256.4,135.6l-40-28l40-28l40,28L256.4,135.6z"/>
	</g>
</g>
<g>
	<g>
		<path class="st0" d="M414.9,159.6l-62.2-43.7c-2.9-2-6.4-2-9.4,0l-62.2,43.7c-3.4,2.4-5.5,7.1-5.5,12.4s2.1,9.9,5.5,12.4
			l62.2,43.7c1.5,1.1,3.1,1.5,4.7,1.5s3.2-0.5,4.7-1.5l62.2-43.7c3.4-2.4,5.5-7.1,5.5-12.4S418.3,161.9,414.9,159.6z M348,199.8
			l-40-28l40-28l40,28L348,199.8z"/>
	</g>
</g>
<g>
	<g>
		<path class="st0" d="M506.5,223.8l-62.2-43.7c-2.9-2-6.4-2-9.4,0l-62.2,43.7c-3.4,2.4-5.5,7.1-5.5,12.4c0,5.2,2.1,9.9,5.5,12.4
			l62.2,43.7c1.5,1.1,3.1,1.5,4.7,1.5s3.2-0.5,4.7-1.5l62.2-43.7c3.4-2.4,5.5-7.1,5.5-12.4C512,231,509.9,226.2,506.5,223.8z
			 M439.6,264.2l-40-28l40-28l40,28L439.6,264.2z"/>
	</g>
</g>
<g>
	<g>
		<path class="st0" d="M231.3,159.8l-62.2-43.7c-2.9-2-6.4-2-9.4,0l-62.2,43.7c-3.4,2.4-5.5,7.1-5.5,12.4s2.1,9.9,5.5,12.4
			l62.2,43.7c1.5,1.1,3.1,1.5,4.7,1.5c1.6,0,3.2-0.5,4.7-1.5l62.2-43.7c3.4-2.4,5.5-7.1,5.5-12.4S234.7,162.2,231.3,159.8z
			 M164.4,200.3l-40-28l40-28l40,28L164.4,200.3z"/>
	</g>
</g>
<g>
	<g>
		<path class="st0" d="M322.9,224.1l-62.2-43.7c-2.9-2-6.4-2-9.4,0l-62.2,43.7c-3.4,2.4-5.5,7.1-5.5,12.4c0,5.2,2.1,9.9,5.5,12.4
			l62.2,43.7c1.5,1.1,3.1,1.5,4.7,1.5s3.2-0.5,4.7-1.5l62.2-43.7c3.4-2.4,5.5-7.1,5.5-12.4C328.4,231.3,326.3,226.5,322.9,224.1z
			 M256,264.5l-40-28l40-28l40,28L256,264.5z"/>
	</g>
</g>
<g>
	<g>
		<path class="st0" d="M414.5,288.4l-62.2-43.7c-2.9-2-6.4-2-9.4,0l-62.2,43.7c-3.4,2.4-5.5,7.1-5.5,12.4s2.1,9.9,5.5,12.4
			l62.2,43.7c1.5,1.1,3.1,1.5,4.7,1.5s3.2-0.5,4.7-1.5l62.2-43.7c3.4-2.4,5.5-7.1,5.5-12.4C420,295.5,417.9,290.7,414.5,288.4z
			 M347.6,328.8l-40-28l40-28l40,28L347.6,328.8z"/>
	</g>
</g>
<g>
	<g>
		<path class="st0" d="M139.3,224.5l-62.2-43.7c-2.9-2-6.4-2-9.4,0L5.5,224.5c-3.4,2.4-5.5,7.1-5.5,12.4c0,5.2,2.1,9.9,5.5,12.4
			l62.2,43.7c1.5,1.1,3.1,1.5,4.7,1.5s3.2-0.5,4.7-1.5l62.2-43.7c3.4-2.4,5.5-7.1,5.5-12.4C144.8,231.6,142.7,226.8,139.3,224.5z
			 M72.4,264.8l-40-28l40-28l40,28L72.4,264.8z"/>
	</g>
</g>
<g>
	<g>
		<path class="st0" d="M230.9,288.7L168.7,245c-2.9-2-6.4-2-9.4,0l-62.2,43.7c-3.4,2.4-5.5,7.1-5.5,12.4c0,5.3,2.1,9.9,5.5,12.4
			l62.2,43.7c1.5,1.1,3.1,1.5,4.7,1.5c1.6,0,3.2-0.5,4.7-1.5l62.2-43.7c3.4-2.4,5.5-7.1,5.5-12.4
			C236.4,295.9,234.3,291.1,230.9,288.7z M164,329.1l-40-28l40-28l40,28L164,329.1z"/>
	</g>
</g>
<g>
	<g>
		<path class="st0" d="M322.5,353.1l-62.2-43.7c-2.9-2-6.4-2-9.4,0l-62.2,43.7c-3.4,2.4-5.5,7.1-5.5,12.4s2.1,9.9,5.5,12.4
			l62.2,43.7c1.5,1.1,3.1,1.5,4.7,1.5s3.2-0.5,4.7-1.5l62.2-43.7c3.4-2.4,5.5-7.1,5.5-12.4S325.8,355.4,322.5,353.1z M255.6,393.3
			l-40-28l40-28l40,28L255.6,393.3z"/>
	</g>
</g>
</svg>
