<?xml version="1.0" encoding="utf-8"?>
<!-- Generator: Adobe Illustrator 21.0.0, SVG Export Plug-In . SVG Version: 6.00 Build 0)  -->
<svg version="1.1" id="Layer_1" xmlns="http://www.w3.org/2000/svg" xmlns:xlink="http://www.w3.org/1999/xlink" x="0px" y="0px"
	 viewBox="0 0 512 512" style="enable-background:new 0 0 512 512;" xml:space="preserve">
<style type="text/css">
	.st0{fill:#ACA340;}
	.st1{fill:#ACA340;stroke:#ACA340;stroke-width:6;stroke-miterlimit:10;}
</style>
<g>
	<g>
		<path class="st0" d="M506.7,414.8L285.4,60.5C279,50.4,268,44.3,256,44.3c-12,0-23,6.1-29.4,16.3L5.3,414.8
			c-6.8,10.8-7.1,24-0.9,35.1s17.5,17.8,30.3,17.8h442.6c12.8,0,24.1-6.7,30.3-17.8C513.8,438.7,513.4,425.6,506.7,414.8z
			 M489.7,440c-2.5,4.6-7.2,7.3-12.4,7.3H34.7c-5.2,0-9.9-2.7-12.4-7.3c-2.5-4.6-2.4-10,0.4-14.4L243.9,71.4
			c2.7-4.3,7.1-6.7,12.1-6.7s9.4,2.4,12.1,6.7l221.3,354.2C492.2,430,492.3,435.4,489.7,440z"/>
	</g>
</g>
<g>
	<g>
		<path class="st0" d="M457.9,416.1h-74.4c-5.6,0-10.2,4.6-10.2,10.2s4.6,10.2,10.2,10.2h74.4c5.6,0,10.2-4.6,10.2-10.2
			C468.1,420.7,463.5,416.1,457.9,416.1z"/>
	</g>
</g>
<g>
	<g>
		<path class="st0" d="M353.9,416.1h-8.2c-5.6,0-10.2,4.6-10.2,10.2s4.6,10.2,10.2,10.2h8.2c5.6,0,10.2-4.6,10.2-10.2
			C364.1,420.7,359.5,416.1,353.9,416.1z"/>
	</g>
</g>
<g>
	<g>
		<path class="st1" d="M339.8,245.2c-0.6-1.6-2.1-2.7-3.8-2.7c0,0,0,0,0,0c-1.7,0-3.3,1.1-3.8,2.7c-0.1,0.2-5.4,15.4-12.4,30.3
			c-12.8,27.3-19,27.9-19.6,27.9c-0.9,0-3.1-2-5-9.1c-12.1-44.4-36.5-109.6-36.7-110.2c-0.5-1.3-1.7-2.3-3.1-2.6
			c-1.4-0.3-2.9,0.3-3.8,1.4c-17.5,20.4-38.7,54.5-49.8,73.1v-17.6c0-1.6-1-3.1-2.5-3.8c-1.5-0.6-3.3-0.3-4.4,0.9
			c-37.1,37.1-52.3,70.7-45.4,100c9.5,40.3,57.2,56.6,59.2,57.3c0.4,0.1,0.9,0.2,1.3,0.2c1.4,0,2.8-0.7,3.5-2c1-1.7,0.6-3.8-0.8-5.1
			c-0.2-0.2-19-17.3-23.2-34.6v0c-2.2-9-2.6-17.9-2.3-24.9c2.3,11,5.5,16.1,10.6,17.1c7.4,1.4,15-6.7,27.9-29.9
			c5.4-9.7,8.3-13.3,9.7-14.7c0.9,2.4,1.9,7.3,2.7,11.2c1.1,5.9,2.4,12.5,4.6,19.1c6.9,20.8,27.2,23.4,40.7,25.1
			c4.1,0.5,8.1,1,10.7,1.9c0.5,0.2,0.9,0.4,1.3,1.3c2.2,5.4-3.1,20.6-7.7,29.7c-0.7,1.5-0.5,3.2,0.6,4.5c1.1,1.2,2.8,1.7,4.4,1.2
			c22.1-7.4,38-20.9,47.4-40.1C361.8,307.8,340.7,247.7,339.8,245.2z M332.6,349.1c-7.1,14.5-18.4,25.4-33.6,32.4
			c3.3-8.4,6.7-20.1,3.8-27.2c-1.2-2.9-3.3-4.9-6.2-5.9c-3.4-1.1-7.7-1.7-12.3-2.3c-13.4-1.7-28.7-3.6-34-19.6
			c-2-6.1-3.3-12.5-4.4-18.1c-2.1-10.5-3.4-17.5-9.1-18.4c-0.4-0.1-0.7-0.1-1.1-0.1c-4.8,0-9.3,5.3-17.3,19.6
			c-14.2,25.6-18.8,25.9-19.3,25.9c-0.1,0-3.3-1.3-5.7-20.4c-0.6-4.9-1.6-8.4-4.7-9.5c-1.7-0.6-3.6-0.3-5,1
			c-5,4.4-7.1,27.2-2.4,46.6c2.1,8.5,7,16.8,12,23.4c-2.1-1.2-4.2-2.5-6.4-4c-11.2-7.6-25.5-20.5-29.8-39.1
			c-5.8-24.5,6.4-53.1,36.3-85.1v22.5c0,1.8,1.2,3.5,3,3.9c1.8,0.5,3.7-0.3,4.6-1.9c0.3-0.5,28.8-50.3,52.1-79.4
			c6.5,17.7,24.3,67.1,34.1,102.9c1,3.7,4,14.8,12.6,15.1c5.1,0.2,13.4-3,27.3-32.6c3.3-7,6.2-14,8.4-19.6
			c1.6,6.1,3.3,14.2,4.6,23.4C342.5,301,343.2,327.3,332.6,349.1z"/>
	</g>
</g>
</svg>
