<?xml version="1.0" encoding="utf-8"?>
<!-- Generator: Adobe Illustrator 21.0.0, SVG Export Plug-In . SVG Version: 6.00 Build 0)  -->
<svg version="1.1" id="Layer_1" xmlns="http://www.w3.org/2000/svg" xmlns:xlink="http://www.w3.org/1999/xlink" x="0px" y="0px"
	 viewBox="0 0 512 512" style="enable-background:new 0 0 512 512;" xml:space="preserve">
<style type="text/css">
	.st0{fill:#ACA340;}
</style>
<g>
	<g>
		<path class="st0" d="M473.1,438.8h-1.9c-5.6,0-10.2,4.6-10.2,10.2s4.6,10.2,10.2,10.2h1.9c5.6,0,10.2-4.6,10.2-10.2
			S478.7,438.8,473.1,438.8z"/>
	</g>
</g>
<g>
	<g>
		<path class="st0" d="M473.1,47.7h-43.2c-3.5-13.2-14.6-23.2-28.3-25.1V10.2C401.5,4.6,397,0,391.3,0h-36.6
			c-5.6,0-10.2,4.6-10.2,10.2v12.5c-7.5,1-14.1,4.4-19.3,9.5c-5.1-5-11.8-8.5-19.3-9.5V10.2c0-5.6-4.6-10.2-10.2-10.2h-36.6
			c-5.6,0-10.2,4.6-10.2,10.2v12.5c-7.4,1-14.1,4.4-19.3,9.5c-5.1-5-11.8-8.5-19.3-9.5V10.2C210.6,4.6,206,0,200.4,0h-36.6
			c-5.6,0-10.2,4.6-10.2,10.2v12.5c-7.5,1-14.1,4.4-19.3,9.5c-5.1-5-11.8-8.5-19.3-9.5V10.2c0-5.6-4.6-10.2-10.2-10.2H68.3
			c-5.6,0-10.2,4.6-10.2,10.2v12.5c-16.6,2.3-29.5,16.5-29.5,33.7v399.2c0,17.2,12.8,31.5,29.5,33.7v12.5c0,5.6,4.6,10.2,10.2,10.2
			h36.6c5.6,0,10.2-4.6,10.2-10.2v-12.5c7.4-1,14.1-4.4,19.3-9.5c5.1,5,11.8,8.5,19.3,9.5v12.5c0,5.6,4.6,10.2,10.2,10.2h36.6
			c5.6,0,10.2-4.6,10.2-10.2v-12.5c7.5-1,14.1-4.4,19.3-9.5c5.1,5,11.8,8.5,19.3,9.5v12.5c0,5.6,4.6,10.2,10.2,10.2h36.6
			c5.6,0,10.2-4.6,10.2-10.2v-12.5c7.5-1,14.1-4.4,19.3-9.5c5.1,5,11.8,8.5,19.3,9.5v12.5c0,5.6,4.6,10.2,10.2,10.2h36.6
			c5.6,0,10.2-4.6,10.2-10.2v-12.5c15.4-2.1,27.6-14.6,29.3-30.1h8.8c5.6,0,10.2-4.6,10.2-10.2s-4.6-10.2-10.2-10.2H431V68.1h42.1
			c5.6,0,10.2-4.6,10.2-10.2C483.3,52.3,478.7,47.7,473.1,47.7z M58.1,468.4c-5.3-1.9-9.1-6.9-9.1-12.9V56.4c0-5.9,3.8-11,9.1-12.9
			V468.4z M94.7,491.6H78.5V20.4h16.2L94.7,491.6L94.7,491.6z M124.2,455.6c0,5.9-3.8,11-9.1,12.9V43.6c5.3,1.9,9.1,6.9,9.1,12.9
			V455.6z M153.6,468.4c-5.3-1.9-9.1-6.9-9.1-12.9V56.4c0-5.9,3.8-11,9.1-12.9V468.4z M190.2,491.6H174V20.4h16.2V491.6z
			 M219.6,455.6c0,5.9-3.8,11-9.1,12.9V43.6c5.3,1.9,9.1,6.9,9.1,12.9V455.6z M249.1,468.4c-5.3-1.9-9.1-6.9-9.1-12.9V56.4
			c0-5.9,3.8-11,9.1-12.9V468.4z M285.7,491.6h-16.2V20.4h16.2V491.6z M315.1,455.6c0,5.9-3.8,11-9.1,12.9V43.6
			c5.3,1.9,9.1,6.9,9.1,12.9V455.6z M344.6,468.4c-5.3-1.9-9.1-6.9-9.1-12.9V56.4c0-5.9,3.8-11,9.1-12.9V468.4z M381.1,491.6H365
			V20.4h16.2V491.6z M410.6,455.6c0,5.9-3.8,11-9.1,12.9V43.6c5.3,1.9,9.1,6.9,9.1,12.9V455.6z"/>
	</g>
</g>
</svg>
