<?xml version="1.0" encoding="utf-8"?>
<!-- Generator: Adobe Illustrator 21.0.0, SVG Export Plug-In . SVG Version: 6.00 Build 0)  -->
<svg version="1.1" id="Layer_1" xmlns="http://www.w3.org/2000/svg" xmlns:xlink="http://www.w3.org/1999/xlink" x="0px" y="0px"
	 viewBox="0 0 74.8 84.5" style="enable-background:new 0 0 74.8 84.5;" xml:space="preserve">
<style type="text/css">
	.st0{fill:#ACA340;}
</style>
<g>
	<path class="st0" d="M37.4,80.6c2.9,0,5.7-1.5,7.3-3.9C54.6,62,66.4,42.3,66.4,31.8c0-16-13-29-29-29s-29,13-29,29
		c0,10.5,11.8,30.2,21.7,44.9C31.7,79.2,34.5,80.6,37.4,80.6z M37.4,6.8c13.8,0,25,11.2,25,25c0,7.3-7.7,22.8-21,42.7
		c-0.9,1.3-2.4,2.1-4,2.1s-3.1-0.8-4-2.1c-13.3-19.9-21-35.4-21-42.7C12.4,18,23.6,6.8,37.4,6.8z"/>
	<path class="st0" d="M47.7,30.8c0-5.7-4.6-10.3-10.3-10.3s-10.3,4.6-10.3,10.3s4.6,10.3,10.3,10.3S47.7,36.4,47.7,30.8z M31.1,30.8
		c0-3.5,2.8-6.3,6.3-6.3s6.3,2.8,6.3,6.3s-2.8,6.3-6.3,6.3S31.1,34.2,31.1,30.8z"/>
</g>
<g id="mgqppO.tif">
	
		<image style="overflow:visible;" width="19" height="19" id="Layer_1_1_" xlink:href="DA5ED3A436956201.png"  transform="matrix(1 0 0 1 -50.1667 10.6667)">
	</image>
</g>
</svg>
