<?xml version="1.0" encoding="utf-8"?>
<!-- Generator: Adobe Illustrator 21.0.0, SVG Export Plug-In . SVG Version: 6.00 Build 0)  -->
<svg version="1.1" id="Layer_1" xmlns="http://www.w3.org/2000/svg" xmlns:xlink="http://www.w3.org/1999/xlink" x="0px" y="0px"
	 viewBox="0 0 71.5 73.3" style="enable-background:new 0 0 71.5 73.3;" xml:space="preserve">
<style type="text/css">
	.st0{fill:#ACA340;}
</style>
<path class="st0" d="M70.2,36.2c0,1.1-0.9,2-2,2s-2-0.9-2-2c0-16.6-13.4-30-30-30c-1.1,0-2-0.9-2-2s0.9-2,2-2
	C54.9,2.2,70.2,17.4,70.2,36.2z M58.2,36.2c0,1.1-0.9,2-2,2s-2-0.9-2-2c0-9.9-8.1-18-18-18c-1.1,0-2-0.9-2-2s0.9-2,2-2
	C48.3,14.2,58.2,24,58.2,36.2z M59.1,61.4l-6.7,6.7c-6,6-25.2-1.9-35.7-12.4C6.2,45.2-1.7,26,4.3,20l6.7-6.7c2-2,5.2-1.8,7,0.4
	L27,24.5c1.7,2.1,1.6,5.2-0.3,7.1l-4.2,4.2c-0.5,0.5-0.7,1.6-0.3,2.3c0.1,0.2,0.2,0.4,0.3,0.6c0.2,0.4,0.6,0.9,0.9,1.5
	c1.1,1.6,2.4,3.2,4,4.8c1.6,1.6,3.2,2.9,4.8,4c0.5,0.4,1,0.7,1.5,0.9c0.2,0.1,0.4,0.2,0.5,0.3c0.8,0.4,1.9,0.3,2.4-0.2l4.2-4.2
	c1.9-1.9,5.1-2,7.1-0.3l10.9,8.9C61,56.2,61.1,59.3,59.1,61.4z M19.5,33.1l4.2-4.2c0.4-0.4,0.5-1.3,0.1-1.8l-8.9-10.9
	c-0.3-0.4-0.7-0.4-1.1-0.1l-6.7,6.7c-3.8,3.8,3.3,21,12.4,30.1c9.1,9.1,26.3,16.1,30.1,12.4l6.7-6.7c0.3-0.3,0.3-0.8-0.1-1.1
	l-10.9-8.9c-0.5-0.4-1.3-0.4-1.8,0.1l-4.2,4.2c-1.8,1.8-4.9,2.2-7.1,1c-0.5-0.3-1.3-0.7-2.4-1.4c-1.8-1.2-3.6-2.7-5.4-4.5
	c-1.8-1.8-3.3-3.6-4.5-5.4c-0.7-1-1.2-1.8-1.4-2.4C17.3,37.9,17.7,34.9,19.5,33.1z"/>
</svg>
