<?xml version="1.0" encoding="utf-8"?>
<!-- Generator: Adobe Illustrator 21.0.0, SVG Export Plug-In . SVG Version: 6.00 Build 0)  -->
<svg version="1.1" id="Layer_1" xmlns="http://www.w3.org/2000/svg" xmlns:xlink="http://www.w3.org/1999/xlink" x="0px" y="0px"
	 viewBox="0 0 56.3 87" style="enable-background:new 0 0 56.3 87;" xml:space="preserve">
<style type="text/css">
	.st0{fill:#ACA340;}
</style>
<title>16</title>
<path class="st0" d="M14,9.8C12.8,8.7,11,8.7,9.8,9.9C8.7,11,8.6,12.8,9.7,14c0,0,0.1,0.1,0.1,0.1L39.9,43L9.8,71.9
	C8.7,73,8.6,74.8,9.7,76c0,0,0.1,0.1,0.1,0.1c0.5,0.6,1.3,0.9,2.1,0.9c0.8,0,1.5-0.3,2.1-0.8l32.4-31c1.2-1.2,1.2-3.2,0-4.4
	c0,0,0,0,0,0L14,9.8z"/>
</svg>
