<?xml version="1.0" encoding="utf-8"?>
<!-- Generator: Adobe Illustrator 21.0.0, SVG Export Plug-In . SVG Version: 6.00 Build 0)  -->
<svg version="1.1" id="Layer_1" xmlns="http://www.w3.org/2000/svg" xmlns:xlink="http://www.w3.org/1999/xlink" x="0px" y="0px"
	 viewBox="0 0 100 125" style="enable-background:new 0 0 100 125;" xml:space="preserve">
<path d="M65,48h-2v-5c0-7.2-5.8-13-13-13s-13,5.8-13,13v5h-2c-1.1,0-2,0.9-2,2v18c0,1.1,0.9,2,2,2h30c1.1,0,2-0.9,2-2V50
	C67,48.9,66.1,48,65,48z M41,43c0-5,4-9,9-9s9,4,9,9v5H41V43z"/>
</svg>
