<?xml version="1.0" encoding="utf-8"?>
<!-- Generator: Adobe Illustrator 21.0.0, SVG Export Plug-In . SVG Version: 6.00 Build 0)  -->
<svg version="1.1" id="Layer_1" xmlns="http://www.w3.org/2000/svg" xmlns:xlink="http://www.w3.org/1999/xlink" x="0px" y="0px"
	 viewBox="0 0 465.9 272.7" style="enable-background:new 0 0 465.9 272.7;" xml:space="preserve">
<style type="text/css">
	.st0{fill:url(#SVGID_1_);}
	.st1{fill:url(#SVGID_2_);}
	.st2{fill:none;stroke:#BAACFC;stroke-width:0.8891;stroke-miterlimit:10;}
	.st3{fill:none;stroke:#BAACFC;stroke-width:0.8149;stroke-miterlimit:10;}
	.st4{fill:none;stroke:#BAACFC;stroke-width:0.7406;stroke-miterlimit:10;}
	.st5{fill:none;stroke:#BAACFC;stroke-width:0.6664;stroke-miterlimit:10;}
	.st6{fill:none;stroke:#BAACFC;stroke-width:0.5922;stroke-miterlimit:10;}
	.st7{fill:none;stroke:#BAACFC;stroke-width:0.518;stroke-miterlimit:10;}
	.st8{fill:none;stroke:#BAACFC;stroke-width:0.4438;stroke-miterlimit:10;}
	.st9{fill:none;stroke:#BAACFC;stroke-width:0.3695;stroke-miterlimit:10;}
	.st10{fill:none;stroke:#BAACFC;stroke-width:0.2953;stroke-miterlimit:10;}
	.st11{fill:none;stroke:#BAACFC;stroke-width:0.2211;stroke-miterlimit:10;}
	.st12{fill:#1D58FF;}
	.st13{fill:#E3E1FF;}
	.st14{fill:#0646B7;}
	.st15{fill:none;stroke:#0646B7;stroke-width:0.9246;stroke-linecap:round;stroke-miterlimit:10;}
	.st16{fill:#BFB6FF;}
	.st17{fill:url(#SVGID_3_);}
	.st18{fill:none;stroke:#FFFFFF;stroke-width:0.8851;stroke-miterlimit:10;}
	.st19{fill:#FFFFFF;}
	.st20{fill:none;stroke:#FFFFFF;stroke-width:0.684;stroke-miterlimit:10;}
	.st21{fill:url(#SVGID_4_);}
	.st22{fill:url(#SVGID_5_);stroke:#FFFFFF;stroke-width:1.2486;stroke-miterlimit:10;}
	.st23{fill:none;stroke:#0646B7;stroke-width:1.2143;stroke-linecap:round;stroke-miterlimit:10;}
	.st24{fill:url(#SVGID_6_);stroke:#FFFFFF;stroke-width:1.2486;stroke-miterlimit:10;}
	.st25{fill:#4F84FC;}
	.st26{fill:url(#SVGID_7_);}
	.st27{fill:url(#SVGID_8_);}
	.st28{fill:url(#SVGID_9_);}
	.st29{fill:url(#SVGID_10_);}
	.st30{fill:url(#SVGID_11_);}
	.st31{fill:url(#SVGID_12_);stroke:#FFFFFF;stroke-width:1.0178;stroke-miterlimit:10;}
	.st32{fill:none;stroke:#FFFFFF;stroke-width:1.2577;stroke-miterlimit:10;}
	.st33{fill:#7544FF;}
	.st34{fill:none;stroke:#FFFFFF;stroke-width:0.9719;stroke-miterlimit:10;}
	.st35{fill:none;stroke:#BAACFC;stroke-width:1.6525;stroke-linecap:round;stroke-miterlimit:10;stroke-dasharray:2.4788,4.1313;}
	.st36{fill:url(#SVGID_13_);}
	.st37{fill:url(#SVGID_14_);}
	.st38{fill:url(#SVGID_15_);}
	.st39{fill:none;stroke:#1D58FF;stroke-miterlimit:10;}
	.st40{fill:url(#SVGID_16_);}
	.st41{fill:url(#SVGID_17_);}
	.st42{fill:url(#SVGID_18_);}
	.st43{fill:url(#SVGID_19_);}
	.st44{fill:url(#SVGID_20_);}
	.st45{fill:url(#SVGID_21_);}
	.st46{fill:url(#SVGID_22_);}
	.st47{fill:url(#SVGID_23_);}
	.st48{fill:url(#SVGID_24_);}
	.st49{fill:url(#SVGID_25_);stroke:#FFFFFF;stroke-miterlimit:10;}
	.st50{fill:url(#SVGID_26_);stroke:#FFFFFF;stroke-miterlimit:10;}
	.st51{fill:none;stroke:#1D58FF;stroke-width:2;stroke-linecap:round;stroke-miterlimit:10;}
	.st52{fill:none;stroke:#1D58FF;stroke-width:2;stroke-linecap:round;stroke-miterlimit:10;stroke-dasharray:3.3117,3.3116;}
	.st53{fill:none;stroke:#1D58FF;stroke-width:2;stroke-linecap:round;stroke-miterlimit:10;stroke-dasharray:3.1807,3.1807;}
	.st54{fill:none;stroke:#1D58FF;stroke-width:2;stroke-linecap:round;stroke-miterlimit:10;stroke-dasharray:3.4713,3.4712;}
	.st55{clip-path:url(#SVGID_29_);fill:none;stroke:#FFFFFF;stroke-miterlimit:10;}
	.st56{clip-path:url(#SVGID_29_);}
	.st57{fill:none;stroke:#FFFFFF;stroke-miterlimit:10;}
	.st58{fill:url(#SVGID_30_);}
	.st59{fill:#9580FF;}
	.st60{fill:url(#SVGID_31_);}
	.st61{fill:url(#SVGID_32_);}
	.st62{fill:url(#SVGID_33_);}
	.st63{fill:url(#SVGID_34_);}
	.st64{fill:url(#SVGID_35_);}
	.st65{fill:#BAACFC;}
</style>
<linearGradient id="SVGID_1_" gradientUnits="userSpaceOnUse" x1="364.5247" y1="258.006" x2="364.5247" y2="196.7937">
	<stop  offset="0.2634" style="stop-color:#7544FF"/>
	<stop  offset="0.8871" style="stop-color:#581DFF"/>
</linearGradient>
<path class="st0" d="M379.8,254.9c0,1.7-1.3,3-3,3h-24.5c-1.7,0-3,0.7-3-1v-57.1c0-1.7,1.3-3,3-3h24.5c1.7,0,3,1.3,3,3V254.9z"/>
<linearGradient id="SVGID_2_" gradientUnits="userSpaceOnUse" x1="368.5469" y1="37.3501" x2="449.7981" y2="37.3501" gradientTransform="matrix(1 -9.400000e-03 9.400000e-03 1 -10.8182 19.2735)">
	<stop  offset="0.2634" style="stop-color:#7544FF"/>
	<stop  offset="0.8871" style="stop-color:#581DFF"/>
</linearGradient>
<path class="st1" d="M359.9,75.2c-2.4,1.4-2.5-46.2-0.1-44.8C357.4,29,398.6,5.2,398.6,8c0-2.8,41.3,21,38.9,22.3
	c2.4-1.4,2.5,46.2,0.1,44.8c2.4,1.4-38.8,25.2-38.8,22.5C398.8,100.4,357.5,76.6,359.9,75.2z"/>
<g>
	<g>
		<g>
			<path class="st2" d="M385.6,60.4c-0.8,0.5-0.8-15.6,0-15.2c-0.8-0.5,13.1-8.5,13.1-7.6c0-0.9,13.9,7.1,13.1,7.6
				c0.8-0.5,0.8,15.6,0,15.2c0.8,0.5-13.1,8.5-13.1,7.6C398.7,68.9,384.8,60.8,385.6,60.4z"/>
		</g>
		<g>
			<path class="st3" d="M398.7,34.6c0-1.1,16.8,8.5,15.8,9.1c1-0.6,1,18.8,0,18.2c1,0.6-15.7,10.3-15.8,9.1c0,1.1-16.8-8.5-15.8-9.1
				c-1,0.6-1-18.8,0-18.2C381.9,43.1,398.7,33.4,398.7,34.6z"/>
		</g>
		<g>
			<path class="st4" d="M398.7,31.5c0-1.3,19.6,9.9,18.4,10.6c1.1-0.7,1.2,21.9,0,21.3c1.1,0.7-18.4,12-18.4,10.7
				c0,1.3-19.6-9.9-18.4-10.6c-1.1,0.7-1.2-21.9,0-21.3C379.1,41.5,398.7,30.2,398.7,31.5z"/>
		</g>
		<g>
			<path class="st5" d="M398.7,28.5c0-1.5,22.4,11.4,21.1,12.1c1.3-0.8,1.3,25.1,0,24.3c1.3,0.8-21,13.7-21,12.2
				c0,1.5-22.4-11.4-21.1-12.1c-1.3,0.8-1.3-25.1,0-24.3C376.3,39.9,398.7,27,398.7,28.5z"/>
		</g>
		<g>
			<path class="st6" d="M398.7,25.4c0-1.7,25.2,12.8,23.7,13.6c1.5-0.8,1.5,28.2,0,27.4c1.5,0.8-23.7,15.4-23.7,13.7
				c0,1.7-25.2-12.8-23.7-13.6c-1.5,0.8-1.5-28.2,0-27.4C373.5,38.3,398.7,23.7,398.7,25.4z"/>
		</g>
		<g>
			<path class="st7" d="M398.7,22.4c0-1.9,28,14.2,26.4,15.2c1.6-0.9,1.7,31.3,0,30.4c1.6,0.9-26.3,17.1-26.3,15.3
				c0,1.9-28-14.2-26.4-15.2c-1.6,0.9-1.7-31.3,0-30.4C370.7,36.7,398.7,20.5,398.7,22.4z"/>
		</g>
		<g>
			<path class="st8" d="M398.7,19.3c0-2.1,30.8,15.6,29,16.7c1.8-1,1.8,34.5,0.1,33.5c1.8,1-28.9,18.9-29,16.8
				c0,2.1-30.8-15.7-29-16.7c-1.8,1-1.8-34.5-0.1-33.5C367.9,35.1,398.6,17.2,398.7,19.3z"/>
		</g>
		<g>
			<path class="st9" d="M398.6,16.3c0-2.3,33.6,17.1,31.7,18.2c2-1.1,2,37.6,0.1,36.5c2,1.1-31.6,20.6-31.6,18.3
				c0,2.3-33.6-17.1-31.7-18.2c-2,1.1-2-37.6-0.1-36.5C365.1,33.4,398.6,14,398.6,16.3z"/>
		</g>
		<g>
			<path class="st10" d="M398.6,13.2c0-2.4,36.4,18.5,34.3,19.7c2.1-1.2,2.2,40.8,0.1,39.6c2.1,1.2-34.2,22.3-34.2,19.8
				c0,2.4-36.4-18.5-34.3-19.7c-2.1,1.2-2.2-40.8-0.1-39.6C362.3,31.8,398.6,10.8,398.6,13.2z"/>
		</g>
		<g>
			<path class="st11" d="M361.8,74.1c-2.3,1.3-2.4-43.9-0.1-42.6c-2.3-1.3,36.9-24,36.9-21.4c0-2.6,39.2,19.9,36.9,21.2
				c2.3-1.3,2.4,43.9,0.1,42.6c2.3,1.3-36.9,24-36.9,21.4C398.8,98,359.5,75.5,361.8,74.1z"/>
		</g>
	</g>
</g>
<g>
	<path class="st12" d="M431,78.4l-9.7,2.2c-2.2,0-3.9,2-3.9,4.4v18.9h40.2V85c0-2.4-1.8-4.4-3.9-4.4l-9.5-2.2"/>
	<g>
		<path class="st13" d="M424.6,63.8c0.1,0,0.3,0,0.4,0c0.1-9.2,5.6-15.4,12.4-15.4c6.8,0,12.3,6.3,12.3,15.5
			c0.2-0.1,0.4-0.2,0.7-0.1c0.9,0.1,1.4,1.8,1.2,3.6c-0.3,1.9-1.3,3.3-2.2,3.1c-0.2,0-0.4-0.1-0.5-0.3C447,76.5,442.6,81,437.3,81
			c-5.2,0-9.6-4.3-11.5-10.5c-0.1,0-0.2,0.1-0.2,0.1c-0.9,0.1-1.9-1.2-2.2-3.1C423.1,65.6,423.6,63.9,424.6,63.8z"/>
		<ellipse class="st14" cx="442.8" cy="66.4" rx="1.1" ry="1.1"/>
		<ellipse class="st14" cx="431.5" cy="66.4" rx="1.1" ry="1.1"/>
		<path class="st15" d="M440.4,74.5c-2,1.7-5.8,1.1-6.7,0.2"/>
		<path class="st16" d="M424.6,63.8c0,0-1.7-8.2,0.3-11.5c1.4-2.4,4.6-2.3,4.6-2.3s12.6-7.7,20.3-0.3c3.1,3,0,14.3,0,14.3l-0.5,2.5
			h-0.8l-0.6-6.1l-21.2-1.8l-0.7,7.9h-0.7l-0.3-2.6"/>
	</g>
</g>
<g>
	<path class="st12" d="M353.6,79.8l-9.7,2.2c-2.2,0-3.9,2-3.9,4.4v18.9h40.2V86.3c0-2.4-1.8-4.4-3.9-4.4l-9.5-2.2"/>
	<g>
		<path class="st13" d="M347.1,65.2c0.1,0,0.3,0,0.4,0c0.1-9.2,5.6-15.4,12.4-15.4c6.8,0,12.3,6.3,12.3,15.5
			c0.2-0.1,0.4-0.2,0.6-0.1c0.9,0.1,1.4,1.8,1.2,3.6c-0.3,1.9-1.3,3.3-2.2,3.1c-0.2,0-0.4-0.1-0.5-0.3c-1.8,6.3-6.3,10.7-11.5,10.7
			c-5.2,0-9.6-4.3-11.5-10.5c-0.1,0-0.2,0.1-0.2,0.1c-0.9,0.1-1.9-1.3-2.2-3.1C345.7,66.9,346.2,65.3,347.1,65.2z"/>
		<ellipse class="st14" cx="365.4" cy="67.8" rx="1.1" ry="1.1"/>
		<circle class="st14" cx="354.1" cy="67.8" r="1.1"/>
		<path class="st15" d="M363,75.9c-2,1.7-5.8,1.1-6.7,0.2"/>
		<path class="st16" d="M347.1,65.2c0,0-1.7-8.2,0.3-11.5c1.4-2.4,4.6-2.3,4.6-2.3s12.6-7.7,20.3-0.3c3.1,3,0,14.3,0,14.3l-0.5,2.5
			H371l-0.6-6.1l-21.2-1.8l-0.7,7.9h-0.7l-0.3-2.6"/>
	</g>
</g>
<g>
	<linearGradient id="SVGID_3_" gradientUnits="userSpaceOnUse" x1="174.3821" y1="58.7222" x2="215.6507" y2="58.7222">
		<stop  offset="0.3548" style="stop-color:#4F84FC"/>
		<stop  offset="0.5375" style="stop-color:#467CFD"/>
		<stop  offset="0.8364" style="stop-color:#2D66FE"/>
		<stop  offset="1" style="stop-color:#1D58FF"/>
	</linearGradient>
	<path class="st17" d="M215.7,81.5c0,2-1.6,3.6-3.6,3.6H178c-2,0-3.6-1.6-3.6-3.6V36c0-2,1.6-3.6,3.6-3.6h34.1c2,0,3.6,1.6,3.6,3.6
		V81.5z"/>
	<line class="st18" x1="173.7" y1="41.6" x2="214.4" y2="41.6"/>
	<line class="st18" x1="214.4" y1="73.7" x2="173.7" y2="73.7"/>
	<path class="st12" d="M192.4,80.5c0,0.6-0.5,1.2-1.2,1.2h-10.1c-0.6,0-1.2-0.5-1.2-1.2V80c0-0.6,0.5-1.2,1.2-1.2h10.1
		c0.6,0,1.2,0.5,1.2,1.2V80.5z"/>
	<path class="st12" d="M208.3,80.5c0,0.6-0.5,1.2-1.2,1.2H197c-0.6,0-1.2-0.5-1.2-1.2V80c0-0.6,0.5-1.2,1.2-1.2h10.1
		c0.6,0,1.2,0.5,1.2,1.2V80.5z"/>
	<path class="st19" d="M210.7,36.2c0,0.7-0.5,1.2-1.2,1.2c-0.7,0-1.2-0.5-1.2-1.2c0-0.7,0.5-1.2,1.2-1.2
		C210.2,35,210.7,35.5,210.7,36.2"/>
	<path class="st19" d="M205.2,36.2c0,0.7-0.5,1.2-1.2,1.2c-0.7,0-1.2-0.5-1.2-1.2c0-0.7,0.5-1.2,1.2-1.2
		C204.7,35,205.2,35.5,205.2,36.2"/>
	<path class="st19" d="M199.8,36.2c0,0.7-0.5,1.2-1.2,1.2c-0.7,0-1.2-0.5-1.2-1.2c0-0.7,0.5-1.2,1.2-1.2
		C199.3,35,199.8,35.5,199.8,36.2"/>
	<line class="st20" x1="195.5" y1="62.5" x2="210.1" y2="62.5"/>
	<line class="st20" x1="195.5" y1="68.9" x2="210.1" y2="68.9"/>
	<rect x="178.2" y="45.5" class="st12" width="32" height="12.9"/>
	<rect x="178.2" y="61.4" class="st12" width="12.6" height="8.3"/>
</g>
<g>
	<linearGradient id="SVGID_4_" gradientUnits="userSpaceOnUse" x1="246.8641" y1="58.7222" x2="288.1331" y2="58.7222">
		<stop  offset="0.3548" style="stop-color:#4F84FC"/>
		<stop  offset="0.5375" style="stop-color:#467CFD"/>
		<stop  offset="0.8364" style="stop-color:#2D66FE"/>
		<stop  offset="1" style="stop-color:#1D58FF"/>
	</linearGradient>
	<path class="st21" d="M288.1,81.5c0,2-1.6,3.6-3.6,3.6h-34.1c-2,0-3.6-1.6-3.6-3.6V36c0-2,1.6-3.6,3.6-3.6h34.1
		c2,0,3.6,1.6,3.6,3.6V81.5z"/>
	<line class="st18" x1="247.7" y1="41.6" x2="288.5" y2="41.6"/>
	<line class="st18" x1="288.5" y1="73.7" x2="247.7" y2="73.7"/>
	<path class="st12" d="M266.5,80.5c0,0.6-0.5,1.2-1.2,1.2h-10.1c-0.6,0-1.2-0.5-1.2-1.2V80c0-0.6,0.5-1.2,1.2-1.2h10.1
		c0.6,0,1.2,0.5,1.2,1.2V80.5z"/>
	<path class="st12" d="M282.4,80.5c0,0.6-0.5,1.2-1.2,1.2h-10.1c-0.6,0-1.2-0.5-1.2-1.2V80c0-0.6,0.5-1.2,1.2-1.2h10.1
		c0.6,0,1.2,0.5,1.2,1.2V80.5z"/>
	<path class="st19" d="M284.8,36.2c0,0.7-0.5,1.2-1.2,1.2c-0.7,0-1.2-0.5-1.2-1.2c0-0.7,0.5-1.2,1.2-1.2
		C284.3,35,284.8,35.5,284.8,36.2"/>
	<path class="st19" d="M279.3,36.2c0,0.7-0.5,1.2-1.2,1.2c-0.7,0-1.2-0.5-1.2-1.2c0-0.7,0.5-1.2,1.2-1.2
		C278.8,35,279.3,35.5,279.3,36.2"/>
	<path class="st19" d="M273.9,36.2c0,0.7-0.5,1.2-1.2,1.2c-0.7,0-1.2-0.5-1.2-1.2c0-0.7,0.5-1.2,1.2-1.2
		C273.4,35,273.9,35.5,273.9,36.2"/>
	<line class="st20" x1="269.5" y1="62.5" x2="284.2" y2="62.5"/>
	<line class="st20" x1="269.5" y1="68.9" x2="284.2" y2="68.9"/>
	<rect x="252.2" y="45.5" class="st12" width="32" height="12.9"/>
	<rect x="252.2" y="61.4" class="st12" width="12.6" height="8.3"/>
</g>
<linearGradient id="SVGID_5_" gradientUnits="userSpaceOnUse" x1="398.6966" y1="113.7493" x2="398.6966" y2="79.8138">
	<stop  offset="0" style="stop-color:#4F84FC"/>
	<stop  offset="0.1461" style="stop-color:#467CFD"/>
	<stop  offset="0.3852" style="stop-color:#2D66FE"/>
	<stop  offset="0.5161" style="stop-color:#1D58FF"/>
</linearGradient>
<path class="st22" d="M390.2,80.4l-12.8,2.8c-2.8,0-5.2,2.6-5.2,5.7v24.9h52.8V88.9c0-3.2-2.3-5.7-5.2-5.7l-14.3-3.3"/>
<g>
	<path class="st19" d="M381.7,61.1c0.2,0,0.4,0,0.5,0c0.2-12,7.4-20.3,16.3-20.3c8.9,0,16.1,8.3,16.2,20.4c0.3-0.2,0.6-0.2,0.9-0.2
		c1.2,0.2,1.9,2.3,1.5,4.8c-0.4,2.5-1.6,4.3-2.9,4.1c-0.2,0-0.5-0.2-0.7-0.3c-2.4,8.2-8.2,14-15.1,14c-6.8,0-12.6-5.7-15-13.8
		c-0.1,0-0.2,0.1-0.3,0.1c-1.2,0.2-2.5-1.6-2.9-4.1C379.9,63.4,380.5,61.2,381.7,61.1z"/>
	<ellipse class="st14" cx="405.6" cy="64.5" rx="1.5" ry="1.5"/>
	<circle class="st14" cx="390.8" cy="64.5" r="1.5"/>
	<path class="st23" d="M402.5,75.2c-2.6,2.2-7.6,1.4-8.8,0.2"/>
	<linearGradient id="SVGID_6_" gradientUnits="userSpaceOnUse" x1="380.8329" y1="51.3995" x2="416.5782" y2="51.3995">
		<stop  offset="0" style="stop-color:#4F84FC"/>
		<stop  offset="0.1461" style="stop-color:#467CFD"/>
		<stop  offset="0.3852" style="stop-color:#2D66FE"/>
		<stop  offset="0.5161" style="stop-color:#1D58FF"/>
	</linearGradient>
	<path class="st24" d="M381.7,61.1c0,0-2.3-10.8,0.4-15.2c1.9-3.2,6-3,6-3s16.5-10.1,26.6-0.4c4.1,4,0,18.8,0,18.8l-0.6,3.3h-1
		l-0.8-8l-27.8-2.3l-0.9,10.3h-0.9l-0.4-3.4"/>
</g>
<g>
	<g>
		<ellipse class="st25" cx="358.1" cy="249.2" rx="1.9" ry="1.9"/>
		<circle class="st25" cx="358.1" cy="240.2" r="1.9"/>
		<circle class="st25" cx="358.1" cy="231.2" r="1.9"/>
		<circle class="st25" cx="358.1" cy="222.2" r="1.9"/>
		<circle class="st25" cx="358.1" cy="213.2" r="1.9"/>
		<ellipse class="st25" cx="358.1" cy="204.2" rx="1.9" ry="1.9"/>
	</g>
	<g>
		<circle class="st25" cx="368.3" cy="249.2" r="1.9"/>
		<circle class="st25" cx="368.3" cy="240.2" r="1.9"/>
		<circle class="st25" cx="368.3" cy="231.2" r="1.9"/>
		<circle class="st25" cx="368.3" cy="222.2" r="1.9"/>
		<circle class="st25" cx="368.3" cy="213.2" r="1.9"/>
		<circle class="st25" cx="368.3" cy="204.2" r="1.9"/>
	</g>
</g>
<linearGradient id="SVGID_7_" gradientUnits="userSpaceOnUse" x1="441.9661" y1="258.006" x2="441.9661" y2="196.7937" gradientTransform="matrix(-1 0 0 1 875.0456 0)">
	<stop  offset="0.2634" style="stop-color:#7544FF"/>
	<stop  offset="0.8871" style="stop-color:#581DFF"/>
</linearGradient>
<path class="st26" d="M417.8,254.9c0,1.7,1.3,3,3,3h24.5c1.7,0,3,0.7,3-1v-57.1c0-1.7-1.3-3-3-3h-24.5c-1.7,0-3,1.3-3,3V254.9z"/>
<g>
	<g>
		<ellipse class="st25" cx="439.5" cy="249.2" rx="1.9" ry="1.9"/>
		<circle class="st25" cx="439.5" cy="240.2" r="1.9"/>
		<circle class="st25" cx="439.5" cy="231.2" r="1.9"/>
		<circle class="st25" cx="439.5" cy="222.2" r="1.9"/>
		<circle class="st25" cx="439.5" cy="213.2" r="1.9"/>
		<ellipse class="st25" cx="439.5" cy="204.2" rx="1.9" ry="1.9"/>
	</g>
	<g>
		<circle class="st25" cx="429.3" cy="249.2" r="1.9"/>
		<circle class="st25" cx="429.3" cy="240.2" r="1.9"/>
		<circle class="st25" cx="429.3" cy="231.2" r="1.9"/>
		<circle class="st25" cx="429.3" cy="222.2" r="1.9"/>
		<circle class="st25" cx="429.3" cy="213.2" r="1.9"/>
		<circle class="st25" cx="429.3" cy="204.2" r="1.9"/>
	</g>
</g>
<linearGradient id="SVGID_8_" gradientUnits="userSpaceOnUse" x1="376.8743" y1="218.6094" x2="420.7845" y2="218.6094">
	<stop  offset="0" style="stop-color:#1D58FF"/>
	<stop  offset="0.1636" style="stop-color:#2D66FE"/>
	<stop  offset="0.4625" style="stop-color:#467CFD"/>
	<stop  offset="0.6452" style="stop-color:#4F84FC"/>
</linearGradient>
<rect x="376.9" y="179.7" class="st27" width="43.9" height="77.7"/>
<polyline class="st19" points="393.3,257.5 393.3,241.3 404.4,241.3 404.4,257.5 "/>
<g>
	<rect x="383.3" y="188.5" class="st19" width="7" height="8.8"/>
	<rect x="395.3" y="188.5" class="st19" width="7" height="8.8"/>
	<rect x="407.3" y="188.5" class="st19" width="7" height="8.8"/>
	<rect x="383.3" y="205.5" class="st19" width="7" height="8.8"/>
	<rect x="395.3" y="205.5" class="st19" width="7" height="8.8"/>
	<rect x="407.3" y="205.5" class="st19" width="7" height="8.8"/>
	<rect x="383.3" y="222.5" class="st19" width="7" height="8.8"/>
	<rect x="395.3" y="222.5" class="st19" width="7" height="8.8"/>
	<rect x="407.3" y="222.5" class="st19" width="7" height="8.8"/>
</g>
<polygon class="st12" points="390.4,170.2 398.8,155.7 407.2,170.2 "/>
<rect x="344.9" y="257.5" class="st12" width="108.1" height="3.8"/>
<linearGradient id="SVGID_9_" gradientUnits="userSpaceOnUse" x1="428.6292" y1="172.8104" x2="455.72" y2="172.8104">
	<stop  offset="0" style="stop-color:#AEE2FA"/>
	<stop  offset="0.1085" style="stop-color:#A3D7FA"/>
	<stop  offset="0.712" style="stop-color:#669BFC"/>
	<stop  offset="1" style="stop-color:#4F84FC"/>
</linearGradient>
<path class="st28" d="M450.1,169.4c-1,0-2,0.3-2.8,0.8c-0.8-3-3.5-5.3-6.7-5.3c-3.8,0-6.9,3.1-7,6.9c-0.1,0-0.3,0-0.4,0
	c-2.5,0-4.5,2-4.5,4.5c0,2.5,2,4.5,4.5,4.5c1.8,0,14.6,0,17,0c3.1,0,5.7-2.5,5.7-5.7C455.7,171.9,453.2,169.4,450.1,169.4z"/>
<linearGradient id="SVGID_10_" gradientUnits="userSpaceOnUse" x1="341.6917" y1="179.6141" x2="362.0862" y2="179.6141">
	<stop  offset="0" style="stop-color:#AEE2FA"/>
	<stop  offset="0.1085" style="stop-color:#A3D7FA"/>
	<stop  offset="0.712" style="stop-color:#669BFC"/>
	<stop  offset="1" style="stop-color:#4F84FC"/>
</linearGradient>
<path class="st29" d="M357.8,177c-0.8,0-1.5,0.2-2.1,0.6c-0.6-2.3-2.6-4-5.1-4c-2.9,0-5.2,2.3-5.2,5.2c-0.1,0-0.2,0-0.3,0
	c-1.9,0-3.4,1.5-3.4,3.4s1.5,3.4,3.4,3.4c1.4,0,11,0,12.8,0c2.4,0,4.3-1.9,4.3-4.3C362.1,178.9,360.2,177,357.8,177z"/>
<linearGradient id="SVGID_11_" gradientUnits="userSpaceOnUse" x1="366.2669" y1="155.532" x2="382.9134" y2="155.532">
	<stop  offset="0" style="stop-color:#AEE2FA"/>
	<stop  offset="0.1085" style="stop-color:#A3D7FA"/>
	<stop  offset="0.712" style="stop-color:#669BFC"/>
	<stop  offset="1" style="stop-color:#4F84FC"/>
</linearGradient>
<path class="st30" d="M379.4,153.4c-0.6,0-1.2,0.2-1.7,0.5c-0.5-1.9-2.1-3.2-4.1-3.2c-2.4,0-4.3,1.9-4.3,4.3c-0.1,0-0.2,0-0.3,0
	c-1.5,0-2.7,1.2-2.7,2.7c0,1.5,1.2,2.7,2.7,2.7c1.1,0,9,0,10.4,0c1.9,0,3.5-1.6,3.5-3.5C382.9,155,381.4,153.4,379.4,153.4z"/>
<linearGradient id="SVGID_12_" gradientUnits="userSpaceOnUse" x1="202.3074" y1="59.555" x2="259.6761" y2="59.555">
	<stop  offset="0" style="stop-color:#1D58FF"/>
	<stop  offset="0.1636" style="stop-color:#2D66FE"/>
	<stop  offset="0.4625" style="stop-color:#467CFD"/>
	<stop  offset="0.6452" style="stop-color:#4F84FC"/>
</linearGradient>
<path class="st31" d="M259.7,92.3c0,2.9-2.2,5.2-5,5.2h-47.4c-2.8,0-5-2.3-5-5.2V26.8c0-2.9,2.2-5.2,5-5.2h47.4c2.8,0,5,2.3,5,5.2
	V92.3z"/>
<line class="st32" x1="201.9" y1="34.6" x2="259.7" y2="34.6"/>
<line class="st32" x1="259.7" y1="80.1" x2="201.9" y2="80.1"/>
<path class="st33" d="M228.5,89.8c0,0.9-0.7,1.7-1.7,1.7h-14.4c-0.9,0-1.7-0.7-1.7-1.7v-0.6c0-0.9,0.7-1.7,1.7-1.7h14.4
	c0.9,0,1.7,0.7,1.7,1.7V89.8z"/>
<path class="st33" d="M251.2,89.8c0,0.9-0.8,1.7-1.7,1.7h-14.4c-0.9,0-1.7-0.7-1.7-1.7v-0.6c0-0.9,0.7-1.7,1.7-1.7h14.4
	c0.9,0,1.7,0.7,1.7,1.7V89.8z"/>
<path class="st19" d="M254.5,27.9c0,1-0.8,1.7-1.7,1.7c-0.9,0-1.7-0.8-1.7-1.7c0-1,0.8-1.7,1.7-1.7
	C253.8,26.1,254.5,26.9,254.5,27.9"/>
<path class="st19" d="M246.7,27.9c0,1-0.8,1.7-1.7,1.7c-0.9,0-1.7-0.8-1.7-1.7c0-1,0.8-1.7,1.7-1.7C246,26.1,246.7,26.9,246.7,27.9"
	/>
<path class="st19" d="M239.1,27.9c0,1-0.8,1.7-1.7,1.7c-0.9,0-1.7-0.8-1.7-1.7c0-1,0.8-1.7,1.7-1.7
	C238.3,26.1,239.1,26.9,239.1,27.9"/>
<line class="st34" x1="232.9" y1="64.3" x2="253.7" y2="64.3"/>
<line class="st34" x1="232.9" y1="73.3" x2="253.7" y2="73.3"/>
<rect x="208.3" y="40.1" class="st19" width="45.4" height="18.3"/>
<rect x="208.3" y="62.6" class="st16" width="17.9" height="11.7"/>
<path class="st12" d="M417.8,176.8c0,1.1-0.9,2-2,2h-33.4c-1.1,0-2-0.9-2-2v-4.5c0-1.1,0.9-2,2-2h33.4c1.1,0,2,0.9,2,2V176.8z"/>
<path class="st35" d="M277.1,207.8c-5.5-4.8-12.4-6.9-18.6-6.3"/>
<path class="st35" d="M225,175.4c2.4-6.5,1.8-13.6-2.3-19"/>
<path class="st35" d="M257.7,186.8c-6.1,0-12,2.1-16.8,5.7"/>
<path class="st35" d="M264.4,164.4c-19.5,2.2-26.5,13.5-31.9,23.5"/>
<linearGradient id="SVGID_13_" gradientUnits="userSpaceOnUse" x1="191.0279" y1="222.6735" x2="228.8079" y2="222.6735">
	<stop  offset="0.1667" style="stop-color:#1D58FF"/>
	<stop  offset="0.3358" style="stop-color:#2D66FE"/>
	<stop  offset="0.6446" style="stop-color:#467CFD"/>
	<stop  offset="0.8333" style="stop-color:#4F84FC"/>
</linearGradient>
<path class="st36" d="M210.7,246.6l18.1-68.4c0,0-17.2,12.4-23.1,29.1c-4.4,12.5,1.1,23.7,1.1,23.7l-3.4,12.7
	c-3.2-0.1-6.4,1-8.9,3.4c-4.6,4.6-4.6,12.1,0,16.7c4.6,4.6,12.1,4.6,16.7,0c4.6-4.6,4.6-12.1,0-16.7
	C211.1,246.9,210.9,246.7,210.7,246.6z M208,260.8c-2.9,2.9-7.5,2.9-10.4,0c-2.9-2.9-2.9-7.5,0-10.4c2.9-2.9,7.5-2.9,10.4,0
	C210.9,253.3,210.9,258,208,260.8z"/>
<linearGradient id="SVGID_14_" gradientUnits="userSpaceOnUse" x1="176.086" y1="205.7754" x2="276.27" y2="205.7754">
	<stop  offset="0.2634" style="stop-color:#7544FF"/>
	<stop  offset="0.8871" style="stop-color:#581DFF"/>
</linearGradient>
<path class="st37" d="M258.1,255.3c-0.5,0-0.4-0.1-0.6-0.6c-14.6-39.2-67.1-40.5-81.3-80c-0.1-0.2-0.1-0.4,0-0.6
	c0.1-0.1,0.2-0.3,0.5-0.4c3.2-1.3,6.4-2.6,9.6-4c2.5-4.3,4.6-8.8,7.5-13c0.5-0.7,1-0.4,1.1,0c14.5,39.2,66.9,40.5,81.3,79.9
	c0.1,0.3,0.2,0.5,0.1,0.8c-0.1,0.3-0.3,0.4-0.5,0.5c-3.6,1.7-7.2,3.4-10.8,5.2c-2,3.7-3.4,6.3-5.4,10.2
	C259.2,253.8,258.5,255.3,258.1,255.3z"/>
<g>
	<linearGradient id="SVGID_15_" gradientUnits="userSpaceOnUse" x1="162.4793" y1="220.3821" x2="253.8382" y2="220.3821">
		<stop  offset="0.1667" style="stop-color:#1D58FF"/>
		<stop  offset="0.3358" style="stop-color:#2D66FE"/>
		<stop  offset="0.6446" style="stop-color:#467CFD"/>
		<stop  offset="0.8333" style="stop-color:#4F84FC"/>
	</linearGradient>
	<path class="st38" d="M174.8,239.7c-3.3,0-6.4-1.3-8.7-3.6c-2.3-2.3-3.6-5.4-3.6-8.7c0-3.3,1.3-6.4,3.6-8.7
		c2.3-2.3,5.4-3.6,8.7-3.6c3.3,0,6.4,1.3,8.7,3.6c0.2,0.2,0.5,0.5,0.8,0.9l69.5-18.4l-0.8,1.1c-0.1,0.2-12.7,17.4-29.3,23.3
		c-3.3,1.2-6.8,1.8-10.4,1.8c-7.2,0-12.5-2.3-13.5-2.8l-12.7,3.4c-0.1,3.1-1.4,6-3.6,8.1C181.2,238.4,178.1,239.7,174.8,239.7z
		 M174.7,220.8c-1.8,0-3.5,0.7-4.8,2c-1.3,1.3-2,3-2,4.8c0,1.8,0.7,3.5,2,4.8c1.3,1.3,3,2,4.8,2c1.8,0,3.5-0.7,4.8-2
		c2.7-2.7,2.7-7,0-9.7C178.3,221.5,176.6,220.8,174.7,220.8z"/>
	<path class="st19" d="M252.6,201.9c0,0-12.4,17.2-29.1,23.1c-3.6,1.3-7.1,1.7-10.2,1.7c-7.8,0-13.5-2.8-13.5-2.8l-13.2,3.6
		c0,3-1.2,5.9-3.5,8.2c-2.3,2.3-5.3,3.5-8.4,3.5c-3,0-6.1-1.2-8.4-3.5c-4.6-4.6-4.6-12.1,0-16.7c2.3-2.3,5.3-3.5,8.4-3.5
		c3,0,6.1,1.2,8.4,3.5c0.3,0.3,0.6,0.7,0.9,1.1L252.6,201.9 M174.7,234.9c1.9,0,3.8-0.7,5.2-2.1c2.9-2.9,2.9-7.5,0-10.4
		c-1.4-1.4-3.3-2.1-5.2-2.1c-1.9,0-3.8,0.7-5.2,2.1c-2.9,2.9-2.9,7.5,0,10.4C171,234.2,172.9,234.9,174.7,234.9 M255.1,200.3
		l-2.7,0.7l-67.9,17.9c-0.2-0.2-0.4-0.4-0.6-0.6c-2.4-2.4-5.6-3.8-9.1-3.8c-3.4,0-6.6,1.3-9.1,3.8c-5,5-5,13.1,0,18.1
		c2.4,2.4,5.6,3.8,9.1,3.8c3.4,0,6.6-1.3,9.1-3.8c2.2-2.2,3.5-5,3.7-8.1l12.2-3.3c1.4,0.6,6.6,2.7,13.6,2.7c3.7,0,7.2-0.6,10.6-1.8
		c16.8-5.9,29-22.8,29.5-23.5L255.1,200.3L255.1,200.3z M174.7,233.9c-1.7,0-3.3-0.7-4.5-1.9c-1.2-1.2-1.9-2.8-1.9-4.5
		c0-1.7,0.7-3.3,1.9-4.5c1.2-1.2,2.8-1.9,4.5-1.9c1.7,0,3.3,0.7,4.5,1.9c2.5,2.5,2.5,6.5,0,9C178,233.3,176.4,233.9,174.7,233.9
		L174.7,233.9z"/>
</g>
<g>
	<circle class="st39" cx="62.9" cy="214.7" r="49.9"/>
	<g>
		
			<linearGradient id="SVGID_16_" gradientUnits="userSpaceOnUse" x1="1474.7473" y1="-1488.3522" x2="1480.5032" y2="-1494.1079" gradientTransform="matrix(0.7071 -0.7071 0.7071 0.7071 71.5589 2264.0615)">
			<stop  offset="0.1398" style="stop-color:#9580FF"/>
			<stop  offset="0.8763" style="stop-color:#7544FF"/>
		</linearGradient>
		<circle class="st40" cx="61.9" cy="164.8" r="4.1"/>
		
			<linearGradient id="SVGID_17_" gradientUnits="userSpaceOnUse" x1="1864.0443" y1="3876.3442" x2="1869.8003" y2="3870.5881" gradientTransform="matrix(0 1 -1 0 3935.405 -1602.1852)">
			<stop  offset="0.1398" style="stop-color:#9580FF"/>
			<stop  offset="0.8763" style="stop-color:#7544FF"/>
		</linearGradient>
		<circle class="st41" cx="61.9" cy="264.7" r="4.1"/>
	</g>
	<g>
		
			<linearGradient id="SVGID_18_" gradientUnits="userSpaceOnUse" x1="222.2543" y1="2347.9102" x2="228.0099" y2="2342.1545" gradientTransform="matrix(0.7071 0.7071 -0.7071 0.7071 1611.8376 -1602.6195)">
			<stop  offset="0.1398" style="stop-color:#9580FF"/>
			<stop  offset="0.8763" style="stop-color:#7544FF"/>
		</linearGradient>
		<circle class="st42" cx="112.9" cy="214.7" r="4.1"/>
		
			<linearGradient id="SVGID_19_" gradientUnits="userSpaceOnUse" x1="5470.5591" y1="2068.7998" x2="5476.3145" y2="2063.0442" gradientTransform="matrix(-1 0 0 -1 5486.3384 2280.6646)">
			<stop  offset="0.1398" style="stop-color:#9580FF"/>
			<stop  offset="0.8763" style="stop-color:#7544FF"/>
		</linearGradient>
		<circle class="st43" cx="12.9" cy="214.7" r="4.1"/>
	</g>
	<g>
		<linearGradient id="SVGID_20_" gradientUnits="userSpaceOnUse" x1="94.4964" y1="178.3573" x2="100.0569" y2="178.3573">
			<stop  offset="0" style="stop-color:#1D58FF"/>
			<stop  offset="0.1636" style="stop-color:#2D66FE"/>
			<stop  offset="0.4625" style="stop-color:#467CFD"/>
			<stop  offset="0.6452" style="stop-color:#4F84FC"/>
		</linearGradient>
		<circle class="st44" cx="97.3" cy="178.4" r="2.8"/>
		<linearGradient id="SVGID_21_" gradientUnits="userSpaceOnUse" x1="23.8194" y1="249.0345" x2="29.3792" y2="249.0345">
			<stop  offset="0" style="stop-color:#1D58FF"/>
			<stop  offset="0.1636" style="stop-color:#2D66FE"/>
			<stop  offset="0.4625" style="stop-color:#467CFD"/>
			<stop  offset="0.6452" style="stop-color:#4F84FC"/>
		</linearGradient>
		<circle class="st45" cx="26.6" cy="249" r="2.8"/>
	</g>
	<g>
		<linearGradient id="SVGID_22_" gradientUnits="userSpaceOnUse" x1="95.4378" y1="250.0789" x2="100.9993" y2="250.0789">
			<stop  offset="0" style="stop-color:#1D58FF"/>
			<stop  offset="0.1636" style="stop-color:#2D66FE"/>
			<stop  offset="0.4625" style="stop-color:#467CFD"/>
			<stop  offset="0.6452" style="stop-color:#4F84FC"/>
		</linearGradient>
		<circle class="st46" cx="98.2" cy="250.1" r="2.8"/>
		<linearGradient id="SVGID_23_" gradientUnits="userSpaceOnUse" x1="24.7618" y1="179.4003" x2="30.3214" y2="179.4003">
			<stop  offset="0" style="stop-color:#1D58FF"/>
			<stop  offset="0.1636" style="stop-color:#2D66FE"/>
			<stop  offset="0.4625" style="stop-color:#467CFD"/>
			<stop  offset="0.6452" style="stop-color:#4F84FC"/>
		</linearGradient>
		<circle class="st47" cx="27.5" cy="179.4" r="2.8"/>
	</g>
</g>
<linearGradient id="SVGID_24_" gradientUnits="userSpaceOnUse" x1="28.0984" y1="22.0702" x2="93.0732" y2="69.2772">
	<stop  offset="0.1398" style="stop-color:#9580FF"/>
	<stop  offset="0.8763" style="stop-color:#7544FF"/>
</linearGradient>
<ellipse class="st48" cx="60.6" cy="45.7" rx="40.2" ry="40.2"/>
<linearGradient id="SVGID_25_" gradientUnits="userSpaceOnUse" x1="41.3333" y1="47.6434" x2="79.7317" y2="47.6434">
	<stop  offset="0" style="stop-color:#1D58FF"/>
	<stop  offset="0.2536" style="stop-color:#2D66FE"/>
	<stop  offset="0.7169" style="stop-color:#467CFD"/>
	<stop  offset="1" style="stop-color:#4F84FC"/>
</linearGradient>
<path class="st49" d="M60.5,27.7c-10.6,0-19.2,7.7-19.2,17.2c0,4.7,2.2,9.1,5.6,12.2l-4,10.6l9.4-7.2c2.5,1,5.2,1.6,8.2,1.6
	c10.6,0,19.2-7.7,19.2-17.2C79.7,35.4,71.1,27.7,60.5,27.7z"/>
<path class="st19" d="M68.1,40.7c1.5,4.3-7.5,10.9-7.5,10.9S51,45,53.1,40.7c2.4-5,7.5-0.3,7.5-0.3S66.3,35.5,68.1,40.7z"/>
<path class="st12" d="M28.8,109.1c3.1,1.6,7.9,0,10.7-3.9c0,0-3.9-2.6-5.2-3.5c-1.3-0.9-5.3-3.4-5.3-3.4c-0.8,1-1.7,2.5-2,3.9
	c-5.6-2.1-13.3-9.6-14.4-15c1.1-0.4,2.5-1,3.6-1.8c0,0-2.3-4.2-3.1-5.5c-0.8-1.4-3.1-5.4-3.1-5.4c-3.9,2.5-5.6,5.6-4.5,10.2
	c0.1,0,1,6,9,14.9C20.6,106.6,28.8,109.1,28.8,109.1z"/>
<linearGradient id="SVGID_26_" gradientUnits="userSpaceOnUse" x1="78.7269" y1="85.825" x2="124.6614" y2="85.825">
	<stop  offset="0" style="stop-color:#1D58FF"/>
	<stop  offset="0.2536" style="stop-color:#2D66FE"/>
	<stop  offset="0.7169" style="stop-color:#467CFD"/>
	<stop  offset="1" style="stop-color:#4F84FC"/>
</linearGradient>
<path class="st50" d="M112.3,61.5H91.1c-6.8,0-12.4,5.5-12.4,12.4v14c0,6.8,5.5,12.4,12.4,12.4h11.5l9.9,9.9v-9.9
	c6.7-0.2,12.1-5.6,12.1-12.4v-14C124.7,67,119.1,61.5,112.3,61.5z"/>
<path class="st19" d="M101.9,68.6c0.9-0.4,0.6,3.3,1.4,4.5c1.2,1.8,1.9,1.9,3.2,2.9c0.6,0.4,0.7,1.2,1.9,2h5.7v8.7h-5.8
	c-1.2,1.9-3.2,2.6-6.6,2.6h-8.2c0.5,0-0.7,0-0.8-1.4c0-0.8,0.5-1.4,1.1-1.4h1.5c-0.1-0.2-0.2-0.2-0.3-0.4h-2.5
	c-0.6,0-1.1-0.6-1.1-1.4c0-0.8,0.5-1.6,1.1-1.6h1.7c0-0.2-0.1-0.1-0.1-0.3h-2.6c-0.6,0-1.3-0.5-1.3-1.4c0-1.1,0.7-1.6,1.3-1.6h2.5
	c0-0.2,0-0.1,0.1-0.3h-2.6c-0.6,0-1.1-0.8-1.1-1.6c0-0.8,0.4-1.6,1.6-1.7c1.4-0.2,6.3,0.1,8.8,0l-0.5-2.1
	C99.5,71.1,100.4,69.3,101.9,68.6z"/>
<g>
	<g>
		<g>
			<path class="st51" d="M24.7,74.4c0.6,0,1.1,0,1.7,0.1"/>
			<path class="st52" d="M29.6,75.1c5.9,1.8,10.4,6.7,11.7,12.9"/>
			<path class="st51" d="M41.5,89.6c0.1,0.6,0.1,1.1,0.1,1.7"/>
		</g>
	</g>
	<g>
		<g>
			<path class="st51" d="M23.8,79.9c0.6,0,1.1,0,1.7,0.1"/>
			<path class="st53" d="M28.5,80.9c3.5,1.4,6.1,4.4,7.1,8.1"/>
			<path class="st51" d="M36,90.5c0.1,0.5,0.1,1.1,0.1,1.7"/>
		</g>
	</g>
	<g>
		<g>
			<path class="st51" d="M25.9,68c0.6,0,1.1,0,1.7,0.1"/>
			<path class="st54" d="M31,68.6c8.6,2,15.3,9.2,16.7,18"/>
			<path class="st51" d="M47.9,88.4c0,0.6,0.1,1.1,0.1,1.7"/>
		</g>
	</g>
</g>
<g>
	<defs>
		<circle id="SVGID_27_" cx="62.4" cy="214.9" r="42.8"/>
	</defs>
	<linearGradient id="SVGID_28_" gradientUnits="userSpaceOnUse" x1="32.127" y1="245.19" x2="92.6232" y2="184.6938">
		<stop  offset="0.3333" style="stop-color:#1D58FF"/>
		<stop  offset="0.4355" style="stop-color:#3E6BFF"/>
		<stop  offset="0.6264" style="stop-color:#758BFF"/>
		<stop  offset="0.791" style="stop-color:#9DA2FF"/>
		<stop  offset="0.9209" style="stop-color:#B6B1FF"/>
		<stop  offset="1" style="stop-color:#BFB6FF"/>
	</linearGradient>
	<use xlink:href="#SVGID_27_"  style="overflow:visible;fill:url(#SVGID_28_);"/>
	<clipPath id="SVGID_29_">
		<use xlink:href="#SVGID_27_"  style="overflow:visible;"/>
	</clipPath>
	<ellipse class="st55" cx="61.9" cy="153" rx="53" ry="41"/>
	<ellipse class="st55" cx="62.9" cy="276.9" rx="53" ry="41"/>
	<g class="st56">
		<ellipse class="st57" cx="86.3" cy="214.9" rx="41" ry="53"/>
		<ellipse class="st57" cx="73.7" cy="214.9" rx="42" ry="44.2"/>
		<ellipse class="st57" cx="38.5" cy="214.9" rx="41" ry="53"/>
		<ellipse class="st57" cx="51.1" cy="214.9" rx="42" ry="44.2"/>
		<line class="st57" x1="62.4" y1="165.4" x2="62.4" y2="264"/>
	</g>
	<line class="st55" x1="15.4" y1="214.9" x2="114.1" y2="214.9"/>
	<use xlink:href="#SVGID_27_"  style="overflow:visible;fill:none;stroke:#FFFFFF;stroke-miterlimit:10;"/>
</g>
<g>
	<linearGradient id="SVGID_30_" gradientUnits="userSpaceOnUse" x1="73.1629" y1="211.1712" x2="73.1629" y2="190.3323">
		<stop  offset="0.2634" style="stop-color:#7544FF"/>
		<stop  offset="0.8871" style="stop-color:#581DFF"/>
	</linearGradient>
	<path class="st58" d="M66.2,197.3c0-3.8,3.1-6.9,6.9-6.9c3.8,0,6.9,3.1,6.9,6.9c0,3.8-6.9,13.9-6.9,13.9S66.2,201.1,66.2,197.3z"/>
	<circle class="st59" cx="73.2" cy="197.2" r="3.5"/>
</g>
<g>
	<linearGradient id="SVGID_31_" gradientUnits="userSpaceOnUse" x1="48.5946" y1="237.1097" x2="48.5946" y2="220.553">
		<stop  offset="0.2634" style="stop-color:#7544FF"/>
		<stop  offset="0.8871" style="stop-color:#581DFF"/>
	</linearGradient>
	<path class="st60" d="M43.1,226.1c0-3,2.5-5.5,5.5-5.5c3,0,5.5,2.5,5.5,5.5c0,3-5.5,11-5.5,11S43.1,229.1,43.1,226.1z"/>
	<circle class="st59" cx="48.6" cy="226" r="2.8"/>
</g>
<g>
	<linearGradient id="SVGID_32_" gradientUnits="userSpaceOnUse" x1="95.3817" y1="234.2884" x2="95.3817" y2="226.011">
		<stop  offset="0.2634" style="stop-color:#7544FF"/>
		<stop  offset="0.8871" style="stop-color:#581DFF"/>
	</linearGradient>
	<path class="st61" d="M92.6,228.8c0-1.5,1.2-2.8,2.8-2.8c1.5,0,2.8,1.2,2.8,2.8c0,1.5-2.8,5.5-2.8,5.5S92.6,230.3,92.6,228.8z"/>
	<circle class="st59" cx="95.4" cy="228.7" r="1.4"/>
</g>
<g>
	<linearGradient id="SVGID_33_" gradientUnits="userSpaceOnUse" x1="78.7274" y1="187.5774" x2="78.7274" y2="179.3001">
		<stop  offset="0.2634" style="stop-color:#7544FF"/>
		<stop  offset="0.8871" style="stop-color:#581DFF"/>
	</linearGradient>
	<path class="st62" d="M76,182.1c0-1.5,1.2-2.8,2.8-2.8c1.5,0,2.8,1.2,2.8,2.8c0,1.5-2.8,5.5-2.8,5.5S76,183.6,76,182.1z"/>
	<circle class="st59" cx="78.7" cy="182" r="1.4"/>
</g>
<g>
	<linearGradient id="SVGID_34_" gradientUnits="userSpaceOnUse" x1="32.6424" y1="203.3802" x2="32.6424" y2="191.8177">
		<stop  offset="0.2634" style="stop-color:#7544FF"/>
		<stop  offset="0.8871" style="stop-color:#581DFF"/>
	</linearGradient>
	<path class="st63" d="M28.8,195.7c0-2.1,1.7-3.9,3.9-3.9c2.1,0,3.9,1.7,3.9,3.9c0,2.1-3.9,7.7-3.9,7.7S28.8,197.8,28.8,195.7z"/>
	<circle class="st59" cx="32.6" cy="195.6" r="1.9"/>
</g>
<g>
	<circle class="st19" cx="61.9" cy="214.9" r="2.5"/>
</g>
<g>
	<circle class="st19" cx="61.9" cy="194.2" r="2.5"/>
</g>
<g>
	<circle class="st19" cx="31.2" cy="214.9" r="2.5"/>
</g>
<g>
	<circle class="st19" cx="48.6" cy="192.5" r="2.5"/>
</g>
<g>
	<circle class="st19" cx="85.1" cy="239.6" r="2.5"/>
</g>
<g>
	<circle class="st19" cx="75.6" cy="237.1" r="2.5"/>
</g>
<g>
	<circle class="st19" cx="38.7" cy="239.6" r="2.5"/>
</g>
<g>
	<circle class="st19" cx="85.1" cy="189.4" r="2.5"/>
</g>
<g>
	<circle class="st19" cx="61.9" cy="235.9" r="2.5"/>
</g>
<g>
	<circle class="st19" cx="92.5" cy="214.9" r="2.5"/>
</g>
<g>
	<linearGradient id="SVGID_35_" gradientUnits="userSpaceOnUse" x1="92.5247" y1="214.5237" x2="92.5247" y2="201.803">
		<stop  offset="0.2634" style="stop-color:#7544FF"/>
		<stop  offset="0.8871" style="stop-color:#581DFF"/>
	</linearGradient>
	<path class="st64" d="M88.3,206c0-2.3,1.9-4.2,4.2-4.2c2.3,0,4.2,1.9,4.2,4.2c0,2.3-4.2,8.5-4.2,8.5S88.3,208.4,88.3,206z"/>
	<circle class="st59" cx="92.5" cy="206" r="2.1"/>
</g>
<path class="st12" d="M240.8,209l-38.1,10.4c-0.2-0.2,7.3,5.6,17.9,3C230.6,220,240.8,209,240.8,209z"/>
<ellipse transform="matrix(0.7071 -0.7071 0.7071 0.7071 -93.7407 213.1659)" class="st19" cx="210.4" cy="219.7" rx="2.2" ry="2.2"/>
<polygon class="st65" points="222.8,148.7 222.7,152.4 225.7,154.7 222.1,155.7 220.9,159.3 218.8,156.2 215.1,156.2 217.4,153.2 
	216.2,149.6 219.8,150.9 "/>
<polygon class="st65" points="231.1,256.5 234.4,254.7 234.7,250.9 237.5,253.5 241.1,252.7 239.5,256.1 241.4,259.4 237.7,258.9 
	235.2,261.7 234.5,258 "/>
<polygon class="st65" points="267.4,182.4 268.3,185.4 271.2,186.4 268.6,188.1 268.6,191.1 266.2,189.2 263.2,190.1 264.3,187.3 
	262.6,184.8 265.6,184.9 "/>
<polygon class="st65" points="276.8,213 278.9,213.3 280.3,211.7 280.7,213.8 282.6,214.7 280.7,215.7 280.5,217.8 279,216.3 
	276.9,216.8 277.8,214.9 "/>
<polygon class="st65" points="269.3,159.8 273.8,161.5 277.7,158.7 277.6,163.5 281.4,166.3 276.8,167.6 275.3,172.2 272.6,168.2 
	267.8,168.2 270.8,164.4 "/>
</svg>
