<?xml version="1.0" encoding="utf-8"?>
<!-- Generator: Adobe Illustrator 21.0.0, SVG Export Plug-In . SVG Version: 6.00 Build 0)  -->
<svg version="1.1" id="Layer_1" xmlns="http://www.w3.org/2000/svg" xmlns:xlink="http://www.w3.org/1999/xlink" x="0px" y="0px"
	 viewBox="0 0 208.7 36" style="enable-background:new 0 0 208.7 36;" xml:space="preserve">
<style type="text/css">
	.st0{fill:#FFFFFF;}
</style>
<g>
	<g transform="translate(-116 -1328)">
		<path id="q5cja" class="st0" d="M181.9,1335.7c0.1-0.5-0.3-0.9-0.7-0.9c-0.5-0.1-0.9,0.3-0.9,0.7c0,0.1,0,0.1,0,0.2
			c-0.1,0.5,0.3,0.9,0.7,0.9c0.5,0.1,0.9-0.3,0.9-0.7C181.9,1335.9,181.9,1335.8,181.9,1335.7z M190.6,1335.7
			c0.1-0.5-0.3-0.9-0.7-0.9c-0.5-0.1-0.9,0.3-0.9,0.7c0,0.1,0,0.1,0,0.2c-0.1,0.5,0.3,0.9,0.7,0.9c0.5,0.1,0.9-0.3,0.9-0.7
			C190.6,1335.9,190.6,1335.8,190.6,1335.7z M194.9,1340.7v13.8c0,1.3-1,2.3-2.3,2.3c0,0,0,0,0,0h-1.2v4.7c0,1.2-1,2.1-2.1,2.1
			c-1.2,0-2.1-0.9-2.1-2.1c0,0,0,0,0,0v-4.7h-3.3v4.7c0,1.2-1,2.1-2.1,2.1c-1.2,0-2.1-0.9-2.1-2.1l0,0v-4.7h-1.3
			c-1.3,0-2.3-1-2.3-2.3l0,0v-13.8H194.9z M175.9,1339.9c0.1-3.3,2.1-6.3,5.1-7.7l-1.4-2.6c-0.1-0.1,0-0.3,0.1-0.4c0,0,0,0,0,0
			c0.1-0.1,0.3,0,0.4,0.1c0,0,0,0,0,0l1.5,2.6c2.5-1,5.3-1,7.8,0l1.5-2.7c0.1-0.1,0.3-0.2,0.4-0.1s0.2,0.3,0.1,0.4l0,0l-1.5,2.6
			c3,1.4,4.9,4.4,5,7.7L175.9,1339.9z M197.7,1340.4c1.2,0,2.1,0.9,2.1,2.1v8.8c0,1.2-1,2.1-2.1,2.1c-1.2,0-2.1-0.9-2.1-2.1l0,0
			v-8.8C195.6,1341.3,196.5,1340.4,197.7,1340.4z M173.1,1340.4c1.2,0,2.1,0.9,2.1,2.1v8.8c0,1.2-1,2.1-2.1,2.1
			c-1.2,0-2.1-0.9-2.1-2.1l0,0v-8.8C171,1341.3,171.9,1340.4,173.1,1340.4z M134.3,1333.7c-1.1,1.4-3,2.5-4.9,2.3
			c-0.2-1.9,0.7-3.9,1.8-5.1c1.2-1.4,3-2.3,4.9-2.5C136.1,1330.4,135.5,1332.3,134.3,1333.7z M134.3,1333.7
			C134.3,1333.7,135.4,1332.3,134.3,1333.7z M138.4,1346c0.1,5,4.4,6.7,4.4,6.7c0,0.1-0.7,2.4-2.3,4.7c-1.4,2-2.8,4-5.1,4.1
			c-2.2,0-2.9-1.3-5.4-1.3c-2.5,0-3.3,1.3-5.4,1.4c-2.2,0.1-3.8-2.2-5.2-4.2c-2.8-4.1-5-11.6-2.1-16.6c1.4-2.5,4-4.1,6.8-4.1
			c2.1,0,4.1,1.4,5.4,1.4c1.3,0,3.7-1.8,6.3-1.5c1.1,0,4.1,0.4,6,3.3C141.8,1339.8,138.4,1341.8,138.4,1346
			C138.5,1350.2,138.4,1346,138.4,1346L138.4,1346z M255.5,1346.8v12.9l-14.7-2.1l0-10.8L255.5,1346.8z M240.8,1334.5l14.7-2.2v12.9
			l-14.7,0.1V1334.5z M239.5,1346.6v10.7l-11.2-1.5v-9.2L239.5,1346.6z M228.2,1336.2l11.2-1.5v10.7l-11.2,0.1L228.2,1336.2z"/>
	</g>
</g>
<g>
	<g transform="translate(-268 -1328)">
		<g>
			<path id="aelma" class="st0" d="M473.5,1331.4l-29.1,28.9l-1.6-1.6l5.3-5.2l-0.7-0.7c1.2-1.2,2.6-2.2,4.2-2.8l5-5
				c-4.6-0.1-9,1.6-12.2,4.8l-2.9-2.9c4.9-4.9,12-7.1,18.8-5.7l3.4-3.4c-8.9-2.8-18.5-0.5-25.1,6.1l-2.9-2.9
				c8.2-8.2,20.5-10.7,31.3-6.4l4.9-4.9L473.5,1331.4z M459.1,1358.7l-2.9,2.9l-2.9-2.9C454.8,1357.1,457.4,1357,459.1,1358.7
				C459.1,1358.6,459.1,1358.6,459.1,1358.7L459.1,1358.7z M458.7,1349.5c2.3,0.4,4.5,1.6,6.3,3.4l-2.9,2.9c-2-2-4.8-2.8-7.4-2.3
				L458.7,1349.5z M465.2,1343c2.1,1,4,2.3,5.7,4l-2.9,2.9c-1.7-1.7-3.7-3-5.9-3.8L465.2,1343z M476.7,1341.1l-2.9,2.9
				c-1.6-1.6-3.5-3-5.5-4.2l3-3C473.2,1338.1,475.1,1339.5,476.7,1341.1z"/>
		</g>
	</g>
</g>
</svg>
