<svg id="Layer_1" data-name="Layer 1" xmlns="http://www.w3.org/2000/svg" viewBox="0 0 253.87 182.88"><defs><style>.cls-1,.cls-10,.cls-11,.cls-14,.cls-4,.cls-9{fill:none;}.cls-1{stroke:#259e38;stroke-width:0.95px;stroke-dasharray:2.15 2.15;}.cls-1,.cls-10,.cls-11,.cls-6,.cls-9{stroke-miterlimit:10;}.cls-2{fill:#fff;}.cls-3{fill:#95c11f;}.cls-14,.cls-4{stroke:#2b2523;stroke-linecap:round;stroke-linejoin:round;}.cls-4{stroke-width:0.46px;}.cls-5{fill:#e94b33;}.cls-6{fill:#b2b2b2;stroke:#1d1d1b;stroke-width:0.23px;}.cls-7{fill:#706f6f;}.cls-8{fill:#1d1d1b;}.cls-9{stroke:#3aaa35;}.cls-10,.cls-9{stroke-width:2.51px;}.cls-10{stroke:#e30613;}.cls-11{stroke:#cdcbcb;stroke-width:0.72px;}.cls-12{fill:#13110c;}.cls-13{fill:#2e427c;}.cls-14{stroke-width:0.78px;}.cls-15{fill:#e3ebf8;}</style></defs><title>main-image-1</title><path class="cls-1" d="M234.2,168.68c0,2.72-1.73,4.93-3.86,4.93H41.79c-2.13,0-3.86-2.21-3.86-4.93V26.3c0-2.72,1.73-4.93,3.86-4.93H230.35c2.13,0,3.86,2.21,3.86,4.93Z"/><rect class="cls-2" x="15.4" y="9.27" width="43.79" height="42.28"/><path class="cls-3" d="M102.3,46.06h-2.2a.94.94,0,0,0-.89,1v4.55h9.09V47a.94.94,0,0,0-.89-1h-2.16"/><path class="cls-4" d="M102.3,46.06h-2.2a.94.94,0,0,0-.89,1v4.55h9.09V47a.94.94,0,0,0-.89-1h-2.16"/><path class="cls-2" d="M103.73,40.58h.11a2.28,2.28,0,0,1,2.28,2.28v1.42a2.27,2.27,0,0,1-2.27,2.27h-.12a2.28,2.28,0,0,1-2.28-2.28V42.86A2.28,2.28,0,0,1,103.73,40.58Z"/><path class="cls-4" d="M103.73,40.58h.11a2.28,2.28,0,0,1,2.28,2.28v1.42a2.27,2.27,0,0,1-2.27,2.27h-.12a2.28,2.28,0,0,1-2.28-2.28V42.86A2.28,2.28,0,0,1,103.73,40.58Z"/><line class="cls-5" x1="101.45" y1="42.86" x2="105.89" y2="41.88"/><line class="cls-4" x1="101.45" y1="42.86" x2="105.89" y2="41.88"/><rect class="cls-6" x="94.09" y="53.24" width="19.34" height="11.58"/><rect class="cls-2" x="96.41" y="54.87" width="14.71" height="3.65"/><rect class="cls-2" x="96.41" y="59.5" width="14.71" height="3.65"/><path class="cls-7" d="M100.56,55.93h.22v1.53h.73v.19h-1Z"/><path class="cls-7" d="M103.13,56.77a.81.81,0,0,1-.8.9.79.79,0,0,1-.77-.87.81.81,0,0,1,.8-.9A.78.78,0,0,1,103.13,56.77Zm-1.34,0c0,.37.2.7.55.7s.55-.32.55-.71-.18-.7-.55-.7S101.8,56.42,101.8,56.79Z"/><path class="cls-7" d="M104.73,57.57a1.56,1.56,0,0,1-.53.09.81.81,0,0,1-.88-.87.86.86,0,0,1,.93-.89,1.05,1.05,0,0,1,.43.08l-.06.18a.86.86,0,0,0-.38-.07.64.64,0,0,0-.69.69.63.63,0,0,0,.66.69.71.71,0,0,0,.3,0v-.51h-.35v-.18h.57Z"/><path class="cls-7" d="M105.29,55.93v1.72h-.22V55.93Z"/><path class="cls-7" d="M105.67,57.65V55.93h.25l.55.87a5,5,0,0,1,.31.56h0c0-.23,0-.44,0-.71v-.72H107v1.72h-.23l-.54-.87a5.08,5.08,0,0,1-.32-.57h0c0,.22,0,.42,0,.71v.73Z"/><path class="cls-7" d="M97.86,60.46a2.59,2.59,0,0,1,.42,0,.7.7,0,0,1,.48.14.47.47,0,0,1,.15.36.5.5,0,0,1-.13.37.71.71,0,0,1-.52.19l-.18,0v.69h-.22Zm.22.83.18,0c.27,0,.43-.13.43-.36s-.16-.34-.41-.34l-.21,0Z"/><path class="cls-7" d="M99.28,61.62l-.18.54h-.23l.58-1.72h.27l.59,1.72h-.24l-.18-.54Zm.56-.17-.17-.5c0-.11-.06-.21-.09-.31h0c0,.1-.05.21-.09.31l-.17.5Z"/><path class="cls-7" d="M100.53,61.89a.77.77,0,0,0,.4.11c.23,0,.36-.12.36-.29s-.09-.25-.32-.34-.45-.25-.45-.49a.49.49,0,0,1,.55-.46.77.77,0,0,1,.38.08l-.06.18a.62.62,0,0,0-.32-.08c-.23,0-.32.14-.32.26s.1.24.34.33.44.25.44.5-.19.5-.6.5a.89.89,0,0,1-.44-.11Z"/><path class="cls-7" d="M101.79,61.89a.76.76,0,0,0,.39.11c.23,0,.36-.12.36-.29s-.09-.25-.32-.34-.45-.25-.45-.49a.49.49,0,0,1,.56-.46.77.77,0,0,1,.38.08l-.06.18a.62.62,0,0,0-.32-.08c-.24,0-.32.14-.32.26s.1.24.34.33.44.25.44.5-.19.5-.6.5a.88.88,0,0,1-.44-.11Z"/><path class="cls-7" d="M103.35,62.16l-.44-1.72h.23l.2.87c.05.21.1.43.13.59h0c0-.17.08-.37.14-.6l.23-.87h.23l.21.87c0,.2.09.41.12.59h0c0-.19.08-.38.14-.59l.23-.87H105l-.49,1.72h-.23l-.22-.89a5.2,5.2,0,0,1-.11-.56h0a4.64,4.64,0,0,1-.13.56l-.24.89Z"/><path class="cls-7" d="M106.7,61.28a.81.81,0,0,1-.8.9.79.79,0,0,1-.77-.87.81.81,0,0,1,.8-.9A.78.78,0,0,1,106.7,61.28Zm-1.33,0c0,.37.2.7.55.7s.55-.32.55-.71-.18-.7-.55-.7S105.36,60.94,105.36,61.31Z"/><path class="cls-7" d="M107,60.47a2.57,2.57,0,0,1,.43,0,.71.71,0,0,1,.5.14.44.44,0,0,1,.13.33.45.45,0,0,1-.32.44h0a.43.43,0,0,1,.25.35,2.59,2.59,0,0,0,.13.47h-.23a2.18,2.18,0,0,1-.11-.41c-.05-.24-.14-.33-.35-.34h-.21v.74H107Zm.22.78h.23c.24,0,.39-.13.39-.33s-.16-.32-.39-.32l-.22,0Z"/><path class="cls-7" d="M108.35,60.47a2.9,2.9,0,0,1,.47,0,1,1,0,0,1,.7.21.78.78,0,0,1,.25.62.92.92,0,0,1-.25.67,1.07,1.07,0,0,1-.76.25l-.4,0Zm.22,1.52h.23a.66.66,0,0,0,.73-.73.61.61,0,0,0-.7-.66l-.26,0Z"/><path class="cls-3" d="M135.07,46.06h-2.2a.94.94,0,0,0-.89,1v4.55h9.09V47a.94.94,0,0,0-.89-1H138"/><path class="cls-4" d="M135.07,46.06h-2.2a.94.94,0,0,0-.89,1v4.55h9.09V47a.94.94,0,0,0-.89-1H138"/><path class="cls-2" d="M136.5,40.58h.11a2.28,2.28,0,0,1,2.28,2.28v1.42a2.27,2.27,0,0,1-2.27,2.27h-.11a2.28,2.28,0,0,1-2.28-2.28V42.86A2.28,2.28,0,0,1,136.5,40.58Z"/><path class="cls-4" d="M136.5,40.58h.11a2.28,2.28,0,0,1,2.28,2.28v1.42a2.27,2.27,0,0,1-2.27,2.27h-.11a2.28,2.28,0,0,1-2.28-2.28V42.86A2.28,2.28,0,0,1,136.5,40.58Z"/><line class="cls-5" x1="134.22" y1="42.86" x2="138.66" y2="41.88"/><line class="cls-4" x1="134.22" y1="42.86" x2="138.66" y2="41.88"/><rect class="cls-6" x="126.87" y="53.24" width="19.34" height="11.58"/><rect class="cls-2" x="129.18" y="54.87" width="14.71" height="3.65"/><rect class="cls-2" x="129.18" y="59.5" width="14.71" height="3.65"/><path class="cls-7" d="M133.33,55.93h.22v1.53h.73v.19h-1Z"/><path class="cls-7" d="M135.9,56.77a.81.81,0,0,1-.8.9.79.79,0,0,1-.77-.87.81.81,0,0,1,.79-.9A.78.78,0,0,1,135.9,56.77Zm-1.34,0c0,.37.2.7.55.7s.55-.32.55-.71-.18-.7-.55-.7S134.57,56.42,134.57,56.79Z"/><path class="cls-7" d="M137.5,57.57a1.57,1.57,0,0,1-.53.09.81.81,0,0,1-.88-.87.86.86,0,0,1,.93-.89,1,1,0,0,1,.43.08l-.06.18a.86.86,0,0,0-.38-.07.64.64,0,0,0-.69.69.63.63,0,0,0,.66.69.7.7,0,0,0,.3,0v-.51h-.35v-.18h.57Z"/><path class="cls-7" d="M138.06,55.93v1.72h-.22V55.93Z"/><path class="cls-7" d="M138.44,57.65V55.93h.25l.55.87a5.3,5.3,0,0,1,.31.56h0c0-.23,0-.44,0-.71v-.72h.21v1.72h-.22l-.54-.87a4.9,4.9,0,0,1-.32-.57h0c0,.22,0,.42,0,.71v.73Z"/><path class="cls-7" d="M130.63,60.46a2.6,2.6,0,0,1,.43,0,.7.7,0,0,1,.48.14.47.47,0,0,1,.15.36.51.51,0,0,1-.13.37.72.72,0,0,1-.53.19l-.18,0v.69h-.22Zm.22.83.18,0c.27,0,.43-.13.43-.36s-.16-.34-.4-.34l-.21,0Z"/><path class="cls-7" d="M132.05,61.62l-.18.54h-.23l.59-1.72h.27l.58,1.72h-.24l-.18-.54Zm.56-.17-.17-.5c0-.11-.06-.21-.09-.31h0c0,.1-.05.21-.09.31l-.17.5Z"/><path class="cls-7" d="M133.31,61.89a.76.76,0,0,0,.4.11c.23,0,.36-.12.36-.29s-.09-.25-.32-.34-.45-.25-.45-.49a.49.49,0,0,1,.55-.46.77.77,0,0,1,.38.08l-.06.18a.62.62,0,0,0-.32-.08c-.23,0-.32.14-.32.26s.1.24.34.33.44.25.44.5-.19.5-.6.5a.88.88,0,0,1-.44-.11Z"/><path class="cls-7" d="M134.56,61.89A.76.76,0,0,0,135,62c.23,0,.36-.12.36-.29s-.09-.25-.32-.34-.45-.25-.45-.49a.49.49,0,0,1,.55-.46.78.78,0,0,1,.38.08l-.06.18a.62.62,0,0,0-.32-.08c-.24,0-.32.14-.32.26s.1.24.34.33.44.25.44.5-.19.5-.6.5a.88.88,0,0,1-.44-.11Z"/><path class="cls-7" d="M136.12,62.16l-.44-1.72h.24l.2.87c.05.21.1.43.13.59h0c0-.17.08-.37.14-.6l.23-.87h.23l.21.87c0,.2.09.41.12.59h0c0-.19.08-.38.14-.59l.23-.87h.23l-.49,1.72h-.23l-.22-.89a5.2,5.2,0,0,1-.11-.56h0a5.07,5.07,0,0,1-.13.56l-.25.89Z"/><path class="cls-7" d="M139.47,61.28a.81.81,0,0,1-.8.9.79.79,0,0,1-.77-.87.81.81,0,0,1,.8-.9A.78.78,0,0,1,139.47,61.28Zm-1.33,0c0,.37.2.7.55.7s.55-.32.55-.71-.18-.7-.55-.7S138.13,60.94,138.13,61.31Z"/><path class="cls-7" d="M139.76,60.47a2.56,2.56,0,0,1,.43,0,.71.71,0,0,1,.5.14.44.44,0,0,1,.13.33.45.45,0,0,1-.32.44h0a.43.43,0,0,1,.25.35,2.68,2.68,0,0,0,.13.47h-.23a2.19,2.19,0,0,1-.11-.41c-.05-.24-.14-.33-.35-.34H140v.74h-.22Zm.22.78h.23c.24,0,.39-.13.39-.33s-.16-.32-.39-.32l-.22,0Z"/><path class="cls-7" d="M141.13,60.47a2.91,2.91,0,0,1,.47,0,1,1,0,0,1,.69.21.78.78,0,0,1,.25.62.93.93,0,0,1-.25.67,1.08,1.08,0,0,1-.76.25l-.4,0Zm.22,1.52h.22a.66.66,0,0,0,.73-.73.61.61,0,0,0-.7-.66l-.26,0Z"/><path class="cls-3" d="M168.93,46.06h-2.2a.94.94,0,0,0-.89,1v4.55h9.09V47a.94.94,0,0,0-.89-1h-2.16"/><path class="cls-4" d="M168.93,46.06h-2.2a.94.94,0,0,0-.89,1v4.55h9.09V47a.94.94,0,0,0-.89-1h-2.16"/><path class="cls-2" d="M170.35,40.58h.11a2.28,2.28,0,0,1,2.28,2.28v1.42a2.27,2.27,0,0,1-2.27,2.27h-.11a2.28,2.28,0,0,1-2.28-2.28V42.86A2.28,2.28,0,0,1,170.35,40.58Z"/><path class="cls-4" d="M170.35,40.58h.11a2.28,2.28,0,0,1,2.28,2.28v1.42a2.27,2.27,0,0,1-2.27,2.27h-.11a2.28,2.28,0,0,1-2.28-2.28V42.86A2.28,2.28,0,0,1,170.35,40.58Z"/><line class="cls-5" x1="168.08" y1="42.86" x2="172.52" y2="41.88"/><line class="cls-4" x1="168.08" y1="42.86" x2="172.52" y2="41.88"/><rect class="cls-6" x="160.72" y="53.24" width="19.34" height="11.58"/><rect class="cls-2" x="163.03" y="54.87" width="14.7" height="3.65"/><rect class="cls-2" x="163.03" y="59.5" width="14.7" height="3.65"/><path class="cls-7" d="M167.18,55.93h.22v1.53h.73v.19h-1Z"/><path class="cls-7" d="M169.76,56.77a.81.81,0,0,1-.8.9.79.79,0,0,1-.77-.87.81.81,0,0,1,.79-.9A.78.78,0,0,1,169.76,56.77Zm-1.33,0c0,.37.2.7.55.7s.55-.32.55-.71-.18-.7-.55-.7S168.42,56.42,168.42,56.79Z"/><path class="cls-7" d="M171.35,57.57a1.55,1.55,0,0,1-.53.09.81.81,0,0,1-.88-.87.86.86,0,0,1,.93-.89,1,1,0,0,1,.43.08l-.06.18a.86.86,0,0,0-.38-.07.64.64,0,0,0-.69.69.63.63,0,0,0,.66.69.7.7,0,0,0,.3,0v-.51h-.35v-.18h.57Z"/><path class="cls-7" d="M171.91,55.93v1.72h-.22V55.93Z"/><path class="cls-7" d="M172.3,57.65V55.93h.24l.55.87a5.28,5.28,0,0,1,.31.56h0c0-.23,0-.44,0-.71v-.72h.21v1.72h-.22l-.55-.87a4.91,4.91,0,0,1-.32-.57h0c0,.22,0,.42,0,.71v.73Z"/><path class="cls-7" d="M164.49,60.46a2.58,2.58,0,0,1,.43,0,.7.7,0,0,1,.48.14.47.47,0,0,1,.15.36.51.51,0,0,1-.13.37.72.72,0,0,1-.53.19l-.18,0v.69h-.22Zm.22.83.18,0c.27,0,.43-.13.43-.36s-.16-.34-.4-.34l-.21,0Z"/><path class="cls-7" d="M165.91,61.62l-.18.54h-.23l.59-1.72h.26l.59,1.72h-.24l-.18-.54Zm.56-.17-.17-.5c0-.11-.06-.21-.09-.31h0c0,.1,0,.21-.09.31l-.17.5Z"/><path class="cls-7" d="M167.16,61.89a.76.76,0,0,0,.4.11c.23,0,.36-.12.36-.29s-.09-.25-.32-.34-.45-.25-.45-.49a.49.49,0,0,1,.55-.46.77.77,0,0,1,.38.08l-.06.18a.62.62,0,0,0-.32-.08c-.23,0-.32.14-.32.26s.1.24.34.33.44.25.44.5-.19.5-.6.5a.88.88,0,0,1-.44-.11Z"/><path class="cls-7" d="M168.41,61.89a.76.76,0,0,0,.39.11c.23,0,.36-.12.36-.29s-.09-.25-.32-.34-.45-.25-.45-.49a.49.49,0,0,1,.55-.46.77.77,0,0,1,.38.08l-.06.18a.63.63,0,0,0-.32-.08c-.24,0-.32.14-.32.26s.1.24.34.33.44.25.44.5-.19.5-.6.5a.89.89,0,0,1-.44-.11Z"/><path class="cls-7" d="M170,62.16l-.44-1.72h.24l.2.87c.05.21.1.43.13.59h0c0-.17.08-.37.14-.6l.23-.87h.23l.21.87c0,.2.09.41.12.59h0c0-.19.08-.38.14-.59l.23-.87h.23l-.49,1.72h-.23l-.22-.89a5.2,5.2,0,0,1-.11-.56h0a4.86,4.86,0,0,1-.13.56l-.24.89Z"/><path class="cls-7" d="M173.32,61.28a.81.81,0,0,1-.8.9.79.79,0,0,1-.77-.87.81.81,0,0,1,.79-.9A.78.78,0,0,1,173.32,61.28Zm-1.33,0c0,.37.2.7.55.7s.55-.32.55-.71-.18-.7-.55-.7S172,60.94,172,61.31Z"/><path class="cls-7" d="M173.61,60.47a2.56,2.56,0,0,1,.43,0,.71.71,0,0,1,.5.14.44.44,0,0,1,.13.33.45.45,0,0,1-.32.44h0a.43.43,0,0,1,.25.35,2.59,2.59,0,0,0,.13.47h-.23a2.2,2.2,0,0,1-.11-.41c-.05-.24-.15-.33-.35-.34h-.21v.74h-.22Zm.22.78h.23c.24,0,.39-.13.39-.33s-.16-.32-.39-.32l-.22,0Z"/><path class="cls-7" d="M175,60.47a2.91,2.91,0,0,1,.47,0,1,1,0,0,1,.7.21.78.78,0,0,1,.25.62.93.93,0,0,1-.25.67,1.08,1.08,0,0,1-.76.25l-.4,0ZM175.2,62h.22a.66.66,0,0,0,.73-.73.61.61,0,0,0-.7-.66l-.26,0Z"/><path class="cls-3" d="M206.06,46.06h-2.2a.94.94,0,0,0-.89,1v4.55h9.09V47a.94.94,0,0,0-.89-1H209"/><path class="cls-4" d="M206.06,46.06h-2.2a.94.94,0,0,0-.89,1v4.55h9.09V47a.94.94,0,0,0-.89-1H209"/><path class="cls-2" d="M207.49,40.58h.11a2.28,2.28,0,0,1,2.28,2.28v1.42a2.27,2.27,0,0,1-2.27,2.27h-.11a2.28,2.28,0,0,1-2.28-2.28V42.86A2.28,2.28,0,0,1,207.49,40.58Z"/><path class="cls-4" d="M207.49,40.58h.11a2.28,2.28,0,0,1,2.28,2.28v1.42a2.27,2.27,0,0,1-2.27,2.27h-.11a2.28,2.28,0,0,1-2.28-2.28V42.86A2.28,2.28,0,0,1,207.49,40.58Z"/><line class="cls-5" x1="205.21" y1="42.86" x2="209.65" y2="41.88"/><line class="cls-4" x1="205.21" y1="42.86" x2="209.65" y2="41.88"/><rect class="cls-6" x="197.85" y="53.24" width="19.34" height="11.58"/><rect class="cls-2" x="200.17" y="54.87" width="14.71" height="3.65"/><rect class="cls-2" x="200.17" y="59.5" width="14.71" height="3.65"/><path class="cls-7" d="M204.32,55.93h.22v1.53h.73v.19h-1Z"/><path class="cls-7" d="M206.89,56.77a.81.81,0,0,1-.8.9.79.79,0,0,1-.77-.87.81.81,0,0,1,.8-.9A.78.78,0,0,1,206.89,56.77Zm-1.33,0c0,.37.2.7.55.7s.55-.32.55-.71-.18-.7-.55-.7S205.56,56.42,205.56,56.79Z"/><path class="cls-7" d="M208.49,57.57a1.55,1.55,0,0,1-.53.09.81.81,0,0,1-.88-.87.86.86,0,0,1,.93-.89,1.05,1.05,0,0,1,.43.08l-.06.18a.86.86,0,0,0-.38-.07.64.64,0,0,0-.69.69.63.63,0,0,0,.66.69.7.7,0,0,0,.3,0v-.51h-.35v-.18h.56Z"/><path class="cls-7" d="M209,55.93v1.72h-.22V55.93Z"/><path class="cls-7" d="M209.44,57.65V55.93h.24l.55.87a4.66,4.66,0,0,1,.31.56h0c0-.23,0-.44,0-.71v-.72h.21v1.72h-.22l-.54-.87a4.92,4.92,0,0,1-.32-.57h0c0,.22,0,.42,0,.71v.73Z"/><path class="cls-7" d="M201.62,60.46a2.59,2.59,0,0,1,.42,0,.7.7,0,0,1,.48.14.47.47,0,0,1,.15.36.5.5,0,0,1-.13.37.71.71,0,0,1-.52.19l-.18,0v.69h-.22Zm.22.83.18,0c.27,0,.43-.13.43-.36s-.16-.34-.41-.34l-.21,0Z"/><path class="cls-7" d="M203,61.62l-.18.54h-.23l.59-1.72h.26l.59,1.72h-.24l-.18-.54Zm.57-.17-.17-.5c0-.11-.06-.21-.09-.31h0c0,.1-.05.21-.09.31l-.17.5Z"/><path class="cls-7" d="M204.3,61.89a.76.76,0,0,0,.39.11c.23,0,.36-.12.36-.29s-.09-.25-.32-.34-.45-.25-.45-.49a.49.49,0,0,1,.56-.46.78.78,0,0,1,.38.08l-.06.18a.62.62,0,0,0-.32-.08c-.23,0-.32.14-.32.26s.1.24.34.33.44.25.44.5-.19.5-.6.5a.88.88,0,0,1-.44-.11Z"/><path class="cls-7" d="M205.55,61.89a.76.76,0,0,0,.39.11c.23,0,.36-.12.36-.29s-.09-.25-.32-.34-.45-.25-.45-.49a.49.49,0,0,1,.56-.46.77.77,0,0,1,.38.08l-.06.18a.63.63,0,0,0-.32-.08c-.23,0-.32.14-.32.26s.11.24.34.33.44.25.44.5-.19.5-.6.5a.88.88,0,0,1-.44-.11Z"/><path class="cls-7" d="M207.12,62.16l-.44-1.72h.23l.2.87c.05.21.1.43.13.59h0c0-.17.08-.37.14-.6l.23-.87h.23l.21.87c0,.2.09.41.12.59h0c0-.19.08-.38.14-.59l.23-.87h.23l-.49,1.72h-.23l-.22-.89a5.43,5.43,0,0,1-.11-.56h0a4.61,4.61,0,0,1-.13.56l-.24.89Z"/><path class="cls-7" d="M210.46,61.28a.81.81,0,0,1-.8.9.79.79,0,0,1-.77-.87.81.81,0,0,1,.79-.9A.78.78,0,0,1,210.46,61.28Zm-1.33,0c0,.37.2.7.55.7s.55-.32.55-.71-.18-.7-.55-.7S209.12,60.94,209.12,61.31Z"/><path class="cls-7" d="M210.74,60.47a2.58,2.58,0,0,1,.43,0,.71.71,0,0,1,.5.14.44.44,0,0,1,.13.33.45.45,0,0,1-.32.44h0a.43.43,0,0,1,.25.35,2.7,2.7,0,0,0,.13.47h-.23a2.06,2.06,0,0,1-.11-.41c-.05-.24-.15-.33-.35-.34H211v.74h-.22Zm.22.78h.23c.24,0,.39-.13.39-.33s-.16-.32-.4-.32l-.22,0Z"/><path class="cls-7" d="M212.12,60.47a2.9,2.9,0,0,1,.47,0,1,1,0,0,1,.7.21.78.78,0,0,1,.24.62.92.92,0,0,1-.25.67,1.07,1.07,0,0,1-.76.25l-.4,0Zm.22,1.52h.22a.66.66,0,0,0,.73-.73.61.61,0,0,0-.69-.66l-.26,0Z"/><path class="cls-8" d="M56.73,83a3.08,3.08,0,0,1-1.28.23,2.26,2.26,0,0,1-2.38-2.46,2.4,2.4,0,0,1,2.53-2.54,2.62,2.62,0,0,1,1.15.21l-.16.51a2.21,2.21,0,0,0-1-.2,1.8,1.8,0,0,0-1.89,2,1.75,1.75,0,0,0,1.85,1.95,2.51,2.51,0,0,0,1-.2Z"/><path class="cls-8" d="M57.47,80.74c0-.41,0-.76,0-1.09H58l0,.69h0a1.05,1.05,0,0,1,1-.76h.17v.6H59a.88.88,0,0,0-.85.8,1.75,1.75,0,0,0,0,.29v1.85h-.63Z"/><path class="cls-8" d="M60.1,81.51a1.11,1.11,0,0,0,1.19,1.21,2.25,2.25,0,0,0,1-.18l.12.45a2.83,2.83,0,0,1-1.16.22,1.62,1.62,0,0,1-1.71-1.76,1.68,1.68,0,0,1,1.63-1.87,1.46,1.46,0,0,1,1.44,1.63,1.52,1.52,0,0,1,0,.29ZM62,81.05a.9.9,0,0,0-.88-1,1,1,0,0,0-1,1Z"/><path class="cls-8" d="M65.79,82.3a5.94,5.94,0,0,0,0,.83h-.57l-.05-.44h0a1.29,1.29,0,0,1-1.06.52,1,1,0,0,1-1.06-1c0-.84.75-1.3,2.09-1.29v-.07a.71.71,0,0,0-.79-.8,1.68,1.68,0,0,0-.91.26l-.14-.42a2.26,2.26,0,0,1,1.15-.3c1.06,0,1.32.72,1.32,1.41Zm-.61-.94c-.69,0-1.47.11-1.47.78a.55.55,0,0,0,.59.6.88.88,0,0,0,.85-.58.72.72,0,0,0,0-.2Z"/><path class="cls-8" d="M67.54,78.82v.83h.91v.48h-.91V82c0,.43.12.68.47.68a1.16,1.16,0,0,0,.37,0l0,.48a1.73,1.73,0,0,1-.56.09.9.9,0,0,1-.68-.27,1.36,1.36,0,0,1-.24-.91v-1.9h-.54v-.48h.54V79Z"/><path class="cls-8" d="M69.46,81.51a1.11,1.11,0,0,0,1.19,1.21,2.26,2.26,0,0,0,1-.18l.12.45a2.84,2.84,0,0,1-1.16.22,1.62,1.62,0,0,1-1.71-1.76,1.68,1.68,0,0,1,1.63-1.87,1.46,1.46,0,0,1,1.44,1.63,1.53,1.53,0,0,1,0,.29Zm1.85-.45a.9.9,0,0,0-.88-1,1,1,0,0,0-1,1Z"/><polyline class="cls-9" points="97.98 77.66 103.49 83.17 109.54 76.22"/><polyline class="cls-9" points="165.57 77.66 171.08 83.17 177.13 76.22"/><line class="cls-10" x1="132.94" y1="75.99" x2="140.12" y2="83.17"/><line class="cls-10" x1="132.94" y1="83.17" x2="140.12" y2="75.99"/><line class="cls-10" x1="203.93" y1="75.99" x2="211.11" y2="83.17"/><line class="cls-10" x1="203.93" y1="83.17" x2="211.11" y2="75.99"/><path class="cls-8" d="M55.85,110.83H54v1.75h2.1v.52H53.35v-4.84H56v.53H54v1.53h1.87Z"/><path class="cls-8" d="M59.83,108v4.2c0,.31,0,.66,0,.9H59.3l0-.6h0a1.25,1.25,0,0,1-1.17.68,1.59,1.59,0,0,1-1.49-1.77,1.66,1.66,0,0,1,1.56-1.86,1.16,1.16,0,0,1,1,.52h0V108Zm-.62,3a1.12,1.12,0,0,0,0-.27.93.93,0,0,0-.91-.73c-.65,0-1,.58-1,1.33s.35,1.29,1,1.29a1,1,0,0,0,.93-.75,1.09,1.09,0,0,0,0-.27Z"/><path class="cls-8" d="M61.59,108.65a.38.38,0,0,1-.4.39.37.37,0,0,1-.38-.39.39.39,0,0,1,.39-.4A.38.38,0,0,1,61.59,108.65Zm-.7,4.45v-3.48h.63v3.48Z"/><path class="cls-8" d="M63.33,108.79v.83h.91v.48h-.91V112c0,.43.12.67.47.67a1.16,1.16,0,0,0,.37,0l0,.48a1.73,1.73,0,0,1-.56.09.9.9,0,0,1-.68-.27,1.36,1.36,0,0,1-.24-.91v-1.9h-.54v-.48h.54V109Z"/><polyline class="cls-9" points="97.98 107.75 103.49 113.26 109.54 106.31"/><polyline class="cls-9" points="130.75 107.75 136.26 113.26 142.32 106.31"/><polyline class="cls-9" points="201.74 107.75 207.25 113.26 213.31 106.31"/><line class="cls-10" x1="167.76" y1="106.08" x2="174.94" y2="113.26"/><line class="cls-10" x1="167.76" y1="113.26" x2="174.94" y2="106.08"/><path class="cls-8" d="M53.35,139.29a7.9,7.9,0,0,1,1.33-.11,2.8,2.8,0,0,1,2,.6,2.21,2.21,0,0,1,.69,1.74,2.59,2.59,0,0,1-.7,1.88,3,3,0,0,1-2.15.7,10.17,10.17,0,0,1-1.13-.06Zm.62,4.28a5.2,5.2,0,0,0,.63,0,1.86,1.86,0,0,0,2.06-2.05,1.73,1.73,0,0,0-2-1.87,3.62,3.62,0,0,0-.73.06Z"/><path class="cls-8" d="M58.49,142.43a1.11,1.11,0,0,0,1.19,1.21,2.25,2.25,0,0,0,1-.18l.12.45a2.82,2.82,0,0,1-1.16.22,1.62,1.62,0,0,1-1.71-1.76,1.68,1.68,0,0,1,1.63-1.87A1.46,1.46,0,0,1,61,142.14a1.61,1.61,0,0,1,0,.29Zm1.85-.45a.9.9,0,0,0-.88-1,1,1,0,0,0-1,1Z"/><path class="cls-8" d="M61.74,139h.63v5.1h-.63Z"/><path class="cls-8" d="M63.78,142.43A1.11,1.11,0,0,0,65,143.64a2.26,2.26,0,0,0,1-.18l.12.45a2.83,2.83,0,0,1-1.16.22,1.62,1.62,0,0,1-1.71-1.76,1.68,1.68,0,0,1,1.63-1.87,1.46,1.46,0,0,1,1.44,1.63,1.61,1.61,0,0,1,0,.29Zm1.85-.45a.9.9,0,0,0-.88-1,1,1,0,0,0-1,1Z"/><path class="cls-8" d="M67.79,139.75v.83h.91v.48h-.91v1.87c0,.43.12.67.47.67a1.16,1.16,0,0,0,.37,0l0,.48a1.73,1.73,0,0,1-.56.09.9.9,0,0,1-.68-.27,1.36,1.36,0,0,1-.25-.91v-1.9h-.54v-.48h.54v-.65Z"/><path class="cls-8" d="M69.71,142.43a1.11,1.11,0,0,0,1.19,1.21,2.25,2.25,0,0,0,1-.18l.12.45a2.83,2.83,0,0,1-1.16.22,1.62,1.62,0,0,1-1.71-1.76,1.68,1.68,0,0,1,1.63-1.87,1.46,1.46,0,0,1,1.44,1.63,1.53,1.53,0,0,1,0,.29Zm1.85-.45a.9.9,0,0,0-.88-1,1,1,0,0,0-1,1Z"/><polyline class="cls-9" points="130.75 140.25 136.26 145.76 142.32 138.81"/><polyline class="cls-9" points="201.74 140.25 207.25 145.76 213.31 138.81"/><line class="cls-10" x1="167.76" y1="138.58" x2="174.94" y2="145.76"/><line class="cls-10" x1="167.76" y1="145.76" x2="174.94" y2="138.58"/><line class="cls-10" x1="100.17" y1="138.58" x2="107.35" y2="145.76"/><line class="cls-10" x1="100.17" y1="145.76" x2="107.35" y2="138.58"/><line class="cls-11" x1="50.67" y1="92.88" x2="219.85" y2="92.88"/><line class="cls-11" x1="50.67" y1="123.51" x2="219.85" y2="123.51"/><line class="cls-11" x1="50.67" y1="154.14" x2="219.85" y2="154.14"/><path class="cls-12" d="M24.81,44.92h-.46a.2.2,0,0,1-.13,0,.24.24,0,0,1-.07-.1l-.41-1.05h-2l-.41,1.05a.23.23,0,0,1-.07.1.19.19,0,0,1-.13,0h-.46l1.75-4.37h.6ZM21.95,43.3h1.63l-.68-1.78a3.18,3.18,0,0,1-.13-.41l-.07.23-.06.18Z"/><path class="cls-12" d="M27.38,42.38l0,.05-.07,0a.17.17,0,0,1-.1,0L27,42.33l-.2-.08a.94.94,0,0,0-.29,0,.93.93,0,0,0-.4.08.78.78,0,0,0-.29.23,1,1,0,0,0-.18.37,1.87,1.87,0,0,0-.06.49,1.8,1.8,0,0,0,.06.5,1.09,1.09,0,0,0,.18.37.77.77,0,0,0,.28.23.88.88,0,0,0,.37.08.94.94,0,0,0,.33,0,1,1,0,0,0,.21-.1l.14-.11a.17.17,0,0,1,.11,0,.11.11,0,0,1,.1.05l.15.2a1.16,1.16,0,0,1-.5.36,1.77,1.77,0,0,1-.64.12,1.36,1.36,0,0,1-.54-.11,1.23,1.23,0,0,1-.43-.31,1.48,1.48,0,0,1-.29-.5,2.18,2.18,0,0,1,0-1.31,1.46,1.46,0,0,1,.28-.5,1.3,1.3,0,0,1,.46-.33,1.56,1.56,0,0,1,.62-.12,1.48,1.48,0,0,1,.57.1,1.38,1.38,0,0,1,.44.3Z"/><path class="cls-12" d="M30.23,42.38l0,.05-.07,0a.17.17,0,0,1-.1,0l-.14-.08-.2-.08a.94.94,0,0,0-.29,0,.93.93,0,0,0-.4.08.79.79,0,0,0-.29.23,1,1,0,0,0-.18.37,1.83,1.83,0,0,0-.06.49,1.76,1.76,0,0,0,.07.5,1.09,1.09,0,0,0,.18.37.75.75,0,0,0,.28.23.87.87,0,0,0,.37.08.94.94,0,0,0,.33,0,1,1,0,0,0,.21-.1l.14-.11a.17.17,0,0,1,.11,0,.11.11,0,0,1,.1.05l.15.2a1.17,1.17,0,0,1-.5.36,1.76,1.76,0,0,1-.64.12,1.36,1.36,0,0,1-.54-.11,1.22,1.22,0,0,1-.43-.31,1.45,1.45,0,0,1-.29-.5,2,2,0,0,1-.11-.67,2,2,0,0,1,.1-.64,1.44,1.44,0,0,1,.28-.5,1.28,1.28,0,0,1,.46-.33,1.55,1.55,0,0,1,.62-.12,1.49,1.49,0,0,1,.57.1,1.37,1.37,0,0,1,.44.3Z"/><path class="cls-12" d="M32.22,41.79a1.61,1.61,0,0,1,.61.11,1.29,1.29,0,0,1,.46.32,1.43,1.43,0,0,1,.29.5,2.18,2.18,0,0,1,0,1.32,1.44,1.44,0,0,1-.29.5,1.25,1.25,0,0,1-.46.32,1.72,1.72,0,0,1-1.22,0,1.26,1.26,0,0,1-.46-.32,1.41,1.41,0,0,1-.29-.5,2.13,2.13,0,0,1,0-1.32,1.4,1.4,0,0,1,.29-.5,1.3,1.3,0,0,1,.46-.32A1.6,1.6,0,0,1,32.22,41.79Zm0,2.76a.79.79,0,0,0,.68-.31,1.73,1.73,0,0,0,0-1.71.79.79,0,0,0-.68-.31.93.93,0,0,0-.4.08.75.75,0,0,0-.29.23,1,1,0,0,0-.17.37,2,2,0,0,0-.06.49,2,2,0,0,0,.06.49,1,1,0,0,0,.17.36.75.75,0,0,0,.29.23A1,1,0,0,0,32.22,44.54Z"/><path class="cls-12" d="M34.83,41.83v2a.82.82,0,0,0,.16.54.6.6,0,0,0,.49.19.94.94,0,0,0,.45-.11,1.41,1.41,0,0,0,.39-.31V41.83h.54v3.09h-.32a.14.14,0,0,1-.15-.11l0-.33a1.66,1.66,0,0,1-.45.36,1.18,1.18,0,0,1-.57.14,1.12,1.12,0,0,1-.45-.08.88.88,0,0,1-.33-.24,1,1,0,0,1-.2-.37,1.68,1.68,0,0,1-.07-.48v-2Z"/><path class="cls-12" d="M37.75,44.92V41.83h.32a.14.14,0,0,1,.15.11l0,.34a1.74,1.74,0,0,1,.45-.36,1.16,1.16,0,0,1,.57-.14,1.11,1.11,0,0,1,.45.08.87.87,0,0,1,.32.24,1.08,1.08,0,0,1,.2.37,1.63,1.63,0,0,1,.07.48v2h-.54V43a.83.83,0,0,0-.16-.54.6.6,0,0,0-.49-.19.91.91,0,0,0-.45.12,1.49,1.49,0,0,0-.39.31v2.27Z"/><path class="cls-12" d="M42.07,45a.74.74,0,0,1-.56-.21.81.81,0,0,1-.2-.59V42.29h-.37a.12.12,0,0,1-.08,0,.11.11,0,0,1,0-.09V42l.51-.06.13-1a.11.11,0,0,1,0-.08.12.12,0,0,1,.09,0h.27V41.9h.88v.39h-.88v1.85a.39.39,0,0,0,.09.29.33.33,0,0,0,.24.09l.15,0,.11,0,.08-.05.06,0a.1.1,0,0,1,.08.05l.16.26a1,1,0,0,1-.34.21A1.17,1.17,0,0,1,42.07,45Z"/><path class="cls-12" d="M48.27,44.92h-.46a.2.2,0,0,1-.13,0,.24.24,0,0,1-.07-.1l-.41-1.05h-2l-.41,1.05a.23.23,0,0,1-.07.1.19.19,0,0,1-.13,0h-.46l1.75-4.37h.6ZM45.41,43.3H47l-.69-1.78a3.33,3.33,0,0,1-.13-.41l-.07.23-.06.18Z"/><path class="cls-12" d="M50.91,44.92a.14.14,0,0,1-.15-.11l0-.37a1.65,1.65,0,0,1-.45.39,1.17,1.17,0,0,1-.58.14,1.11,1.11,0,0,1-.48-.1,1,1,0,0,1-.37-.3,1.46,1.46,0,0,1-.24-.49,2.55,2.55,0,0,1-.08-.68,2.12,2.12,0,0,1,.09-.64,1.56,1.56,0,0,1,.26-.51,1.21,1.21,0,0,1,1-.46,1.14,1.14,0,0,1,.49.1,1.18,1.18,0,0,1,.36.27V40.43h.54v4.49Zm-1.05-.4a.88.88,0,0,0,.46-.12,1.35,1.35,0,0,0,.37-.34V42.57a.87.87,0,0,0-.33-.28A1,1,0,0,0,50,42.2a.79.79,0,0,0-.67.31,1.44,1.44,0,0,0-.23.88,2.19,2.19,0,0,0,.05.52,1,1,0,0,0,.15.35.6.6,0,0,0,.25.2A.82.82,0,0,0,49.86,44.53Z"/><path class="cls-12" d="M52.14,44.92V41.83h.32a.14.14,0,0,1,.15.11l0,.32a1.61,1.61,0,0,1,.38-.34.91.91,0,0,1,.49-.13A.73.73,0,0,1,54,42a1,1,0,0,1,.28.47,1,1,0,0,1,.17-.29,1,1,0,0,1,.24-.2,1,1,0,0,1,.28-.12,1.25,1.25,0,0,1,.3,0,1.14,1.14,0,0,1,.43.08.85.85,0,0,1,.32.23,1,1,0,0,1,.2.37,1.62,1.62,0,0,1,.07.5v2h-.54V43a.83.83,0,0,0-.16-.55.57.57,0,0,0-.46-.19.7.7,0,0,0-.25,0,.6.6,0,0,0-.21.14.64.64,0,0,0-.14.23.88.88,0,0,0-.05.32v2H54V43a.86.86,0,0,0-.15-.55.52.52,0,0,0-.43-.18.69.69,0,0,0-.37.11,1.23,1.23,0,0,0-.32.29v2.3Z"/><path class="cls-12" d="M57.87,40.87a.35.35,0,0,1,0,.15.43.43,0,0,1-.09.12.4.4,0,0,1-.12.09.39.39,0,0,1-.15,0,.37.37,0,0,1-.15,0,.41.41,0,0,1-.12-.09.4.4,0,0,1-.08-.12.37.37,0,0,1,0-.15.4.4,0,0,1,0-.15.42.42,0,0,1,.08-.12.42.42,0,0,1,.12-.08.36.36,0,0,1,.15,0,.37.37,0,0,1,.15,0,.41.41,0,0,1,.12.08.44.44,0,0,1,.09.13A.38.38,0,0,1,57.87,40.87Zm-.12,1v3.09h-.54V41.83Z"/><path class="cls-12" d="M58.71,44.92V41.83H59a.14.14,0,0,1,.15.11l0,.34a1.72,1.72,0,0,1,.45-.36,1.16,1.16,0,0,1,.57-.14,1.11,1.11,0,0,1,.45.08.87.87,0,0,1,.32.24,1.08,1.08,0,0,1,.2.37,1.63,1.63,0,0,1,.07.48v2h-.54V43a.84.84,0,0,0-.16-.54.6.6,0,0,0-.49-.19.91.91,0,0,0-.45.12,1.47,1.47,0,0,0-.39.31v2.27Z"/><path class="cls-13" d="M38,25H33.23a2,2,0,0,0-1.92,2.13v9.82H50.93V27.1A2,2,0,0,0,49,25H44.36"/><path class="cls-14" d="M38,25H33.23a2,2,0,0,0-1.92,2.13v9.82H50.93V27.1A2,2,0,0,0,49,25H44.36"/><polygon class="cls-5" points="37.65 25.35 41.25 33.03 44.57 25.35 41.09 24.57 37.65 25.35"/><polygon class="cls-15" points="37.65 25.35 39.09 28.42 41.09 24.57 38.23 24.15 37.65 25.35"/><polygon class="cls-15" points="44.69 25.35 43.25 28.42 41.25 24.57 44.39 24.15 44.69 25.35"/><rect class="cls-2" x="36.14" y="13.16" width="10.07" height="12.89" rx="4.91" ry="4.91"/><rect class="cls-14" x="36.14" y="13.16" width="10.07" height="12.89" rx="4.91" ry="4.91"/><line class="cls-5" x1="36.14" y1="18.07" x2="45.72" y2="15.95"/><line class="cls-14" x1="36.14" y1="18.07" x2="45.72" y2="15.95"/><line class="cls-2" x1="44.57" y1="16.78" x2="46.2" y2="19.6"/><line class="cls-14" x1="44.57" y1="16.78" x2="46.2" y2="19.6"/></svg>