<svg id="Layer_1" data-name="Layer 1" xmlns="http://www.w3.org/2000/svg" viewBox="0 0 253.87 182.88"><defs><style>.cls-1,.cls-12,.cls-17,.cls-2,.cls-3,.cls-4,.cls-5,.cls-6{fill:none;}.cls-1{stroke:#259e38;stroke-width:0.95px;stroke-dasharray:2.15 2.15;}.cls-1,.cls-2,.cls-3,.cls-4,.cls-5,.cls-6{stroke-miterlimit:10;}.cls-2{stroke:#13110c;}.cls-2,.cls-3,.cls-4,.cls-5,.cls-6{stroke-width:0.62px;}.cls-3{stroke:#bebbbb;}.cls-4,.cls-5,.cls-6{stroke:#706f6f;}.cls-4{stroke-dasharray:1.25 1.25;}.cls-6{stroke-dasharray:1.33 1.33;}.cls-7{font-size:4.95px;}.cls-10,.cls-7,.cls-8{fill:#13110c;font-family:Lato-Regular, Lato;}.cls-8{font-size:4.02px;}.cls-9{letter-spacing:-0.02em;}.cls-10{font-size:5.88px;}.cls-11{fill:#2e427c;}.cls-12,.cls-17{stroke:#2b2523;stroke-linecap:round;stroke-linejoin:round;}.cls-12{stroke-width:0.76px;}.cls-13{fill:#e94b33;}.cls-14{fill:#e3ebf8;}.cls-15{fill:#fff;}.cls-16{fill:#ea5a11;}.cls-17{stroke-width:0.61px;}.cls-18{fill:#5355a1;}.cls-19{fill:#fecf00;}</style></defs><title>main-image-2</title><path class="cls-1" d="M234.56,161.1a4.2,4.2,0,0,1-4.12,4.27H29a4.2,4.2,0,0,1-4.12-4.27V24.67A4.2,4.2,0,0,1,29,20.39H230.44a4.2,4.2,0,0,1,4.12,4.27Z"/><path class="cls-2" d="M72.34,90.33v-9.7s.39-7.22,7.9-7.22H183.75s7.87.36,7.87,8v8.86"/><line class="cls-2" x1="133.53" y1="73.42" x2="133.53" y2="90.33"/><path class="cls-2" d="M50.18,116.3v-7.17a3.61,3.61,0,0,1,3.73-3.41H91.07s3.72.17,3.72,3.8v6.77"/><line class="cls-2" x1="72.18" y1="105.72" x2="72.18" y2="116.3"/><path class="cls-2" d="M111.6,116.28v-7.17a3.61,3.61,0,0,1,3.73-3.41h37.16s3.72.17,3.72,3.8v6.77"/><line class="cls-2" x1="133.59" y1="105.71" x2="133.59" y2="116.28"/><line class="cls-3" x1="169.32" y1="116.28" x2="169.32" y2="115.66"/><path class="cls-4" d="M169.32,114.41v-5.3a3.61,3.61,0,0,1,3.73-3.41h37.16s3.72.17,3.72,3.8V115"/><line class="cls-3" x1="213.93" y1="115.66" x2="213.93" y2="116.28"/><line class="cls-5" x1="191.32" y1="105.71" x2="191.32" y2="106.32"/><line class="cls-6" x1="191.32" y1="107.66" x2="191.32" y2="115"/><line class="cls-5" x1="191.32" y1="115.66" x2="191.32" y2="116.28"/><circle class="cls-5" cx="191.37" cy="98.46" r="5.47"/><line class="cls-5" x1="191.26" y1="95.07" x2="191.26" y2="101.56"/><line class="cls-5" x1="188.17" y1="98.47" x2="194.35" y2="98.47"/><text class="cls-7" transform="translate(60.09 98.16)">Application</text><text class="cls-7" transform="translate(67.32 102.49)">User</text><text class="cls-8" transform="translate(46.38 133.63)">End</text><text class="cls-8" transform="translate(44.72 137.96)">Users</text><text class="cls-8" transform="translate(89.41 134.46)"><tspan class="cls-9">P</tspan><tspan x="2.4" y="0">ortal</tspan></text><text class="cls-8" transform="translate(89.74 138.78)">Users</text><text class="cls-8" transform="translate(60.31 133.63)">Respondents</text><text class="cls-10" transform="translate(114.21 68.78)">Account Admin</text><path class="cls-11" d="M130.86,49.55H126.3a2,2,0,0,0-1.85,2.05v9.46h18.91V51.6a2,2,0,0,0-1.85-2.05H137"/><path class="cls-12" d="M130.86,49.55H126.3a2,2,0,0,0-1.85,2.05v9.46h18.91V51.6a2,2,0,0,0-1.85-2.05H137"/><polygon class="cls-13" points="130.55 49.92 134.02 57.32 137.22 49.92 133.87 49.17 130.55 49.92"/><polygon class="cls-14" points="130.55 49.92 131.94 52.88 133.87 49.17 131.12 48.76 130.55 49.92"/><polygon class="cls-14" points="137.34 49.92 135.95 52.88 134.02 49.17 137.05 48.76 137.34 49.92"/><rect class="cls-15" x="129.09" y="38.17" width="9.7" height="12.42" rx="4.73" ry="4.73"/><rect class="cls-12" x="129.09" y="38.17" width="9.7" height="12.42" rx="4.73" ry="4.73"/><line class="cls-13" x1="129.09" y1="42.9" x2="138.33" y2="40.86"/><line class="cls-12" x1="129.09" y1="42.9" x2="138.33" y2="40.86"/><line class="cls-15" x1="137.22" y1="41.66" x2="138.8" y2="44.38"/><line class="cls-12" x1="137.22" y1="41.66" x2="138.8" y2="44.38"/><path class="cls-16" d="M70.54,124.47h-2a.86.86,0,0,0-.81.9v4.14H76v-4.14a.86.86,0,0,0-.81-.9h-2"/><path class="cls-17" d="M70.54,124.47h-2a.86.86,0,0,0-.81.9v4.14H76v-4.14a.86.86,0,0,0-.81-.9h-2"/><rect class="cls-15" x="69.77" y="119.49" width="4.25" height="5.43" rx="2.07" ry="2.07"/><rect class="cls-17" x="69.77" y="119.49" width="4.25" height="5.43" rx="2.07" ry="2.07"/><line class="cls-13" x1="69.77" y1="121.56" x2="73.81" y2="120.67"/><line class="cls-17" x1="69.77" y1="121.56" x2="73.81" y2="120.67"/><path class="cls-18" d="M93.46,124.47h-2a.86.86,0,0,0-.81.9v4.14h8.27v-4.14a.86.86,0,0,0-.81-.9h-2"/><path class="cls-17" d="M93.46,124.47h-2a.86.86,0,0,0-.81.9v4.14h8.27v-4.14a.86.86,0,0,0-.81-.9h-2"/><rect class="cls-15" x="92.69" y="119.49" width="4.25" height="5.43" rx="2.07" ry="2.07"/><rect class="cls-17" x="92.69" y="119.49" width="4.25" height="5.43" rx="2.07" ry="2.07"/><line class="cls-13" x1="92.69" y1="121.56" x2="96.73" y2="120.67"/><line class="cls-17" x1="92.69" y1="121.56" x2="96.73" y2="120.67"/><path class="cls-19" d="M48.55,124.47h-2a.86.86,0,0,0-.81.9v4.14H54v-4.14a.86.86,0,0,0-.81-.9h-2"/><path class="cls-17" d="M48.55,124.47h-2a.86.86,0,0,0-.81.9v4.14H54v-4.14a.86.86,0,0,0-.81-.9h-2"/><rect class="cls-15" x="47.77" y="119.49" width="4.25" height="5.43" rx="2.07" ry="2.07"/><rect class="cls-17" x="47.77" y="119.49" width="4.25" height="5.43" rx="2.07" ry="2.07"/><line class="cls-13" x1="47.77" y1="121.56" x2="51.81" y2="120.67"/><line class="cls-17" x1="47.77" y1="121.56" x2="51.81" y2="120.67"/><text class="cls-7" transform="translate(121.51 98.16)">Application</text><text class="cls-7" transform="translate(128.73 102.49)">User</text><text class="cls-8" transform="translate(107.8 133.62)">End</text><text class="cls-8" transform="translate(106.13 137.95)">Users</text><text class="cls-8" transform="translate(150.82 134.44)"><tspan class="cls-9">P</tspan><tspan x="2.4" y="0">ortal</tspan></text><text class="cls-8" transform="translate(151.15 138.77)">Users</text><text class="cls-8" transform="translate(121.72 133.62)">Respondents</text><path class="cls-16" d="M132,124.45h-2a.86.86,0,0,0-.81.9v4.14h8.27v-4.14a.86.86,0,0,0-.81-.9h-2"/><path class="cls-17" d="M132,124.45h-2a.86.86,0,0,0-.81.9v4.14h8.27v-4.14a.86.86,0,0,0-.81-.9h-2"/><rect class="cls-15" x="131.18" y="119.47" width="4.25" height="5.44" rx="2.07" ry="2.07"/><rect class="cls-17" x="131.18" y="119.47" width="4.25" height="5.44" rx="2.07" ry="2.07"/><line class="cls-13" x1="131.18" y1="121.54" x2="135.22" y2="120.65"/><line class="cls-17" x1="131.18" y1="121.54" x2="135.22" y2="120.65"/><path class="cls-18" d="M154.88,124.45h-2a.86.86,0,0,0-.81.9v4.14h8.27v-4.14a.86.86,0,0,0-.81-.9h-2"/><path class="cls-17" d="M154.88,124.45h-2a.86.86,0,0,0-.81.9v4.14h8.27v-4.14a.86.86,0,0,0-.81-.9h-2"/><rect class="cls-15" x="154.1" y="119.47" width="4.25" height="5.43" rx="2.07" ry="2.07"/><rect class="cls-17" x="154.1" y="119.47" width="4.25" height="5.43" rx="2.07" ry="2.07"/><line class="cls-13" x1="154.1" y1="121.54" x2="158.14" y2="120.65"/><line class="cls-17" x1="154.1" y1="121.54" x2="158.14" y2="120.65"/><path class="cls-19" d="M110,124.45h-2a.86.86,0,0,0-.81.9v4.14h8.27v-4.14a.86.86,0,0,0-.81-.9h-2"/><path class="cls-17" d="M110,124.45h-2a.86.86,0,0,0-.81.9v4.14h8.27v-4.14a.86.86,0,0,0-.81-.9h-2"/><rect class="cls-15" x="109.18" y="119.47" width="4.25" height="5.43" rx="2.07" ry="2.07"/><rect class="cls-17" x="109.18" y="119.47" width="4.25" height="5.43" rx="2.07" ry="2.07"/><line class="cls-13" x1="109.18" y1="121.54" x2="113.22" y2="120.65"/><line class="cls-17" x1="109.18" y1="121.54" x2="113.22" y2="120.65"/></svg>