<svg id="Layer_1" data-name="Layer 1" xmlns="http://www.w3.org/2000/svg" viewBox="0 0 253.87 182.88"><defs><style>.cls-1,.cls-19,.cls-4,.cls-7{fill:#fff;}.cls-1,.cls-13{stroke:#1d1d1b;}.cls-1,.cls-16,.cls-18,.cls-2{stroke-miterlimit:10;}.cls-1,.cls-11,.cls-7,.cls-9{stroke-width:1.11px;}.cls-11,.cls-13,.cls-16,.cls-18,.cls-2,.cls-9{fill:none;}.cls-2{stroke:#3c3c3b;stroke-width:2.28px;stroke-dasharray:6.67 4.45;}.cls-3{fill:#c21b1a;}.cls-4{fill-rule:evenodd;}.cls-5{fill:#1d1d1b;}.cls-6{fill:#36a9e1;}.cls-7,.cls-9{stroke:#2b2523;}.cls-11,.cls-7,.cls-9{stroke-linecap:round;}.cls-11,.cls-13,.cls-7,.cls-9{stroke-linejoin:round;}.cls-8{fill:#2b2523;}.cls-10{fill:#c6c6c6;}.cls-11{stroke:#269e38;}.cls-12{fill:#b2b2b2;}.cls-13{stroke-width:1.64px;}.cls-14{fill:#e7f1f9;}.cls-15{fill:#575756;}.cls-16{stroke:#575756;stroke-width:2.17px;}.cls-17{fill:#e6332a;}.cls-18{stroke:#fff;stroke-width:2px;}</style></defs><title>main-image-3</title><rect class="cls-1" x="92.82" y="12.17" width="82.26" height="110.85"/><line class="cls-2" x1="104.36" y1="68.86" x2="164.41" y2="68.86"/><line class="cls-2" x1="104.36" y1="83.03" x2="164.41" y2="83.03"/><line class="cls-2" x1="104.36" y1="97.37" x2="164.41" y2="97.37"/><line class="cls-2" x1="104.36" y1="111.63" x2="164.41" y2="111.63"/><rect class="cls-3" x="102.97" y="20.93" width="24.4" height="24.39"/><path class="cls-4" d="M118.51,34.36a11,11,0,0,1,3.5.53,3.22,3.22,0,0,1,1.6,1.14,1.89,1.89,0,0,1,.36,1.45,1.73,1.73,0,0,1-1.63,1.37,3,3,0,0,1-1.65-.41,11.13,11.13,0,0,1-2.37-1.83c-.29-.28-.57-.59-.86-.87a.33.33,0,0,0-.24-.09,24.75,24.75,0,0,0-5,1.18.76.76,0,0,0-.34.26,18.27,18.27,0,0,1-2.25,2.77A4,4,0,0,1,107.71,41a1,1,0,0,1-1.36-1,2.32,2.32,0,0,1,.67-1.59,7.61,7.61,0,0,1,2.33-1.66c.54-.27,1.1-.48,1.64-.72a.65.65,0,0,0,.27-.21,24.07,24.07,0,0,0,2.47-4.94.73.73,0,0,0,0-.45,11.35,11.35,0,0,1-.76-3.3,5.46,5.46,0,0,1,.22-1.92,1.61,1.61,0,0,1,2.2-.88c.76.42.76.8.69,1.55a23.26,23.26,0,0,1-.92,4.54.5.5,0,0,0,.05.34,18.37,18.37,0,0,0,2.58,3.57.37.37,0,0,0,.25.09C118.18,34.39,118.37,34.37,118.51,34.36Zm-4-2.26L113,35.28l3.36-.74ZM119,35.62c.23.22.46.44.7.65a7.49,7.49,0,0,0,1.86,1.27,1.22,1.22,0,0,0,1,.07.42.42,0,0,0,.29-.6,2,2,0,0,0-.46-.62,2.78,2.78,0,0,0-1.24-.54A6.73,6.73,0,0,0,119,35.62Zm-4.63-7.12h.1q.2-1.44.4-2.88c0-.13.05-.29-.12-.3a.78.78,0,0,0-.41.15c-.06,0-.07.15-.09.24A6.07,6.07,0,0,0,114.36,28.5Zm-4.56,9.33a6.06,6.06,0,0,0-2,1.39,4,4,0,0,0-.36.56l.08.06A6.32,6.32,0,0,0,109.8,37.83Z"/><path class="cls-5" d="M133.57,44.2h3.51v1.34h-5.14V36.79h1.63Z"/><path class="cls-5" d="M146.11,41.17a4.85,4.85,0,0,1-.32,1.78,4.22,4.22,0,0,1-.9,1.42,4.08,4.08,0,0,1-1.4.94,5.06,5.06,0,0,1-3.62,0,4.1,4.1,0,0,1-1.41-.94,4.2,4.2,0,0,1-.91-1.42,5.11,5.11,0,0,1,0-3.57,4.2,4.2,0,0,1,.91-1.42,4.11,4.11,0,0,1,1.41-.94,4.74,4.74,0,0,1,1.81-.34,4.69,4.69,0,0,1,1.81.34,4.09,4.09,0,0,1,2.3,2.35A4.86,4.86,0,0,1,146.11,41.17Zm-1.67,0a4.08,4.08,0,0,0-.19-1.29,2.73,2.73,0,0,0-.55-1,2.36,2.36,0,0,0-.87-.61,3,3,0,0,0-1.15-.21,3,3,0,0,0-1.16.21,2.38,2.38,0,0,0-.87.61,2.74,2.74,0,0,0-.55,1,4.42,4.42,0,0,0,0,2.59,2.71,2.71,0,0,0,.55,1,2.4,2.4,0,0,0,.88.61,3,3,0,0,0,1.16.21,3,3,0,0,0,1.15-.21,2.38,2.38,0,0,0,.87-.61,2.7,2.7,0,0,0,.55-1A4.08,4.08,0,0,0,144.44,41.17Z"/><path class="cls-5" d="M151.42,44.35a3.79,3.79,0,0,0,1.74-.37V42.38h-1.1a.34.34,0,0,1-.25-.09.29.29,0,0,1-.09-.21v-.92h2.91V44.7a4.79,4.79,0,0,1-.69.42,4.42,4.42,0,0,1-.77.29,5.93,5.93,0,0,1-.87.17,8.3,8.3,0,0,1-1,.06,4.56,4.56,0,0,1-1.76-.33,4.18,4.18,0,0,1-1.39-.93,4.23,4.23,0,0,1-.92-1.42,4.8,4.8,0,0,1-.33-1.8,5,5,0,0,1,.32-1.81A4,4,0,0,1,149.55,37a5.17,5.17,0,0,1,1.89-.33,4.93,4.93,0,0,1,1.86.32,4.28,4.28,0,0,1,1.33.83l-.47.74a.42.42,0,0,1-.37.22.55.55,0,0,1-.3-.1l-.4-.23a2.65,2.65,0,0,0-.45-.2,3.58,3.58,0,0,0-.55-.14,4,4,0,0,0-.71-.05,3,3,0,0,0-1.17.22,2.48,2.48,0,0,0-.89.62,2.82,2.82,0,0,0-.57,1,3.83,3.83,0,0,0-.2,1.27,4,4,0,0,0,.21,1.35,2.82,2.82,0,0,0,.59,1,2.56,2.56,0,0,0,.91.62A3,3,0,0,0,151.42,44.35Z"/><path class="cls-5" d="M164.55,41.17a4.85,4.85,0,0,1-.32,1.78,4.22,4.22,0,0,1-.9,1.42,4.08,4.08,0,0,1-1.4.94,5.06,5.06,0,0,1-3.62,0,4.1,4.1,0,0,1-1.41-.94A4.2,4.2,0,0,1,156,43a5.11,5.11,0,0,1,0-3.57A4.2,4.2,0,0,1,156.9,38a4.11,4.11,0,0,1,1.41-.94,4.74,4.74,0,0,1,1.81-.34,4.69,4.69,0,0,1,1.81.34,4.09,4.09,0,0,1,2.3,2.35A4.86,4.86,0,0,1,164.55,41.17Zm-1.67,0a4.09,4.09,0,0,0-.19-1.29,2.73,2.73,0,0,0-.55-1,2.36,2.36,0,0,0-.87-.61,3,3,0,0,0-1.15-.21,3,3,0,0,0-1.16.21,2.38,2.38,0,0,0-.87.61,2.74,2.74,0,0,0-.55,1,4.42,4.42,0,0,0,0,2.59,2.71,2.71,0,0,0,.55,1A2.4,2.4,0,0,0,159,44a3,3,0,0,0,1.16.21,3,3,0,0,0,1.15-.21,2.38,2.38,0,0,0,.87-.61,2.7,2.7,0,0,0,.55-1A4.08,4.08,0,0,0,162.88,41.17Z"/><rect class="cls-6" x="102.97" y="54.21" width="61.44" height="3.42"/><rect class="cls-7" x="35.07" y="81.83" width="92.22" height="68.77"/><path class="cls-8" d="M123.52,87.48a2.05,2.05,0,1,1-2.05-2.05,2.05,2.05,0,0,1,2.05,2.05"/><path class="cls-8" d="M114.23,87.48a2.05,2.05,0,1,1-2.05-2.05,2.06,2.06,0,0,1,2.05,2.05"/><path class="cls-8" d="M105.07,87.48A2.05,2.05,0,1,1,103,85.42a2.05,2.05,0,0,1,2.05,2.05"/><line class="cls-9" x1="127.17" y1="93.16" x2="35.22" y2="93.16"/><path class="cls-5" d="M45.09,111.1h5V113H42.76V100.51h2.33Z"/><path class="cls-5" d="M63,106.77a6.94,6.94,0,0,1-.46,2.55,6.05,6.05,0,0,1-1.29,2,5.84,5.84,0,0,1-2,1.34,7.21,7.21,0,0,1-5.18,0,5.89,5.89,0,0,1-2-1.34,6,6,0,0,1-1.29-2,7.32,7.32,0,0,1,0-5.1,6,6,0,0,1,1.29-2,5.87,5.87,0,0,1,2-1.34,6.79,6.79,0,0,1,2.59-.48,6.68,6.68,0,0,1,2.59.48,5.9,5.9,0,0,1,2,1.34,6,6,0,0,1,1.29,2A6.93,6.93,0,0,1,63,106.77Zm-2.39,0a5.82,5.82,0,0,0-.27-1.85,3.92,3.92,0,0,0-.78-1.39,3.39,3.39,0,0,0-1.24-.87,4.65,4.65,0,0,0-3.3,0,3.41,3.41,0,0,0-1.25.87,3.93,3.93,0,0,0-.79,1.39,6.31,6.31,0,0,0,0,3.69,3.89,3.89,0,0,0,.79,1.38,3.42,3.42,0,0,0,1.25.87,4.65,4.65,0,0,0,3.3,0,3.4,3.4,0,0,0,1.24-.87,3.87,3.87,0,0,0,.78-1.38A5.82,5.82,0,0,0,60.62,106.77Z"/><path class="cls-5" d="M70.59,111.31a5.84,5.84,0,0,0,1.37-.14,5.76,5.76,0,0,0,1.11-.39V108.5H71.51a.49.49,0,0,1-.35-.12.41.41,0,0,1-.13-.31v-1.32h4.16v5.06a6.86,6.86,0,0,1-1,.6,6.3,6.3,0,0,1-1.1.42,8.32,8.32,0,0,1-1.25.25,11.8,11.8,0,0,1-1.44.08,6.5,6.5,0,0,1-2.52-.48,6,6,0,0,1-2-1.32,6,6,0,0,1-1.31-2,6.85,6.85,0,0,1-.47-2.57,7.06,7.06,0,0,1,.46-2.59,5.69,5.69,0,0,1,3.35-3.34,7.41,7.41,0,0,1,2.7-.47,7,7,0,0,1,2.65.45,6.12,6.12,0,0,1,1.9,1.18l-.67,1.05a.6.6,0,0,1-.53.32.78.78,0,0,1-.42-.14l-.57-.33a3.81,3.81,0,0,0-.64-.29,5.15,5.15,0,0,0-.79-.2,5.8,5.8,0,0,0-1-.08,4.31,4.31,0,0,0-1.67.31,3.54,3.54,0,0,0-1.28.89,4,4,0,0,0-.81,1.39,5.46,5.46,0,0,0-.29,1.82,5.67,5.67,0,0,0,.3,1.93,4,4,0,0,0,.85,1.42,3.65,3.65,0,0,0,1.3.89A4.32,4.32,0,0,0,70.59,111.31Z"/><path class="cls-5" d="M89.36,106.77a6.93,6.93,0,0,1-.46,2.55,6.05,6.05,0,0,1-1.29,2,5.84,5.84,0,0,1-2,1.34,7.21,7.21,0,0,1-5.18,0,5.89,5.89,0,0,1-2-1.34,6,6,0,0,1-1.29-2,7.32,7.32,0,0,1,0-5.1,6,6,0,0,1,1.29-2,5.87,5.87,0,0,1,2-1.34,6.79,6.79,0,0,1,2.59-.48,6.68,6.68,0,0,1,2.59.48,5.9,5.9,0,0,1,2,1.34,6,6,0,0,1,1.29,2A6.93,6.93,0,0,1,89.36,106.77Zm-2.39,0a5.82,5.82,0,0,0-.27-1.85,3.91,3.91,0,0,0-.78-1.39,3.39,3.39,0,0,0-1.24-.87,4.65,4.65,0,0,0-3.3,0,3.41,3.41,0,0,0-1.25.87,3.93,3.93,0,0,0-.79,1.39,6.31,6.31,0,0,0,0,3.69,3.89,3.89,0,0,0,.79,1.38,3.42,3.42,0,0,0,1.25.87,4.65,4.65,0,0,0,3.3,0,3.4,3.4,0,0,0,1.24-.87,3.87,3.87,0,0,0,.78-1.38A5.82,5.82,0,0,0,87,106.77Z"/><rect class="cls-6" x="41.49" y="118.1" width="77.93" height="4.2"/><rect class="cls-10" x="41.49" y="127.3" width="31.91" height="17.23"/><rect class="cls-11" x="79.53" y="127.3" width="39.89" height="17.23"/><line class="cls-11" x1="106.13" y1="144.53" x2="106.13" y2="127.3"/><line class="cls-11" x1="92.82" y1="144.53" x2="92.82" y2="127.3"/><line class="cls-11" x1="79.53" y1="131.6" x2="119.42" y2="131.6"/><line class="cls-11" x1="79.53" y1="135.91" x2="119.42" y2="135.91"/><line class="cls-11" x1="79.53" y1="140.22" x2="119.42" y2="140.22"/><path class="cls-12" d="M214.35,128.6c0,2-1.3,3.57-2.92,3.57H159.92c-1.61,0-2.92-1.61-2.92-3.57V50.35c0-2,1.31-3.57,2.92-3.57h51.51c1.61,0,2.92,1.6,2.92,3.57V128.6Z"/><path class="cls-13" d="M214.35,128.6c0,2-1.3,3.57-2.92,3.57H159.92c-1.61,0-2.92-1.61-2.92-3.57V50.35c0-2,1.31-3.57,2.92-3.57h51.51c1.61,0,2.92,1.6,2.92,3.57V128.6Z"/><rect class="cls-14" x="161.2" y="56.01" width="48.96" height="61.07"/><circle class="cls-5" cx="185.67" cy="123.86" r="2.25"/><path class="cls-5" d="M168.09,73.1h4.24v1.62h-6.21V64.14h2Z"/><path class="cls-5" d="M183.25,69.43a5.86,5.86,0,0,1-.39,2.16,5.1,5.1,0,0,1-1.09,1.72,4.93,4.93,0,0,1-1.69,1.13,6.11,6.11,0,0,1-4.38,0A5,5,0,0,1,174,73.3a5.06,5.06,0,0,1-1.09-1.72,6.18,6.18,0,0,1,0-4.31A5.07,5.07,0,0,1,174,65.56a5,5,0,0,1,1.7-1.13A5.73,5.73,0,0,1,177.9,64a5.66,5.66,0,0,1,2.19.41,5,5,0,0,1,1.69,1.13,5.06,5.06,0,0,1,1.09,1.71A5.86,5.86,0,0,1,183.25,69.43Zm-2,0a4.94,4.94,0,0,0-.23-1.56,3.33,3.33,0,0,0-.66-1.17,2.86,2.86,0,0,0-1.05-.74,3.93,3.93,0,0,0-2.79,0,2.89,2.89,0,0,0-1.06.74,3.33,3.33,0,0,0-.67,1.17,5.33,5.33,0,0,0,0,3.13,3.29,3.29,0,0,0,.67,1.17,2.91,2.91,0,0,0,1.06.74,3.93,3.93,0,0,0,2.79,0,2.88,2.88,0,0,0,1.05-.74A3.29,3.29,0,0,0,181,71,4.94,4.94,0,0,0,181.23,69.43Z"/><path class="cls-5" d="M189.66,73.27a4.58,4.58,0,0,0,2.1-.45V70.89h-1.33a.41.41,0,0,1-.3-.11.35.35,0,0,1-.11-.26V69.42h3.52V73.7a5.77,5.77,0,0,1-.84.51,5.3,5.3,0,0,1-.93.36,7.15,7.15,0,0,1-1.06.21,9.94,9.94,0,0,1-1.21.07,5.51,5.51,0,0,1-2.13-.4,5,5,0,0,1-1.68-1.12,5.1,5.1,0,0,1-1.11-1.71,5.8,5.8,0,0,1-.4-2.17,6,6,0,0,1,.39-2.19,4.82,4.82,0,0,1,2.83-2.82,6.27,6.27,0,0,1,2.28-.4,6,6,0,0,1,2.24.38,5.17,5.17,0,0,1,1.61,1l-.57.89a.51.51,0,0,1-.45.27.66.66,0,0,1-.36-.12l-.48-.28a3.28,3.28,0,0,0-.54-.24,4.44,4.44,0,0,0-.67-.17,4.91,4.91,0,0,0-.85-.07,3.65,3.65,0,0,0-1.42.26,3,3,0,0,0-1.08.75,3.4,3.4,0,0,0-.69,1.18,4.62,4.62,0,0,0-.24,1.54,4.8,4.8,0,0,0,.26,1.63,3.41,3.41,0,0,0,.72,1.2,3.09,3.09,0,0,0,1.1.75A3.64,3.64,0,0,0,189.66,73.27Z"/><path class="cls-5" d="M205.54,69.43a5.86,5.86,0,0,1-.39,2.16,5.1,5.1,0,0,1-1.09,1.72,4.92,4.92,0,0,1-1.69,1.13,6.11,6.11,0,0,1-4.38,0,5,5,0,0,1-1.7-1.13,5.07,5.07,0,0,1-1.09-1.72,6.18,6.18,0,0,1,0-4.31,5.07,5.07,0,0,1,1.09-1.72,5,5,0,0,1,1.7-1.13,5.73,5.73,0,0,1,2.19-.41,5.66,5.66,0,0,1,2.19.41,5,5,0,0,1,1.69,1.13,5.06,5.06,0,0,1,1.09,1.71A5.86,5.86,0,0,1,205.54,69.43Zm-2,0a4.94,4.94,0,0,0-.23-1.56,3.33,3.33,0,0,0-.66-1.17,2.86,2.86,0,0,0-1.05-.74,3.93,3.93,0,0,0-2.79,0,2.89,2.89,0,0,0-1.06.74,3.33,3.33,0,0,0-.67,1.17,5.32,5.32,0,0,0,0,3.13,3.29,3.29,0,0,0,.67,1.17,2.91,2.91,0,0,0,1.06.74,3.93,3.93,0,0,0,2.79,0,2.88,2.88,0,0,0,1.05-.74,3.29,3.29,0,0,0,.66-1.17A4.94,4.94,0,0,0,203.52,69.43Z"/><rect class="cls-6" x="165.05" y="78.9" width="41.24" height="3.42"/><circle class="cls-15" cx="168.66" cy="92.28" r="3.61"/><line class="cls-16" x1="177.63" y1="92.28" x2="206.3" y2="92.28"/><circle class="cls-15" cx="168.66" cy="105.34" r="3.61"/><line class="cls-16" x1="177.63" y1="105.34" x2="206.3" y2="105.34"/><path class="cls-17" d="M182.42,137.91c0,2.94-3.66,5.35-4.39,8.06s1.2,6.72-.22,9.18S172,157.9,170,159.92s-2.29,6.4-4.78,7.84-6.37-.52-9.17.22-5.12,4.39-8.06,4.39-5.35-3.66-8.06-4.39-6.72,1.19-9.17-.22-2.76-5.82-4.78-7.84-6.4-2.29-7.84-4.77.52-6.37-.22-9.17-4.39-5.12-4.39-8.06,3.66-5.35,4.39-8.06-1.19-6.72.22-9.18,5.82-2.75,7.84-4.77,2.29-6.4,4.78-7.84,6.37.52,9.17-.22,5.12-4.39,8.06-4.39,5.35,3.66,8.06,4.39,6.72-1.19,9.17.22,2.76,5.82,4.78,7.84,6.4,2.29,7.84,4.78-.53,6.37.22,9.17S182.42,135,182.42,137.91Z"/><circle class="cls-18" cx="147.96" cy="137.91" r="27.04"/><path class="cls-19" d="M135.74,137.89l-2.48-6.26,2.16-.86a4.4,4.4,0,0,1,1.1-.3,2.18,2.18,0,0,1,.85.05,1.41,1.41,0,0,1,.62.36,1.91,1.91,0,0,1,.4.64,1.46,1.46,0,0,1,.1.45,1.33,1.33,0,0,1-.05.46,1.61,1.61,0,0,1-.22.46,2.26,2.26,0,0,1-.4.44,1.49,1.49,0,0,1,1.84.88,1.91,1.91,0,0,1,.14.8,1.74,1.74,0,0,1-.21.76,2.25,2.25,0,0,1-.56.67,3.4,3.4,0,0,1-.92.52Zm-.24-4,.93-.37a1.68,1.68,0,0,0,.81-.58.84.84,0,0,0,0-.81.88.88,0,0,0-.55-.59,1.55,1.55,0,0,0-.95.13l-1,.39Zm.32.81.73,1.83,1.18-.47a1.72,1.72,0,0,0,.51-.29,1,1,0,0,0,.27-.35.82.82,0,0,0,.07-.38,1.22,1.22,0,0,0-.09-.39,1.06,1.06,0,0,0-.21-.34.74.74,0,0,0-.31-.2,1,1,0,0,0-.43,0,2.08,2.08,0,0,0-.55.15Z"/><path class="cls-19" d="M141.32,135.68l-1.76-4.44.63-.25a.36.36,0,0,1,.25,0,.38.38,0,0,1,.17.17l.28.51a2.3,2.3,0,0,1,.3-.87,1.26,1.26,0,0,1,.62-.52,1,1,0,0,1,.61-.07l.18.86a.18.18,0,0,1,0,.13.2.2,0,0,1-.1.08l-.19,0a1.21,1.21,0,0,0-.31.09,1,1,0,0,0-.5.41,1.52,1.52,0,0,0-.19.7l1.1,2.77Z"/><path class="cls-19" d="M148.22,132.94l-.48.19a.54.54,0,0,1-.26,0,.3.3,0,0,1-.2-.13l-.22-.28a4.07,4.07,0,0,1-.23.4,2.26,2.26,0,0,1-.26.33,1.88,1.88,0,0,1-.32.26,2.38,2.38,0,0,1-.42.21,1.82,1.82,0,0,1-.55.13,1.2,1.2,0,0,1-.5-.06,1.1,1.1,0,0,1-.42-.27,1.44,1.44,0,0,1-.3-.49,1.11,1.11,0,0,1-.06-.55,1.34,1.34,0,0,1,.26-.62,3,3,0,0,1,.69-.65,6.28,6.28,0,0,1,1.21-.65l-.1-.26a1.05,1.05,0,0,0-.45-.58.74.74,0,0,0-.63,0,1.45,1.45,0,0,0-.41.23,1.81,1.81,0,0,0-.25.26l-.18.23a.52.52,0,0,1-.21.15.33.33,0,0,1-.21,0,.47.47,0,0,1-.18-.09l-.33-.27a2.84,2.84,0,0,1,1.57-1.43,1.9,1.9,0,0,1,.75-.15,1.59,1.59,0,0,1,.66.15,1.63,1.63,0,0,1,.54.42,2.22,2.22,0,0,1,.39.65Zm-2.34.16a1.51,1.51,0,0,0,.29-.15,1.24,1.24,0,0,0,.23-.19,1.62,1.62,0,0,0,.18-.24,2.42,2.42,0,0,0,.15-.3l-.3-.75a6.47,6.47,0,0,0-.75.39,2.25,2.25,0,0,0-.44.35.69.69,0,0,0-.19.32.57.57,0,0,0,.35.63A.77.77,0,0,0,145.87,133.1Z"/><path class="cls-19" d="M149.27,132.53l-1.76-4.44.65-.26a.28.28,0,0,1,.35.09l.21.32a2.7,2.7,0,0,1,.18-.36,2.12,2.12,0,0,1,.24-.32,1.7,1.7,0,0,1,.31-.27,2,2,0,0,1,.4-.21,1.71,1.71,0,0,1,.69-.13,1.39,1.39,0,0,1,.61.16,1.66,1.66,0,0,1,.5.42,2.43,2.43,0,0,1,.37.64l1.12,2.83-1.07.42L151,128.59a1,1,0,0,0-.44-.56.75.75,0,0,0-.65,0,1.21,1.21,0,0,0-.47.33,2,2,0,0,0-.32.53l1.27,3.21Z"/><path class="cls-19" d="M157.32,129.34a.28.28,0,0,1-.35-.09l-.26-.39a2.66,2.66,0,0,1-.18.4,2,2,0,0,1-.24.35,1.9,1.9,0,0,1-.32.29,2,2,0,0,1-.42.22,1.59,1.59,0,0,1-.73.11,1.62,1.62,0,0,1-.7-.23,2.28,2.28,0,0,1-.62-.58,3.88,3.88,0,0,1-.5-.92,3.26,3.26,0,0,1-.23-1,2.41,2.41,0,0,1,.09-.89,1.93,1.93,0,0,1,.41-.73,1.89,1.89,0,0,1,.72-.49,1.68,1.68,0,0,1,.68-.13,1.8,1.8,0,0,1,.6.13l-.93-2.35,1.07-.42,2.55,6.43Zm-1.73-.22a1.18,1.18,0,0,0,.51-.36,1.82,1.82,0,0,0,.29-.57l-.79-2a1.13,1.13,0,0,0-.52-.16,1.24,1.24,0,0,0-.5.09,1.1,1.1,0,0,0-.4.27.93.93,0,0,0-.22.41,1.43,1.43,0,0,0,0,.55,2.92,2.92,0,0,0,.19.7,3.2,3.2,0,0,0,.33.64,1.39,1.39,0,0,0,.35.37.74.74,0,0,0,.38.13A1,1,0,0,0,155.59,129.12Z"/><path class="cls-19" d="M134.8,147.73a.24.24,0,0,1,.19,0l.66.32a2.71,2.71,0,0,1-.65,1.09,3.49,3.49,0,0,1-1.24.78,3.38,3.38,0,0,1-1.35.26,3,3,0,0,1-1.21-.29,3.13,3.13,0,0,1-1-.77,4.07,4.07,0,0,1-.72-1.2,3.7,3.7,0,0,1-.28-1.39,3.14,3.14,0,0,1,1-2.33,3.76,3.76,0,0,1,1.21-.75,3.31,3.31,0,0,1,1.31-.26,3.08,3.08,0,0,1,1.13.24l-.18.7a.37.37,0,0,1-.05.13.26.26,0,0,1-.13.1.36.36,0,0,1-.23,0l-.33-.06a2.45,2.45,0,0,0-.47,0,2.52,2.52,0,0,0-1.4.64,1.93,1.93,0,0,0-.46.69,2.17,2.17,0,0,0-.14.86,2.86,2.86,0,0,0,.22,1,2.92,2.92,0,0,0,.52.88,2.24,2.24,0,0,0,.68.53,1.85,1.85,0,0,0,.77.19,2,2,0,0,0,.8-.15,3.42,3.42,0,0,0,.42-.2,1.93,1.93,0,0,0,.32-.22,1.7,1.7,0,0,0,.25-.27,2.12,2.12,0,0,0,.2-.33.42.42,0,0,1,.07-.1A.24.24,0,0,1,134.8,147.73Z"/><path class="cls-19" d="M136.94,143.37a2.61,2.61,0,0,1,1-.2,2.11,2.11,0,0,1,.87.18,2.18,2.18,0,0,1,.73.55,3.21,3.21,0,0,1,.75,1.9,2.23,2.23,0,0,1-.16.9,2.06,2.06,0,0,1-.51.73,2.83,2.83,0,0,1-1.81.72,2.08,2.08,0,0,1-.88-.18,2.22,2.22,0,0,1-.73-.55,3.18,3.18,0,0,1-.75-1.9,2.17,2.17,0,0,1,.16-.9,2.1,2.1,0,0,1,.51-.73A2.64,2.64,0,0,1,136.94,143.37Zm1.49,3.75a1,1,0,0,0,.67-.7,2,2,0,0,0-.17-1.2,2,2,0,0,0-.7-1,1.18,1.18,0,0,0-1.65.66,2,2,0,0,0,.17,1.2,2,2,0,0,0,.7,1A1,1,0,0,0,138.42,147.12Z"/><path class="cls-19" d="M141.75,146.68,140,142.24l.65-.26a.28.28,0,0,1,.35.09l.2.3a2.9,2.9,0,0,1,.15-.33,1.63,1.63,0,0,1,.2-.29,1.47,1.47,0,0,1,.26-.25,1.4,1.4,0,0,1,.35-.19,1.11,1.11,0,0,1,.78,0,1.46,1.46,0,0,1,.64.44,1.44,1.44,0,0,1,.11-.48,1.49,1.49,0,0,1,.24-.39,1.76,1.76,0,0,1,.34-.3,2.11,2.11,0,0,1,.4-.21,1.92,1.92,0,0,1,.7-.15,1.35,1.35,0,0,1,.61.14,1.58,1.58,0,0,1,.51.41,2.48,2.48,0,0,1,.38.67l1.12,2.83-1.07.42-1.12-2.83a1,1,0,0,0-.44-.57.73.73,0,0,0-.63,0,.89.89,0,0,0-.28.18.78.78,0,0,0-.18.26.79.79,0,0,0-.06.33,1.12,1.12,0,0,0,.08.39l1.12,2.83-1.07.43-1.12-2.83a1,1,0,0,0-.44-.58.72.72,0,0,0-.61,0,.93.93,0,0,0-.38.29,1.54,1.54,0,0,0-.25.46l1.29,3.25Z"/><path class="cls-19" d="M149.62,145.24l-2.34-5.89.65-.26a.35.35,0,0,1,.2,0,.24.24,0,0,1,.15.11l.25.38a2.41,2.41,0,0,1,.42-.74,1.79,1.79,0,0,1,.74-.51,1.57,1.57,0,0,1,.72-.11,1.62,1.62,0,0,1,.69.23,2.28,2.28,0,0,1,.62.58,3.81,3.81,0,0,1,.5.92,3.26,3.26,0,0,1,.23,1,2.42,2.42,0,0,1-.09.89,1.86,1.86,0,0,1-1.13,1.21,1.73,1.73,0,0,1-.68.14,1.71,1.71,0,0,1-.6-.13l.72,1.82Zm0-6a1.19,1.19,0,0,0-.51.37,1.77,1.77,0,0,0-.28.57l.79,2a1.08,1.08,0,0,0,.52.16,1.25,1.25,0,0,0,.5-.09,1.12,1.12,0,0,0,.4-.26.91.91,0,0,0,.22-.41,1.45,1.45,0,0,0,0-.55,2.88,2.88,0,0,0-.19-.7,3.18,3.18,0,0,0-.33-.64,1.37,1.37,0,0,0-.35-.37.76.76,0,0,0-.38-.13A1,1,0,0,0,149.66,139.28Z"/><path class="cls-19" d="M152.53,135l2.55,6.43-1.07.42-2.55-6.43Z"/><path class="cls-19" d="M155.31,134.67a.67.67,0,0,1,0,.28.75.75,0,0,1-.07.27.77.77,0,0,1-.16.23.72.72,0,0,1-.25.16.7.7,0,0,1-.28,0,.76.76,0,0,1-.27-.06.79.79,0,0,1-.23-.16.68.68,0,0,1-.16-.24.74.74,0,0,1-.05-.29.77.77,0,0,1,.06-.27.71.71,0,0,1,.16-.23.7.7,0,0,1,.24-.16.71.71,0,0,1,.29-.05.74.74,0,0,1,.51.21A.69.69,0,0,1,155.31,134.67Zm.35,1.36,1.76,4.44-1.07.42-1.76-4.44Z"/><path class="cls-19" d="M162.12,138.61l-.48.19a.57.57,0,0,1-.26,0,.31.31,0,0,1-.2-.13l-.22-.28a4.16,4.16,0,0,1-.23.4,2.15,2.15,0,0,1-.26.33,1.8,1.8,0,0,1-.32.26,2.33,2.33,0,0,1-.42.21,1.83,1.83,0,0,1-.55.13,1.21,1.21,0,0,1-.5-.06,1.12,1.12,0,0,1-.41-.27,1.44,1.44,0,0,1-.3-.49,1.11,1.11,0,0,1-.06-.55,1.32,1.32,0,0,1,.26-.62,3,3,0,0,1,.69-.65,6.31,6.31,0,0,1,1.21-.65l-.1-.26a1,1,0,0,0-.45-.59.74.74,0,0,0-.63,0,1.43,1.43,0,0,0-.41.23,1.93,1.93,0,0,0-.25.25l-.18.23a.53.53,0,0,1-.21.15.34.34,0,0,1-.21,0,.48.48,0,0,1-.18-.09l-.33-.26a2.85,2.85,0,0,1,1.57-1.44,2,2,0,0,1,.75-.15,1.57,1.57,0,0,1,1.2.57,2.19,2.19,0,0,1,.39.65Zm-2.34.16a1.45,1.45,0,0,0,.29-.15,1.23,1.23,0,0,0,.23-.19,1.43,1.43,0,0,0,.18-.24,2.18,2.18,0,0,0,.15-.3l-.3-.75a6.32,6.32,0,0,0-.75.39,2.22,2.22,0,0,0-.45.35.7.7,0,0,0-.19.32.52.52,0,0,0,0,.3.5.5,0,0,0,.33.34A.77.77,0,0,0,159.78,138.76Z"/><path class="cls-19" d="M163.17,138.19l-1.76-4.44.65-.26a.28.28,0,0,1,.35.09l.21.32a2.76,2.76,0,0,1,.18-.36,2.18,2.18,0,0,1,.24-.32,1.7,1.7,0,0,1,.31-.27,2,2,0,0,1,.4-.21,1.72,1.72,0,0,1,.69-.13,1.37,1.37,0,0,1,.61.16,1.66,1.66,0,0,1,.5.42,2.44,2.44,0,0,1,.37.64l1.12,2.83-1.07.42-1.12-2.83a1,1,0,0,0-.44-.56.75.75,0,0,0-.65,0,1.19,1.19,0,0,0-.47.33,2,2,0,0,0-.32.52l1.27,3.21Z"/><path class="cls-19" d="M169.58,135.73a1.26,1.26,0,0,1-1,0,1.34,1.34,0,0,1-.67-.78l-1-2.48-.45.18a.22.22,0,0,1-.3-.14l-.17-.42.67-.4-.25-1.3a.24.24,0,0,1,0-.17.28.28,0,0,1,.14-.11l.55-.22.55,1.4,1.17-.46.3.76-1.17.46,1,2.41a.51.51,0,0,0,.23.28.38.38,0,0,0,.32,0,.63.63,0,0,0,.16-.09l.1-.1.07-.08a.17.17,0,0,1,.07-.05.13.13,0,0,1,.09,0l.09,0,.53.39a1.79,1.79,0,0,1-.42.51A2.17,2.17,0,0,1,169.58,135.73Z"/></svg>