<?xml version="1.0" encoding="utf-8"?>
<!-- Generator: Adobe Illustrator 21.0.0, SVG Export Plug-In . SVG Version: 6.00 Build 0)  -->
<svg version="1.1" id="Layer_1" xmlns="http://www.w3.org/2000/svg" xmlns:xlink="http://www.w3.org/1999/xlink" x="0px" y="0px"
	 viewBox="0 0 283.5 285" style="enable-background:new 0 0 283.5 285;" xml:space="preserve">
<style type="text/css">
	.st0{fill:none;stroke:#FFFFFF;stroke-width:3;stroke-linecap:round;stroke-linejoin:round;}
	.st1{fill:none;stroke:#FFFFFF;stroke-width:5;stroke-linecap:round;stroke-linejoin:round;}
	.st2{fill:none;stroke:#FFFFFF;stroke-width:2;stroke-linecap:round;stroke-linejoin:round;}
</style>
<title>Artboard 4</title>
<rect x="168" y="145" transform="matrix(0.5658 -0.8245 0.8245 0.5658 -33.3739 238.1902)" class="st0" width="83.1" height="11.5"/>
<polyline class="st0" points="181.3,181.8 178.4,196.2 190.7,188.3 "/>
<line class="st1" x1="175.5" y1="200.4" x2="179.4" y2="194.6"/>
<line class="st2" x1="233.6" y1="116.3" x2="186.3" y2="184.6"/>
<path class="st1" d="M205.6,166.7v52.4c0,3.4-2.8,6.2-6.2,6.2c0,0,0,0,0,0h-116c-3.4,0-6.2-2.8-6.2-6.2c0,0,0,0,0,0V65.9
	c0-3.4,2.8-6.2,6.2-6.2h116c3.4,0,6.2,2.8,6.2,6.2v79.4"/>
<line class="st1" x1="78.2" y1="86.5" x2="205.5" y2="86.5"/>
<rect x="90.4" y="68.9" class="st0" width="35.3" height="7.8"/>
<rect x="91.4" y="104" class="st1" width="100" height="34.7"/>
<line class="st1" x1="191.4" y1="158" x2="91.4" y2="158"/>
<line class="st1" x1="174.7" y1="178.2" x2="91.4" y2="178.2"/>
<line class="st1" x1="141.9" y1="197.4" x2="91.4" y2="197.4"/>
</svg>
