<?xml version="1.0" encoding="utf-8"?>
<!-- Generator: Adobe Illustrator 21.0.0, SVG Export Plug-In . SVG Version: 6.00 Build 0)  -->
<svg version="1.1" id="Layer_1" xmlns="http://www.w3.org/2000/svg" xmlns:xlink="http://www.w3.org/1999/xlink" x="0px" y="0px"
	 viewBox="0 0 285.8 285" style="enable-background:new 0 0 285.8 285;" xml:space="preserve">
<style type="text/css">
	.st0{fill:none;stroke:#FFFFFF;stroke-width:5;stroke-linecap:round;stroke-linejoin:round;}
</style>
<title>Artboard 2</title>
<path class="st0" d="M216.6,183.9h-17.7c-3.9,0-7.1,3.6-7.1,7.9v36.6h73.1v-36.6c0-4.4-3.2-7.9-7.1-7.9h-17.4"/>
<path class="st0" d="M228.1,139.9h0.9c10.1,0,18.3,8.2,18.3,18.3v11.4c0,10.1-8.2,18.3-18.3,18.3h-0.9c-10.1,0-18.3-8.2-18.3-18.3
	v-11.4C209.8,148.1,218,139.9,228.1,139.9z"/>
<path class="st0" d="M238,154.8c-4,2.6-8.7,3.9-13.5,3.9c-5.4,0-14.8-1.9-14.8-0.5v11.4c0,10.1,8.2,18.3,18.3,18.3l0,0h0.9
	c10.1,0,18.3-8.2,18.3-18.3l0,0v-11c-3.3-0.5-6.5-1.7-9.3-3.6L238,154.8z"/>
<line class="st0" x1="238" y1="154.8" x2="238" y2="142.3"/>
<path class="st0" d="M136.6,85.9h-17.7c-3.9,0-7.2,3.6-7.2,7.9v36.6h73.1V93.8c0-4.4-3.2-7.9-7.1-7.9h-17.3"/>
<path class="st0" d="M148.1,41.9h0.9c10.1,0,18.3,8.2,18.3,18.3v11.4c0,10.1-8.2,18.3-18.3,18.3h-0.9c-10.1,0-18.3-8.2-18.3-18.3
	V60.2C129.8,50.1,138,41.9,148.1,41.9z"/>
<path class="st0" d="M158,56.8c-4,2.6-8.7,3.9-13.5,3.9c-5.4,0-14.8-1.9-14.8-0.5v11.5c0,10.1,8.2,18.3,18.3,18.3h0.9
	c10.1,0,18.3-8.2,18.3-18.3c0,0,0,0,0,0V60.5c-3.3-0.5-6.5-1.7-9.3-3.6L158,56.8z"/>
<line class="st0" x1="158" y1="56.8" x2="158" y2="44.3"/>
<path class="st0" d="M54.6,183.9H37c-4,0-7.1,3.6-7.1,7.9v36.6H103v-36.6c0-4.4-3.2-7.9-7.2-7.9H78.5"/>
<path class="st0" d="M66.1,139.9H67c10.1,0,18.3,8.2,18.3,18.3v11.4c0,10.1-8.2,18.3-18.3,18.3h-0.9c-10.1,0-18.3-8.2-18.3-18.3
	v-11.4C47.8,148.1,56,139.9,66.1,139.9z"/>
<path class="st0" d="M76,154.8c-4,2.6-8.7,3.9-13.5,3.9c-5.4,0-14.8-1.9-14.8-0.5v11.4c0,10.1,8.2,18.3,18.3,18.3l0,0H67
	c10.1,0,18.3-8.2,18.3-18.3l0,0v-11c-3.3-0.5-6.5-1.7-9.3-3.6L76,154.8z"/>
<line class="st0" x1="76" y1="154.8" x2="76" y2="142.3"/>
<line class="st0" x1="117.1" y1="188.6" x2="182.1" y2="188.6"/>
<polyline class="st0" points="175.9,195.1 182.2,188.7 175.5,182 "/>
<polyline class="st0" points="155.8,159.6 149.4,153.2 142.6,159.9 "/>
<polyline class="st0" points="123.5,182 117.1,188.4 123.8,195.1 "/>
<line class="st0" x1="149.2" y1="154.8" x2="149.2" y2="187.9"/>
</svg>
