<?xml version="1.0" encoding="utf-8"?>
<!-- Generator: Adobe Illustrator 21.0.0, SVG Export Plug-In . SVG Version: 6.00 Build 0)  -->
<svg version="1.1" id="Layer_1" xmlns="http://www.w3.org/2000/svg" xmlns:xlink="http://www.w3.org/1999/xlink" x="0px" y="0px"
	 viewBox="0 0 284.8 285" style="enable-background:new 0 0 284.8 285;" xml:space="preserve">
<style type="text/css">
	.st0{fill:none;stroke:#FFFFFF;stroke-width:5;stroke-linecap:round;stroke-linejoin:round;}
</style>
<title>Artboard 3</title>
<path class="st0" d="M64.2,126.2l-23.8,10c-2.2,0.9-2.2,2.4,0,3.4l98,41.2c2.6,0.9,5.4,0.9,8,0l98-41.2c2.2-0.9,2.2-2.4,0-3.4
	l-23.8-10"/>
<path class="st0" d="M64.2,150.8l-23.8,10c-2.2,0.9-2.2,2.4,0,3.4l98,41.2c2.6,0.9,5.4,0.9,8,0l98-41.2c2.2-0.9,2.2-2.4,0-3.4
	l-23.8-10"/>
<path class="st0" d="M64.2,174.3l-23.8,10c-2.2,0.9-2.2,2.4,0,3.4l98,41.2c2.6,0.9,5.4,0.9,8,0l98-41.2c2.2-0.9,2.2-2.4,0-3.4
	l-23.8-10"/>
<path class="st0" d="M244.4,111.5c2.2,0.9,2.2,2.4,0,3.4l-98,41.2c-2.6,0.9-5.4,0.9-8,0l-98-41.2c-2.2-0.9-2.2-2.4,0-3.4l98-41.2
	c2.6-0.9,5.4-0.9,8,0L244.4,111.5z"/>
<line class="st0" x1="139.7" y1="86.4" x2="198.7" y2="111.6"/>
<line class="st0" x1="114.3" y1="98.1" x2="173.4" y2="123.2"/>
<line class="st0" x1="90.3" y1="110" x2="149.4" y2="135.2"/>
</svg>
