<?xml version="1.0" encoding="utf-8"?>
<!-- Generator: Adobe Illustrator 21.0.0, SVG Export Plug-In . SVG Version: 6.00 Build 0)  -->
<svg version="1.1" id="Layer_1" xmlns="http://www.w3.org/2000/svg" xmlns:xlink="http://www.w3.org/1999/xlink" x="0px" y="0px"
	 viewBox="0 0 32.5 48.6" style="enable-background:new 0 0 32.5 48.6;" xml:space="preserve">
<style type="text/css">
	.st0{fill:#66CCFF;}
</style>
<title>call</title>
<path class="st0" d="M9.1,48.6c-1.1,0-2.3-0.2-3.3-0.7c-0.4-0.2-0.7-0.4-1-0.6l-2.8-2.1c-1-0.8-1.4-2.2-0.8-3.3l3.5-7.5
	c0.7-1.5,2.1-2.2,3.3-1.7l3.9,1.7c2.1,0.9,5.1-1,6.6-4.3l3.2-7c0.9-1.8,1.1-3.9,0.5-5.9c-0.3-0.8-0.8-1.4-1.6-1.8c0,0,0,0-0.1,0
	l-3.8-1.7c-0.5-0.2-0.9-0.6-1-1.1c-0.3-0.8-0.2-1.7,0.2-2.4l3.5-7.5c0.5-1.2,1.8-1.8,3.1-1.6l3.4,0.7c0,0,0,0,0.1,0
	C26,1.8,26.4,2,26.8,2.1c2.2,1.1,3.9,3,4.6,5.3c2.2,5.7,1.1,14.6-2.8,23.1C23.5,41.5,15.6,48.6,9.1,48.6z M7,34.5
	c-0.3,0.1-0.5,0.4-0.6,0.7l-3.5,7.5c-0.1,0.3,0,0.7,0.2,0.9l2.7,2.1c0.2,0.1,0.5,0.3,0.7,0.4c5.7,2.5,14.9-4.9,20.1-16.4
	c3.7-8,4.8-16.3,2.8-21.6C29,6.3,27.7,4.8,26,4c-0.3-0.1-0.5-0.2-0.8-0.3L21.8,3c-0.4-0.1-0.7,0.1-0.9,0.4L17.5,11
	c-0.2,0.3-0.2,0.6-0.1,0.9l3.8,1.7c0,0,0,0,0.1,0c1.2,0.6,2.1,1.6,2.5,2.9c0.8,2.5,0.6,5.1-0.6,7.4l-3.2,7c-2,4.4-6.1,6.7-9.2,5.3
	L7,34.5z"/>
</svg>
