<?xml version="1.0" encoding="utf-8"?>
<!-- Generator: Adobe Illustrator 21.0.0, SVG Export Plug-In . SVG Version: 6.00 Build 0)  -->
<svg version="1.1" id="Layer_1" xmlns="http://www.w3.org/2000/svg" xmlns:xlink="http://www.w3.org/1999/xlink" x="0px" y="0px"
	 viewBox="0 0 100 125" style="enable-background:new 0 0 100 125;" xml:space="preserve">
<style type="text/css">
	.st0{fill:#ACA340;stroke:#ACA340;stroke-miterlimit:10;}
</style>
<g>
	<path class="st0" d="M88.5,44.3h-2.4c-0.2-0.1-0.4-0.1-0.6-0.1s-0.4,0-0.6,0.1h-2.8V29.5c0-0.8-0.6-1.4-1.4-1.4s-1.4,0.6-1.4,1.4
		v14.9h-3.2v-8.3c0-0.4-0.3-0.7-0.7-0.7c-0.4,0-0.7,0.3-0.7,0.7v8.3h-8.6V29.5c0-0.8-0.6-1.4-1.4-1.4c-0.8,0-1.4,0.6-1.4,1.4v14.9
		h-5.8c-0.8,0-1.4,0.6-1.4,1.4s0.6,1.4,1.4,1.4h1.3v2.9c0,1.6,1.2,3,2.7,3.3v14.3c0,1.5,1,2.8,2.4,3.2v4c0,2.8-2.4,5.1-5.3,5.1
		s-5.3-2.3-5.3-5.1v-3.7c1.7-0.5,2.9-2.1,2.9-3.9v-0.7c0-1.9-1.3-3.6-3.1-4V52.3c0-10-8.1-18.1-18.1-18.1h-9.8
		c-0.1-1.8-1.6-3.2-3.4-3.2h-3v-0.1c0-1.9-1.5-3.4-3.4-3.4H11c-0.8,0-1.4,0.6-1.4,1.4v26.6c0,0.8,0.6,1.4,1.4,1.4h4.4
		c1.9,0,3.4-1.5,3.4-3.4v-0.1h3c1.5,0,2.8-1,3.2-2.3h4.4c3.8,0,7,3.1,7,7v4.6c-1.5,0.6-2.5,2-2.5,3.9v0.7c0,1.9,1.3,3.5,3.1,4v4.1
		c0,7.9,4.6,15.2,11.9,18.8v6.3c0,0.8,0.6,1.4,1.4,1.4s1.4-0.6,1.4-1.4v-7.1c0-0.5-0.3-1-0.8-1.3c-6.7-3-11-9.5-11-16.7v-5.3h4.3
		c0.4,0,0.7-0.3,0.7-0.7c0-0.4-0.3-0.7-0.7-0.7h-5.5l0,0h-0.1l0,0h-0.3c-0.8,0-1.4-0.6-1.4-1.4v-0.7c0-0.2,0.1-1.4,1.1-1.4
		c0.1,0,0.1,0,0.2,0h6.1c0.4,0,0.7-0.3,0.7-0.7s-0.3-0.7-0.7-0.7h-4.9v-5.7c0-5.4-4.4-9.7-9.7-9.7h-5.5c0,0,0,0-0.1,0v-8
		c0-0.4-0.3-0.7-0.7-0.7c-0.4,0-0.7,0.3-0.7,0.7v9.7c0,0.1,0,0.1,0,0.2c-0.1,0.3-0.3,0.4-0.6,0.4h-3V33.8h3c0.4,0,0.6,0.3,0.6,0.6
		v1.2c0,0.8,0.6,1.4,1.4,1.4h11.2c8.5,0,15.4,6.9,15.4,15.4v11.5c0,0.8,0.6,1.4,1.4,1.4h0.4c0.8,0,1.4,0.6,1.4,1.4v0.7
		c0,0.8-0.6,1.4-1.4,1.4h-0.1c-0.8,0-1.4,0.6-1.4,1.4l0,0l0,0V75c0,4.3,3.6,7.8,8,7.8s8-3.5,8-7.8v-3.9h10.9v4.3
		c0,7.6-4.7,14.3-11.9,17.1c-0.5,0.2-0.8,0.6-0.9,1.2V94v0.1v6.5c0,0.8,0.6,1.4,1.4,1.4s1.4-0.6,1.4-1.4v-5.8
		c7.8-3.4,12.8-10.9,12.8-19.3v-4.3h0.2c1.9,0,3.4-1.5,3.4-3.4V53.3C85.8,53,87,51.6,87,50v-2.9h1.6c0.8,0,1.4-0.6,1.4-1.4
		S89.3,44.3,88.5,44.3z M16.4,53.5c0,0.4-0.3,0.6-0.6,0.6h-3V30.3h3c0.4,0,0.6,0.3,0.6,0.6v1.4V52V53.5z M84.2,50
		c0,0.4-0.3,0.6-0.6,0.6h-0.7c-0.8,0-1.4,0.6-1.4,1.4v15.6c0,0.4-0.3,0.6-0.6,0.6h-1.4c-0.1,0-0.1,0-0.2,0s-0.1,0-0.2,0H65.2
		c-0.4,0-0.6-0.3-0.6-0.6V52c0-0.8-0.6-1.4-1.4-1.4h-0.7c-0.4,0-0.6-0.3-0.6-0.6v-2.9h22.3V50z"/>
</g>
</svg>
