<svg id="Layer_1" data-name="Layer 1" xmlns="http://www.w3.org/2000/svg" viewBox="0 0 221.55 67.55"><defs><style>.cls-1,.cls-10,.cls-4{fill:#fff;}.cls-1,.cls-10,.cls-5,.cls-6,.cls-7,.cls-8,.cls-9{stroke:#1d1d1b;}.cls-1,.cls-5,.cls-6,.cls-8,.cls-9{stroke-miterlimit:10;}.cls-1,.cls-5{stroke-width:2px;}.cls-2{fill:#e30613;}.cls-3,.cls-9{fill:#1d1d1b;}.cls-5,.cls-6,.cls-7{fill:none;}.cls-10,.cls-5,.cls-7{stroke-linecap:round;}.cls-10,.cls-7{stroke-linejoin:round;}.cls-8{fill:#e31013;}</style></defs><title>solutions</title><circle class="cls-1" cx="33.08" cy="33.52" r="28.49"/><path class="cls-2" d="M15.08,22s-2,21.86,18,34.2H33c20.05-12.34,18-34.2,18-34.2S39,21.83,33,12.48C27.13,21.83,15,22,15,22"/><path class="cls-3" d="M25.78,33.51v5.79a6.78,6.78,0,0,0,6.78,6.78H33a6.78,6.78,0,0,0,6.79-6.78V33.51Z"/><path class="cls-4" d="M33.29,39.07v3.82h-1V39.07a1.58,1.58,0,1,1,1,0Z"/><path class="cls-5" d="M27.15,30.06s.33-1.21.39-1.38c1.2-3.53,4.58-5.75,7.55-4.93s4.77,4.48,4,8.15c0,.16-.47,1.74-.47,1.75"/><line class="cls-6" x1="22.16" y1="26.91" x2="24.59" y2="30.33"/><line class="cls-6" x1="19.26" y1="31.56" x2="23.38" y2="32.36"/><line class="cls-6" x1="19.71" y1="35.99" x2="23.74" y2="34.84"/><circle class="cls-1" cx="110.16" cy="33.66" r="28.35"/><path class="cls-2" d="M113.5,23.75l-10,15.53s-13.63.51-13.94-6.76c-.23-5.39,6.95-16.05,11.85-18.32C108.11,11.08,113.5,23.75,113.5,23.75Z"/><path class="cls-7" d="M111.85,20.58l3,1.93a1.42,1.42,0,0,1,.42,2L104.71,40.78a1.42,1.42,0,0,1-2,.42l-2.91-1.88"/><circle class="cls-8" cx="110.99" cy="37.24" r="1.17" transform="translate(19.4 110.16) rotate(-57.08)"/><polyline class="cls-7" points="106.77 39.13 107.67 37.74 110.18 37.32"/><circle class="cls-8" cx="114.66" cy="31.42" r="1.17" transform="translate(26.01 110.64) rotate(-57.11)"/><polyline class="cls-7" points="114.65 26.8 113.75 28.19 114.41 30.65"/><path class="cls-9" d="M96.29,24.71a3.79,3.79,0,0,1,1.09-1.2,4.09,4.09,0,0,1,1.36-.61l.15.3a.25.25,0,0,1,0,.22.27.27,0,0,1-.14.1l-.28.11-.37.16a2.84,2.84,0,0,0-.43.25,3.16,3.16,0,0,0-.45.39,3,3,0,0,0-.44.57l3.85,2.34q.36-.35.74-.67a3.21,3.21,0,0,1,.8-.49,2.21,2.21,0,0,1,.9-.17,2.28,2.28,0,0,1,1,.31,2.48,2.48,0,0,1,.74.61,2.41,2.41,0,0,1,.46.86,2.7,2.7,0,0,1,.09,1A3.38,3.38,0,0,1,105,30l1,.62a.28.28,0,0,1,.11.13.19.19,0,0,1,0,.16l-.12.22-1.21-.74a3.39,3.39,0,0,1-.87,1,3.68,3.68,0,0,1-1.09.53l-.14-.25a.21.21,0,0,1,0-.22.39.39,0,0,1,.21-.14,3.46,3.46,0,0,0,.4-.2,3.32,3.32,0,0,0,.5-.36,2.7,2.7,0,0,0,.52-.62L100.86,28l-.51.48a6.82,6.82,0,0,1-.53.45,3.67,3.67,0,0,1-.56.35,2.09,2.09,0,0,1-.6.19,1.93,1.93,0,0,1-.65,0,2.31,2.31,0,0,1-.71-.26,3.21,3.21,0,0,1-.91-.73,2.81,2.81,0,0,1-.55-1,2.89,2.89,0,0,1-.13-1.15,3.63,3.63,0,0,1,.36-1.26l-1.28-.78a.26.26,0,0,1-.11-.13.18.18,0,0,1,0-.16l.12-.22Zm1.22,3.89a1.64,1.64,0,0,0,.78.22,1.72,1.72,0,0,0,.71-.16,2.85,2.85,0,0,0,.66-.42q.32-.27.64-.58L96.56,25.4a2.94,2.94,0,0,0-.28,1,2.28,2.28,0,0,0,.1.9,2.11,2.11,0,0,0,.42.75A2.51,2.51,0,0,0,97.51,28.6Zm6.34-1.7a1.67,1.67,0,0,0-.74-.22,1.63,1.63,0,0,0-.67.12,2.74,2.74,0,0,0-.63.36,7.89,7.89,0,0,0-.61.52l3.35,2a2.73,2.73,0,0,0,.27-.92,2.12,2.12,0,0,0-.07-.8,1.76,1.76,0,0,0-.34-.64A1.92,1.92,0,0,0,103.85,26.9Z"/><circle class="cls-7" cx="116.67" cy="41.1" r="2.87"/><circle class="cls-7" cx="122.42" cy="48.6" r="2.87"/><circle class="cls-10" cx="120.26" cy="53.1" r="2.87"/><circle class="cls-1" cx="184.4" cy="33.51" r="28.35"/><polygon class="cls-2" points="181.54 24.74 189.79 9.24 191.29 22.36 204.29 22.36 199.54 26.74 208.54 27.99 192.54 39.92 198.54 50.74 180.04 42.49 168.04 45.74 172.04 39.92 159.29 36.78 170.29 29.99 166.29 20.49 181.54 24.74"/><path class="cls-3" d="M162.49,27.21l7.08.25a7.63,7.63,0,0,1,1.58.22,3.82,3.82,0,0,1,1.19.47,2.5,2.5,0,0,1,.81.8,1.65,1.65,0,0,1-.72,2.41,4.1,4.1,0,0,1-.82.39c-.29.1-.7.21-1.22.34v0a8.57,8.57,0,0,1,1.62.51q1.73.83,1.68,2.19a1.84,1.84,0,0,1-.57,1.29,3.44,3.44,0,0,1-1.54.81,8,8,0,0,1-2.33.22l-7.1-.25V36.6h.28a1.54,1.54,0,0,0,1.82-1.7l.2-5.62a1.83,1.83,0,0,0-.38-1.35,1.8,1.8,0,0,0-1.31-.48h-.28Zm3.92,4.89-.16,4.67,2.17.08a3.21,3.21,0,0,0,2.13-.54,2.14,2.14,0,0,0,.79-1.71,2,2,0,0,0-.54-1.55,2.39,2.39,0,0,0-1.08-.66,7.94,7.94,0,0,0-1.9-.24Zm.16-4.5-.15,4.23,2.1.07q2.58.09,2.66-2.16a1.9,1.9,0,0,0-.5-1.52,2.51,2.51,0,0,0-1.68-.55Z"/><path class="cls-3" d="M182.08,38.88a1.51,1.51,0,0,1-.53,1.09,1.54,1.54,0,0,1-1.13.44,1.4,1.4,0,0,1-1.25-.78L178,37.46c0,.08,0,.21,0,.41s0,.34,0,.44a2.09,2.09,0,0,1-.52,1.53,1.61,1.61,0,0,1-1.18.41,1.32,1.32,0,0,1-1.14-.65,2.27,2.27,0,0,1-.31-1.31l.21-6q.06-1.6,1.85-1.54l2,.07a3.35,3.35,0,0,1,2.39,1,3.2,3.2,0,0,1,.91,2.43,3.46,3.46,0,0,1-1.09,2.41l.62,1A2.31,2.31,0,0,1,182.08,38.88Zm-5.47.6c0-.11-.09-.2-.29-.25s-.35-.17-.39-.3a1.73,1.73,0,0,1,0-.5l.21-6a.24.24,0,0,0-.26-.28c-.15,0-.23.09-.24.29l-.2,5.83q0,1.44.88,1.48C176.5,39.76,176.61,39.67,176.61,39.48Zm-.25-7.74c0-.2-.09-.3-.27-.31s-.27.09-.28.29.08.29.26.29a.32.32,0,0,0,.29-.27Zm3.78,2.67a1.66,1.66,0,0,0-.38-1.22,1.59,1.59,0,0,0-1.17-.48h-.41a.24.24,0,0,0-.24.25q0,.23.49.26a2.52,2.52,0,0,1,.79.16,1,1,0,0,1,.44.84q0,.48.25.49C180,34.71,180.13,34.61,180.13,34.41Zm.66,5.2q0-.18-.32-.28A.79.79,0,0,1,180,39l-1.45-2.67c-.08-.14-.17-.22-.26-.22s-.24.08-.25.25a8.48,8.48,0,0,0,.72,1.43l.88,1.52a1,1,0,0,0,.84.55C180.67,39.85,180.79,39.77,180.79,39.61Zm-1.64-5.39q0-.5-.71-.52h-.32l0,1h.32Q179.13,34.75,179.15,34.22Z"/><path class="cls-3" d="M188.66,35.52a1.34,1.34,0,0,0-.06.23,1.78,1.78,0,0,0,0,.22.5.5,0,0,0,.13.42.7.7,0,0,0,.44.13h.17l.14,0c-.11.24-.21.45-.3.63a1.89,1.89,0,0,1-.31.44,1,1,0,0,1-.37.25,1.24,1.24,0,0,1-.48.07,1.32,1.32,0,0,1-.94-.37,1.58,1.58,0,0,1-.41-1,4.05,4.05,0,0,1-.38.46,3,3,0,0,1-.49.41,2.35,2.35,0,0,1-.59.28,2,2,0,0,1-.69.09,2.13,2.13,0,0,1-.7-.14,1.53,1.53,0,0,1-.59-.41,2,2,0,0,1-.4-.72,3.1,3.1,0,0,1-.12-1.07,6,6,0,0,1,.13-1,6.42,6.42,0,0,1,.34-1.1,6.16,6.16,0,0,1,.54-1,4.31,4.31,0,0,1,.74-.88,3.23,3.23,0,0,1,.94-.59,2.7,2.7,0,0,1,1.13-.19,1.46,1.46,0,0,1,.87.24.62.62,0,0,1,.25.52v.1l.18-.75,2,.07ZM187.48,32a.62.62,0,0,0,0-.16.57.57,0,0,0-.09-.18.51.51,0,0,0-.17-.15.6.6,0,0,0-.28-.07.94.94,0,0,0-.57.17,2.07,2.07,0,0,0-.51.5,4.15,4.15,0,0,0-.42.72,6.91,6.91,0,0,0-.32.83,7.28,7.28,0,0,0-.21.84,5.36,5.36,0,0,0-.09.75,2,2,0,0,0,.05.63.86.86,0,0,0,.17.34.43.43,0,0,0,.23.14l.22,0a.84.84,0,0,0,.34-.07,1.25,1.25,0,0,0,.35-.22,1.69,1.69,0,0,0,.31-.38,1.9,1.9,0,0,0,.22-.54Z"/><path class="cls-3" d="M192,26l1.4,0,3.52,9.84,1.33-9.67.84,0-1.44,10-1.49-.05-3.41-9.59L191.39,36l-.85,0Z"/><path class="cls-3" d="M206.82,37.91l0,.51-2-.07-.17-.81a2.56,2.56,0,0,1-2,.85c-1.32,0-2.49-1-2.41-3.18a3.27,3.27,0,0,1,3.28-3.43,3.57,3.57,0,0,1,1.24.24l.09-2.65-1.16,0,0-.54,1.73-.39.78,0-.31,9Zm-2.27-.79.15-4.31a2.57,2.57,0,0,0-1.12-.31c-1.1,0-1.9.67-2,2.36s.64,2.5,1.67,2.54A3.92,3.92,0,0,0,204.55,37.12Z"/></svg>