<?xml version="1.0" encoding="utf-8"?>
<!-- Generator: Adobe Illustrator 21.0.0, SVG Export Plug-In . SVG Version: 6.00 Build 0)  -->
<svg version="1.1" id="Layer_1" xmlns="http://www.w3.org/2000/svg" xmlns:xlink="http://www.w3.org/1999/xlink" x="0px" y="0px"
	 viewBox="0 0 512 512" style="enable-background:new 0 0 512 512;" xml:space="preserve">
<style type="text/css">
	.st0{fill:#ACA340;stroke:#ACA340;stroke-miterlimit:10;}
	.st1{fill:#ACA340;stroke:#ACA340;stroke-width:12;stroke-miterlimit:10;}
</style>
<g>
	<g>
		<path class="st0" d="M492.4,158c-18.6-44.9-49.3-83.2-89.3-111.4C359.9,16.2,309,0.2,256,0.2C132.4,0.2,26.6,88.3,4.4,209.7
			c-1,5.5,2.7,10.8,8.2,11.9c0.6,0.1,1.2,0.2,1.8,0.2c4.8,0,9.1-3.4,10-8.4C44.8,101.7,142.2,20.6,256,20.6
			c94.1,0,180,57.2,216.7,143.3l-19.2,5.6l44.1,42.1l14.4-59.3L492.4,158z"/>
	</g>
</g>
<g>
	<g>
		<path class="st0" d="M499.4,290.4c-5.5-1-10.8,2.7-11.9,8.2c-0.5,2.5-1,5.1-1.5,7.6c-1.2,5.5,2.3,10.9,7.8,12.1
			c0.7,0.2,1.5,0.2,2.2,0.2c4.7,0,8.9-3.3,10-8c0.6-2.8,1.2-5.5,1.7-8.3C508.6,296.8,505,291.4,499.4,290.4z"/>
	</g>
</g>
<g>
	<g>
		<path class="st0" d="M489.5,333.1c-5.3-2-11.1,0.7-13.1,5.9C442,430.2,353.5,491.4,256,491.4c-94.1,0-180-57.2-216.7-143.3
			l19.2-5.6l-44.1-42.1L0,359.7l19.6-5.8c18.6,44.9,49.3,83.2,89.3,111.4c43.2,30.4,94.1,46.5,147.1,46.5s103.9-16.1,147.1-46.5
			c42.2-29.8,74.2-70.9,92.3-119.1C497.4,341,494.8,335.1,489.5,333.1z"/>
	</g>
</g>
<g>
	<g>
		<path class="st1" d="M361.2,262.7l-68.1-5.6c-2.2-5.6-5.3-10.8-9.7-15l26.6-61.1c6.3-14.7,5.3-31.6-2.9-45.3
			c-8.2-13.7-22.1-22.3-37.9-23.6h-0.7c-8.7-0.8-17.5-0.5-26,0.3c-15.7,1.3-29.5,9.8-37.8,23.5c-8.3,13.5-9.4,29.7-3.4,44.3
			l25.5,62.2c-4.4,4.4-7.5,9.8-9.7,15.7l-61.1,3.7c-15.7,1-29.5,9-38.1,22.6c-8.5,13.5-10.2,29.7-4.4,44.6c3.1,8.1,7,16.1,11.2,23.8
			l0.5,0.8c8,13.7,21.6,22.6,37.6,23.8c1.5,0,2.9,0.3,4.1,0.3c14.3,0,28.1-6.4,37.3-17.6l41.5-49.5c3.1,0.8,6.3,1.3,9.7,1.3
			c5.3,0,10.4-1,15.1-2.9l40.2,50.8c9.2,11.8,23.2,18.4,38.1,18.4c1,0,1.9,0,3.1,0c15.7-1,29.8-9.3,38.1-23l0.5-0.8
			c4.4-7.4,8.5-15.2,11.7-23.3c6-14.7,4.9-31.1-3.4-44.8C390.8,272.5,376.9,263.9,361.2,262.7z M213.4,140.8
			c6.5-11,17.7-17.9,30.3-18.9c8.3-0.8,16.5-0.8,24.5-0.3h0.7c12.6,1,23.5,7.9,30,18.9c6.5,11.3,7.5,24.5,2.2,36.3l-25.7,58.8
			c-5.8-3.4-12.6-5.4-19.9-5.4c-7.5,0-14.6,2.2-20.4,5.6l-24.7-59.6C205.8,164.6,206.7,151.6,213.4,140.8z M197.1,353.9
			c-8.3,10-20.4,15-33.2,14c-12.6-1-23.5-8.1-30-19.2l-0.5-0.8c-4.1-7.1-7.8-14.7-10.7-22.3c-4.6-12-3.4-25,3.4-35.8
			c6.8-10.8,18-17.1,30.3-18.2l58.9-3.7c0,1-0.2,1.9-0.2,3.2c0,15.5,8.5,28.7,20.8,35.5L197.1,353.9z M225,271.3
			c0-16.9,13.6-30.9,30.5-30.9s30.5,13.7,30.5,30.9s-13.6,30.9-30.5,30.9S225,288.1,225,271.3z M393.2,326.9
			c-3.1,7.6-6.8,15-11.2,22.1l-0.5,0.8c-6.5,10.8-17.7,17.6-30.3,18.4c-12.8,0.8-25-4.7-33-14.7l-39.2-49.3
			c9.9-7.4,16.5-19.3,16.5-32.9c0-1.5,0-2.9-0.2-4.2l64.9,5.4c12.6,1,23.5,7.9,30,18.7C397.1,302.1,398.3,315.2,393.2,326.9z"/>
	</g>
</g>
</svg>
