<?xml version="1.0" encoding="utf-8"?>
<!-- Generator: Adobe Illustrator 21.0.0, SVG Export Plug-In . SVG Version: 6.00 Build 0)  -->
<svg version="1.1" id="Layer_1" xmlns="http://www.w3.org/2000/svg" xmlns:xlink="http://www.w3.org/1999/xlink" x="0px" y="0px"
	 viewBox="0 0 512 512" style="enable-background:new 0 0 512 512;" xml:space="preserve">
<style type="text/css">
	.st0{fill:#ACA340;}
</style>
<g>
	<g>
		<path class="st0" d="M506.7,414.8L285.4,60.5C279,50.4,268,44.3,256,44.3c-12,0-23,6.1-29.4,16.3L5.3,414.8
			c-6.8,10.8-7.1,24-0.9,35.1s17.5,17.8,30.3,17.8h442.6c12.8,0,24.1-6.7,30.3-17.8C513.8,438.7,513.4,425.6,506.7,414.8z
			 M489.7,440c-2.5,4.6-7.2,7.3-12.4,7.3H34.7c-5.2,0-9.9-2.7-12.4-7.3c-2.5-4.6-2.4-10,0.4-14.4L243.9,71.4
			c2.7-4.3,7.1-6.7,12.1-6.7s9.4,2.4,12.1,6.7l221.3,354.2C492.2,430,492.3,435.4,489.7,440z"/>
	</g>
</g>
<g>
	<g>
		<path class="st0" d="M319.1,273.2c-1.8-3.4-5.2-5.5-9-5.5H277l22.5-81.4c0.8-3.1,0.2-6.4-1.7-8.9c-1.9-2.5-4.9-4-8.1-4H235
			c-4.6,0-8.6,3.1-9.8,7.5l-36.1,130.4c-0.8,3.1-0.2,6.4,1.7,8.9c1.9,2.5,4.9,4,8.1,4H232l-22.5,81.4c-1.3,4.8,1,9.8,5.5,12
			c1.4,0.7,2.9,1,4.3,1c3.2,0,6.4-1.6,8.4-4.4l90.8-130.4C320.6,280.6,320.8,276.5,319.1,273.2z M245,353.4l10.2-36.7
			c0.8-3.1,0.2-6.4-1.7-8.9c-1.9-2.5-4.9-4-8.1-4h-33.1l30.4-110h33.5l-22.5,81.4c-0.8,3.1-0.2,6.4,1.7,8.9c1.9,2.5,4.9,4,8.1,4
			h26.9L245,353.4z"/>
	</g>
</g>
<g>
	<g>
		<path class="st0" d="M457.9,416.1h-74.4c-5.6,0-10.2,4.6-10.2,10.2s4.6,10.2,10.2,10.2h74.4c5.6,0,10.2-4.6,10.2-10.2
			C468.1,420.7,463.5,416.1,457.9,416.1z"/>
	</g>
</g>
<g>
	<g>
		<path class="st0" d="M353.9,416.1h-8.2c-5.6,0-10.2,4.6-10.2,10.2s4.6,10.2,10.2,10.2h8.2c5.6,0,10.2-4.6,10.2-10.2
			C364.1,420.7,359.5,416.1,353.9,416.1z"/>
	</g>
</g>
</svg>
