<?xml version="1.0" encoding="utf-8"?>
<!-- Generator: Adobe Illustrator 21.0.0, SVG Export Plug-In . SVG Version: 6.00 Build 0)  -->
<svg version="1.1" id="Layer_1" xmlns="http://www.w3.org/2000/svg" xmlns:xlink="http://www.w3.org/1999/xlink" x="0px" y="0px"
	 viewBox="0 0 512 512" style="enable-background:new 0 0 512 512;" xml:space="preserve">
<style type="text/css">
	.st0{fill:#ACA340;}
</style>
<g>
	<g>
		<path class="st0" d="M501.8,245.8H387.9V134.6c0-5.6-4.6-10.2-10.2-10.2H266.5V10.2C266.5,4.6,262,0,256.3,0H10.2
			C4.6,0,0,4.6,0,10.2v491.6c0,5.6,4.6,10.2,10.2,10.2h491.6c5.6,0,10.2-4.6,10.2-10.2V256C512,250.4,507.4,245.8,501.8,245.8z
			 M367.5,144.8v101h-223v-101H367.5z M20.4,20.4h225.7v104H20.4V20.4z M20.4,144.8h103.7v101H20.4V144.8z M20.4,266.2h225.7v101.7
			H20.4V266.2z M124.1,491.6H20.4V388.2h103.7L124.1,491.6L124.1,491.6z M367.5,491.6h-223V388.2h223V491.6z M491.6,491.6H387.9
			V388.2h33.3c5.6,0,10.2-4.6,10.2-10.2c0-5.6-4.6-10.2-10.2-10.2H266.5V266.2h225.1V491.6z"/>
	</g>
</g>
<g>
	<g>
		<path class="st0" d="M464.1,367.9h-6.1c-5.6,0-10.2,4.6-10.2,10.2c0,5.6,4.6,10.2,10.2,10.2h6.1c5.6,0,10.2-4.6,10.2-10.2
			C474.3,372.4,469.7,367.9,464.1,367.9z"/>
	</g>
</g>
</svg>
