<?xml version="1.0" encoding="utf-8"?>
<!-- Generator: Adobe Illustrator 21.0.0, SVG Export Plug-In . SVG Version: 6.00 Build 0)  -->
<svg version="1.1" id="Layer_1" xmlns="http://www.w3.org/2000/svg" xmlns:xlink="http://www.w3.org/1999/xlink" x="0px" y="0px"
	 viewBox="0 0 512 512" style="enable-background:new 0 0 512 512;" xml:space="preserve">
<style type="text/css">
	.st0{fill:#ACA340;}
</style>
<g>
	<g>
		<path class="st0" d="M408.3,170.7H368c-8.9-18.9-22.5-35.1-39.9-47.1c-11.9-8.2-25.1-14.1-38.9-17.5V89.9h47
			c5.6,0,10.2-4.6,10.2-10.2V49c0-5.6-4.6-10.2-10.2-10.2h-47V18.4c0-5.6-4.6-10.2-10.2-10.2h-36.8c-5.6,0-10.2,4.6-10.2,10.2v20.5
			h-47c-5.6,0-10.2,4.6-10.2,10.2v30.7c0,5.6,4.6,10.2,10.2,10.2h47v16.5c-13.5,3.4-26.3,9.2-37.9,17.2c-17.4,12-31,28.2-39.9,47.1
			h-144c-5.6,0-10.2,4.6-10.2,10.2v79.7c0,5.6,4.6,10.2,10.2,10.2h144c8.9,18.9,22.5,35.1,39.9,47.1c19.8,13.6,42.9,20.9,67,20.9
			c24.1,0,47.3-7.2,67-20.9c17.4-12,31-28.2,39.9-47.1h28.7c8.4,0,15.2,6.8,15.2,15.2v52.3c0,5.6,4.6,10.2,10.2,10.2h79.7
			c5.6,0,10.2-4.6,10.2-10.2v-63.9C512,217.2,465.5,170.7,408.3,170.7z M252.4,28.6h16.4v10.3h-16.4V28.6z M195.2,69.5V59.2H326
			v10.3H195.2z M268.8,89.9V103c-2.6-0.2-5.1-0.3-7.7-0.3c-2.9,0-5.8,0.1-8.7,0.3V89.9L268.8,89.9L268.8,89.9z M432.3,328.1V286
			c0-19.6-16-35.6-35.6-35.6h-35.4c-4.2,0-7.9,2.5-9.5,6.4c-14.9,37.4-50.5,61.5-90.7,61.5c-40.2,0-75.9-24.2-90.7-61.5
			c-1.5-3.9-5.3-6.4-9.5-6.4H20.4v-59.3h140.5c4.2,0,7.9-2.5,9.5-6.4c14.9-37.4,50.5-61.5,90.7-61.5s75.9,24.2,90.7,61.5
			c1.5,3.9,5.3,6.4,9.5,6.4h47c45.9,0,83.3,37.4,83.3,83.3v53.7L432.3,328.1L432.3,328.1z"/>
	</g>
</g>
<g>
	<g>
		<path class="st0" d="M469.1,377c-4-3.9-10.3-3.9-14.3,0c-1.7,1.7-41.9,41.6-41.9,77.8c0,27,22,49,49,49s49-22,49-49
			C511,418.6,470.8,378.7,469.1,377z M461.9,483.4c-15.8,0-28.6-12.8-28.6-28.6c0-18.6,16.9-42.1,28.6-55.6
			c11.7,13.5,28.6,37,28.6,55.6C490.6,470.6,477.7,483.4,461.9,483.4z"/>
	</g>
</g>
<g>
	<g>
		<path class="st0" d="M123.6,202.4h-4.1c-5.6,0-10.2,4.6-10.2,10.2c0,5.6,4.6,10.2,10.2,10.2h4.1c5.6,0,10.2-4.6,10.2-10.2
			C133.8,206.9,129.3,202.4,123.6,202.4z"/>
	</g>
</g>
<g>
	<g>
		<path class="st0" d="M84.8,202.4H42.9c-5.6,0-10.2,4.6-10.2,10.2c0,5.6,4.6,10.2,10.2,10.2h41.9c5.6,0,10.2-4.6,10.2-10.2
			C95,206.9,90.4,202.4,84.8,202.4z"/>
	</g>
</g>
</svg>
