<?xml version="1.0" encoding="utf-8"?>
<!-- Generator: Adobe Illustrator 21.0.0, SVG Export Plug-In . SVG Version: 6.00 Build 0)  -->
<svg version="1.1" id="Layer_1" xmlns="http://www.w3.org/2000/svg" xmlns:xlink="http://www.w3.org/1999/xlink" x="0px" y="0px"
	 viewBox="0 0 512 512" style="enable-background:new 0 0 512 512;" xml:space="preserve">
<style type="text/css">
	.st0{fill:#ACA340;}
</style>
<g>
	<g>
		<path class="st0" d="M486.8,454.3h-22.9V10.2c0-5.6-4.6-10.2-10.2-10.2H58.3c-5.6,0-10.2,4.6-10.2,10.2v444.1H25.2
			c-5.6,0-10.2,4.6-10.2,10.2v37.3c0,5.6,4.6,10.2,10.2,10.2h461.6c5.6,0,10.2-4.6,10.2-10.2v-37.3
			C497,458.9,492.4,454.3,486.8,454.3z M68.5,20.4h375v433.9h-375V20.4z M476.6,491.6H35.4v-16.9h441.2L476.6,491.6L476.6,491.6z"/>
	</g>
</g>
<g>
	<g>
		<path class="st0" d="M237.4,40.4H95.6c-5.6,0-10.2,4.6-10.2,10.2v375.7c0,5.6,4.6,10.2,10.2,10.2h141.8c5.6,0,10.2-4.6,10.2-10.2
			V50.6C247.6,44.9,243,40.4,237.4,40.4z M105.8,60.8h99.8c-3.3,61.4-19.5,215.5-99.8,300.5C105.8,361.3,105.8,60.8,105.8,60.8z
			 M105.8,416v-26.5c44-38.8,76.8-98.8,97.7-178.5c15.6-59.6,20.8-116.6,22.5-150.3h1.1V416H105.8z"/>
	</g>
</g>
<g>
	<g>
		<path class="st0" d="M171.1,78.7c-5.6,0-10.2,4.6-10.2,10.2v31c0,5.6,4.6,10.2,10.2,10.2c5.6,0,10.2-4.6,10.2-10.2v-31
			C181.3,83.2,176.8,78.7,171.1,78.7z"/>
	</g>
</g>
<g>
	<g>
		<path class="st0" d="M133.9,77.6c-5.6,0-10.2,4.6-10.2,10.2v133.5c0,5.6,4.6,10.2,10.2,10.2s10.2-4.6,10.2-10.2V87.8
			C144.1,82.2,139.5,77.6,133.9,77.6z"/>
	</g>
</g>
<g>
	<g>
		<path class="st0" d="M416.4,40.4H274.6c-5.6,0-10.2,4.6-10.2,10.2v375.7c0,5.6,4.6,10.2,10.2,10.2h141.8c5.6,0,10.2-4.6,10.2-10.2
			V50.6C426.6,44.9,422,40.4,416.4,40.4z M406.2,416H284.8V60.8h1.1c1.7,33.7,6.9,90.7,22.5,150.3c20.9,79.7,53.8,139.8,97.7,178.5
			V416z M406.2,361.3c-80.3-84.9-96.6-239.1-99.8-300.5h99.8V361.3z"/>
	</g>
</g>
<g>
	<g>
		<path class="st0" d="M340.9,78.7c-5.6,0-10.2,4.6-10.2,10.2v31c0,5.6,4.6,10.2,10.2,10.2s10.2-4.6,10.2-10.2v-31
			C351.1,83.2,346.5,78.7,340.9,78.7z"/>
	</g>
</g>
<g>
	<g>
		<path class="st0" d="M378.1,206c-5.6,0-10.2,4.6-10.2,10.2v5.2c0,5.6,4.6,10.2,10.2,10.2s10.2-4.6,10.2-10.2v-5.2
			C388.3,210.5,383.8,206,378.1,206z"/>
	</g>
</g>
<g>
	<g>
		<path class="st0" d="M378.1,77.6c-5.6,0-10.2,4.6-10.2,10.2V183c0,5.6,4.6,10.2,10.2,10.2s10.2-4.6,10.2-10.2V87.8
			C388.3,82.2,383.8,77.6,378.1,77.6z"/>
	</g>
</g>
</svg>
