<?xml version="1.0" encoding="utf-8"?>
<!-- Generator: Adobe Illustrator 21.0.0, SVG Export Plug-In . SVG Version: 6.00 Build 0)  -->
<svg version="1.1" id="Layer_1" xmlns="http://www.w3.org/2000/svg" xmlns:xlink="http://www.w3.org/1999/xlink" x="0px" y="0px"
	 viewBox="0 0 80 85.7" style="enable-background:new 0 0 80 85.7;" xml:space="preserve">
<style type="text/css">
	.st0{fill:#ACA340;stroke:#ACA340;stroke-miterlimit:10;}
</style>
<title>icon-wiring</title>
<desc>Created with Sketch.</desc>
<g>
	<g transform="translate(-559.000000, -222.000000)">
		<g transform="translate(565.000000, 232.000000)">
			<path class="st0" d="M19.1,6.3h30c8.3,0,15,6.8,15,15.2c0,8.4-6.7,15.2-15,15.2h-30c-1.1,0-2.1,0.9-2.1,2.1C17,40,18,41,19.1,41
				h30c10.6,0,19.1-8.7,19.1-19.4c0-10.7-8.6-19.4-19.1-19.4h-30C18,2.1,17,3,17,4.2S18,6.3,19.1,6.3L19.1,6.3z"/>
			<path class="st0" d="M49.1,18.9h-30C8.6,18.9,0,27.6,0,38.4c0,10.7,8.6,19.4,19.1,19.4h30c1.1,0,2.1-0.9,2.1-2.1
				c0-1.2-0.9-2.1-2.1-2.1h-30c-8.3,0-15-6.8-15-15.2c0-8.4,6.7-15.2,15-15.2h30c1.1,0,2.1-0.9,2.1-2.1S50.2,18.9,49.1,18.9
				L49.1,18.9z"/>
			<path class="st0" d="M53.7,62c3.4,0,6.2-2.8,6.2-6.3c0-3.5-2.8-6.3-6.2-6.3s-6.2,2.8-6.2,6.3C47.5,59.2,50.3,62,53.7,62L53.7,62z
				 M53.7,57.8c-1.1,0-2.1-0.9-2.1-2.1c0-1.2,0.9-2.1,2.1-2.1s2.1,0.9,2.1,2.1C55.8,56.9,54.9,57.8,53.7,57.8L53.7,57.8z"/>
			<ellipse class="st0" cx="14.5" cy="38.9" rx="4.1" ry="4.2"/>
			<path class="st0" d="M53.7,27.3c3.4,0,6.2-2.8,6.2-6.3s-2.8-6.3-6.2-6.3s-6.2,2.8-6.2,6.3S50.3,27.3,53.7,27.3L53.7,27.3z
				 M53.7,23.1c-1.1,0-2.1-0.9-2.1-2.1s0.9-2.1,2.1-2.1s2.1,0.9,2.1,2.1S54.9,23.1,53.7,23.1L53.7,23.1z"/>
			<ellipse class="st0" cx="14.5" cy="4.2" rx="4.1" ry="4.2"/>
		</g>
	</g>
</g>
</svg>
